<?xml version="1.0" encoding="UTF-8"?><svg id="Layer_1" xmlns="http://www.w3.org/2000/svg" viewBox="0 0 1894.52 1073.68"><defs><style>.cls-1{fill:#e2e2e2;stroke-width:0px;}</style></defs><path class="cls-1" d="m970.96,0c-146.51,0-265.25,118.73-265.25,265.25s118.73,265.38,265.25,265.38,265.25-118.73,265.25-265.38C1236.34,118.73,1117.48,0,970.96,0Zm21.49,152.02c.26-1.31.39-2.62.66-3.8.13-.39.13-.79.26-1.18.13-.92.39-1.7.52-2.62.13-.52.26-.92.39-1.31.13-.79.39-1.57.52-2.36.13-.52.26-.92.39-1.31.26-.79.39-1.57.66-2.23.13-.39.26-.92.39-1.31.26-.79.52-1.44.79-2.23.13-.39.26-.79.39-1.18.26-.79.52-1.57.79-2.23.13-.39.26-.79.39-1.05.26-.79.66-1.57.92-2.36.13-.26.26-.66.39-.92.39-.79.79-1.7,1.05-2.49.13-.26.26-.52.26-.66.39-.92.92-1.83,1.31-2.75,0-.13.13-.26.13-.39,11.01-21.23,28.31-34.07,45.34-30.93,24.51,4.46,39.31,39.97,33.02,79.55-2.36,14.55-7.08,27.52-13.5,38h0c-1.31,2.23-2.75,4.32-4.32,6.29,0,0,0,.13-.13.13-.66.92-1.44,1.83-2.1,2.62q-.13.13-.26.26c-2.23,2.75-4.72,5.11-7.21,7.21-.13.13-.26.26-.39.26-.66.52-1.44,1.18-2.1,1.7-.13.13-.26.26-.52.39-.79.52-1.57,1.05-2.36,1.57,0,0-.13,0-.13.13-.92.52-1.7,1.05-2.62,1.57-.13,0-.26.13-.26.13-.79.39-1.44.79-2.23,1.05-.26.13-.52.13-.66.26-.66.26-1.31.52-1.97.79-.26.13-.52.13-.66.26-.79.26-1.57.52-2.36.66h-.26c-.92.26-1.83.39-2.62.52-.26,0-.52,0-.66.13-.66.13-1.31.13-1.97.13h-3.54c-.92-.13-1.83-.13-2.62-.39-3.01-.52-6.03-1.57-8.78-3.01-1.31-.79-2.75-1.57-3.93-2.49-3.15-2.36-6.16-5.37-8.65-8.91-1.05-1.44-1.97-2.88-2.88-4.46-6.42-11.01-10.22-25.95-10.22-42.33-.13-6.55.26-12.58,1.31-18.74Zm-133.15-6.03v-.66c0-1.44.13-2.88.26-4.32v-.79c.13-1.57.26-3.15.52-4.59,0-.26.13-.52.13-.66.26-1.44.39-2.88.79-4.19,0-.13,0-.26.13-.39.26-1.44.66-3.01,1.05-4.46,0-.26.13-.39.13-.52.79-2.88,1.7-5.77,2.75-8.39,0-.13.13-.26.13-.39,1.05-2.75,2.23-5.24,3.54-7.6,0-.13.13-.13.13-.26,1.31-2.36,2.88-4.72,4.46-6.68,0,0,0-.13.13-.13,1.57-2.1,3.41-3.93,5.24-5.64h0c4.46-3.93,9.44-6.55,15.07-7.47,24.51-4.46,49.54,23.98,55.83,63.43,3.54,22.67.26,44.03-7.86,58.97h0c-1.57,2.75-3.15,5.37-4.98,7.6h0c-.39.52-.79.92-1.18,1.44-.13.13-.26.26-.26.39l-1.18,1.18-.39.39c-.39.39-.79.79-1.18,1.05-.13.13-.39.26-.52.39-.39.39-.79.66-1.18,1.05-.13.13-.39.26-.52.39-.66.52-1.31,1.05-2.1,1.57-.26.13-.52.39-.79.52-.26.13-.66.39-.92.52-.39.26-.66.39-1.05.52-.26.13-.52.26-.92.52-.39.13-.79.39-1.05.52-.26.13-.52.26-.92.39s-.79.26-1.18.52c-.26.13-.52.26-.79.26-.39.13-.92.26-1.31.39-.26.13-.52.13-.66.26-.66.13-1.44.39-2.1.52h0c-19.92,3.54-40.1-14.55-50.45-42.59-.39-1.05-.79-2.23-1.18-3.28-1.05-3.28-2.1-6.81-2.88-10.35-.52-2.36-1.05-4.85-1.44-7.21-.26-1.7-.52-3.41-.66-5.11,0-.39-.13-.79-.13-1.18-.13-1.7-.26-3.28-.39-4.98v-.52c-.13-1.57-.13-3.01-.13-4.59v-1.05c0-1.7,0-3.28,0-4.85Zm-12.32,157.65c-.66.92-1.44,1.83-2.1,2.62l-.13.13c-.66.79-1.44,1.57-2.23,2.36l-.13.13c-.79.79-1.57,1.44-2.36,2.1-.13.13-.26.26-.39.26-.79.66-1.57,1.18-2.36,1.7l-.13.13c-.79.52-1.7,1.05-2.62,1.44-.26.13-.39.26-.66.26-.92.39-1.83.92-2.75,1.18-2.1.79-4.19,1.31-6.29,1.7-2.1.39-4.32.52-6.42.39-.66,0-1.44-.13-2.1-.13-1.44-.13-2.88-.39-4.32-.66-2.88-.66-5.64-1.7-8.39-3.01-3.41-1.7-6.81-3.8-9.96-6.42-.66-.52-1.31-1.05-1.83-1.57-3.15-2.75-6.03-6.03-8.65-9.57-4.19-5.77-7.73-12.58-10.35-20.05-.52-1.44-.92-2.88-1.31-4.32-.13-.26-.13-.52-.26-.79-.39-1.44-.66-2.75-.92-4.19,0-.26-.13-.52-.13-.79-.26-1.44-.52-2.88-.66-4.19v-.26c-.13-1.31-.26-2.75-.39-4.06v-.66c-.13-1.31-.13-2.75-.13-4.06v-.79c0-1.31,0-2.75.13-4.06v-.39c.13-1.31.13-2.49.39-3.8v-.52c.13-1.31.39-2.49.66-3.8,0-.26.13-.52.13-.79.26-1.18.52-2.49.79-3.67,0-.13.13-.26.13-.52.26-1.18.66-2.36,1.05-3.41,0-.13.13-.26.13-.39.39-1.18.92-2.23,1.31-3.41.13-.26.13-.39.26-.66l1.57-3.15c.13-.13.13-.26.26-.39.52-1.05,1.18-1.97,1.7-2.88l.13-.13c.66-.92,1.31-1.83,1.97-2.75.13-.13.26-.26.39-.52.66-.92,1.44-1.7,2.23-2.49.13-.13.26-.26.39-.39.79-.79,1.57-1.57,2.49-2.36h0c2.88-2.36,6.03-4.19,9.44-5.5,22.15-8.39,48.23,9.17,58.45,39.45,6.29,18.48,4.98,37.48-1.97,51.37h0c-1.44,2.36-2.62,4.32-4.06,6.29h0Zm241.13,114.67c-20.18,38.79-68.28,22.15-96.71,11.14h-.13c-.52-.26-1.05-.39-1.57-.52q-.13,0-.26-.13c-.39-.13-.92-.39-1.31-.52-1.18-.39-2.23-.92-3.28-1.31h-.13c-.39-.13-.92-.39-1.31-.52h-.13c-.39-.13-.79-.26-1.31-.52h-.13c-.39-.13-.79-.26-1.18-.39h-.13c-.39-.13-.79-.26-1.18-.39h-.13c-2.88-1.05-5.24-1.83-6.95-2.1h0c-4.72.79-14.15,4.98-25.82,9.3h-.13c-.66.26-1.18.39-1.83.66h-.13c-.66.26-1.18.39-1.83.66q-.13,0-.26.13c-.52.26-1.18.39-1.7.66-.13,0-.26.13-.39.13-.52.13-1.18.39-1.7.52-.13,0-.26.13-.39.13-.52.13-1.18.39-1.7.52-.13,0-.26.13-.39.13-.52.13-1.18.39-1.7.52-.13,0-.26.13-.52.13-.52.13-1.18.39-1.7.52-.13,0-.26.13-.52.13-.52.13-1.18.39-1.7.52-.13,0-.26.13-.52.13-.52.13-1.18.26-1.7.52-.13,0-.26.13-.52.13-.52.13-1.18.26-1.7.52-.13,0-.26.13-.39.13-.66.13-1.18.26-1.83.39-.13,0-.26,0-.39.13-.66.13-1.31.26-1.97.39h-.26c-.79.13-1.44.26-2.23.52h0c-3.01.66-6.16,1.18-9.17,1.44h-.13c-.66.13-1.44.13-2.1.26h-.52c-.66,0-1.18.13-1.83.13h-.66c-.52,0-1.05.13-1.57.13h-7.47c-.39,0-.92,0-1.31-.13-.26,0-.66,0-.92-.13-.39,0-.92-.13-1.31-.13-.26,0-.66-.13-.92-.13-.39,0-.79-.13-1.18-.13-.26,0-.66-.13-.92-.13-.39-.13-.79-.13-1.18-.26-.26,0-.66-.13-.92-.13-.39-.13-.79-.13-1.18-.26-.26-.13-.66-.13-.92-.26-.39-.13-.79-.26-1.18-.26-.26-.13-.66-.13-.92-.26-.39-.13-.79-.26-1.18-.39-.26-.13-.66-.26-.92-.26-.39-.13-.79-.26-1.05-.39-.26-.13-.66-.26-.92-.39-.39-.13-.66-.26-1.05-.52-.26-.13-.52-.26-.92-.39-.39-.13-.66-.39-1.05-.52-.26-.13-.52-.26-.92-.39-.39-.13-.66-.39-1.05-.52-.26-.13-.52-.39-.79-.52-.39-.26-.66-.39-1.05-.66-.26-.13-.52-.39-.79-.52-.26-.26-.66-.52-.92-.66-.26-.26-.52-.39-.79-.66-.26-.26-.66-.52-.92-.79s-.52-.39-.79-.66c-.26-.26-.66-.52-.92-.79s-.52-.52-.79-.66c-.26-.26-.66-.66-.92-.92s-.52-.52-.66-.79c-.26-.26-.52-.66-.92-1.05-.26-.26-.39-.52-.66-.79-.26-.39-.52-.79-.92-1.05-.26-.26-.39-.52-.66-.79-.26-.39-.52-.79-.92-1.18-.13-.26-.39-.52-.52-.79-.26-.52-.66-.92-.92-1.44l-.39-.79c-.39-.79-.92-1.57-1.31-2.36h0c-.52-.92-.92-1.97-1.44-2.88-.13-.26-.26-.52-.39-.92-.26-.66-.66-1.31-.92-2.1-.13-.26-.26-.66-.39-.92-.26-.79-.66-1.57-.92-2.36,0-.13-.13-.26-.13-.39-.39-.92-.66-1.83-.92-2.75-.13-.26-.13-.52-.26-.79-.26-.66-.39-1.31-.52-1.97-.13-.26-.13-.52-.26-.92-.13-.66-.39-1.44-.52-2.1,0-.26-.13-.39-.13-.66-.13-.92-.39-1.7-.52-2.62,0-.26,0-.39-.13-.52-.13-.66-.13-1.31-.26-2.1,0-.26,0-.52-.13-.79,0-.66-.13-1.31-.13-1.97v-6.42c0-.66.13-1.18.13-1.83,0-.26,0-.52.13-.79.13-.79.13-1.57.26-2.36v-.13c.13-.79.26-1.57.39-2.49,0-.26.13-.39.13-.66.13-.66.26-1.18.39-1.83,0-.26.13-.52.13-.66.13-.66.39-1.31.52-2.1,0-.13,0-.26.13-.39.26-.79.52-1.57.79-2.36,0-.13.13-.39.13-.52.26-.66.39-1.18.66-1.83.13-.26.13-.39.26-.66.26-.66.52-1.18.79-1.83,0-.13.13-.26.13-.39.39-.79.66-1.57,1.05-2.36,0-.13.13-.13.13-.26.26-.66.66-1.31.92-1.97.13-.13.13-.39.26-.52.26-.66.66-1.18.92-1.83.13-.13.13-.26.26-.39.79-1.44,1.7-2.88,2.62-4.46.13-.13.13-.26.26-.39.39-.66.79-1.18,1.18-1.7.13-.13.13-.26.26-.39.92-1.44,1.97-2.88,3.01-4.32q.13-.13.26-.26c.39-.66.92-1.18,1.44-1.83.13-.13.13-.26.26-.39,1.05-1.44,2.23-2.75,3.41-4.19h0c.52-.66,1.18-1.31,1.7-1.97q.13-.13.26-.26c.52-.66,1.18-1.31,1.7-1.97h0c10.48-11.79,22.41-22.28,31.45-31.71,13.76-14.42,31.85-25.69,45.74-33.02,13.5-7.08,29.09-7.08,42.59,0,13.89,7.34,31.98,18.61,45.74,33.02,26.73,26.87,76.4,62.77,49.27,114.8Zm74.31-126.99h0c-2.36,3.93-4.98,7.47-7.86,10.62h0c-2.88,3.15-5.9,5.9-9.04,8.13-.13,0-.13.13-.26.13-2.1,1.44-4.19,2.75-6.42,3.8,0,0-.13,0-.13.13-1.05.52-2.1.92-3.15,1.44-.13,0-.26.13-.39.13-1.05.39-2.1.79-3.28,1.05h-.13c-1.05.26-2.1.52-3.15.79-.13,0-.26,0-.39.13-1.05.13-2.1.26-3.15.39h-.52c-1.05.13-2.1.13-3.15.13h-.13c-1.05,0-2.1-.13-3.01-.26-.13,0-.39,0-.52-.13-1.05-.13-1.97-.39-3.01-.66-.26,0-.39-.13-.66-.13-1.05-.26-2.1-.66-3.15-1.05h0c-4.19-1.57-7.86-3.93-11.01-6.95-.52-.52-1.05-1.05-1.57-1.57-4.06-4.32-7.21-9.7-9.44-15.86-.26-.79-.52-1.57-.79-2.36-.52-1.57-.92-3.15-1.31-4.85-.13-.79-.39-1.7-.52-2.49-.26-1.7-.52-3.41-.66-5.24-.26-2.62-.39-5.37-.26-8.13,0-1.7.13-3.54.39-5.37.13-1.05.26-1.97.39-3.01.39-2.62.92-5.11,1.44-7.73.13-.52.26-1.05.39-1.57.39-1.57.92-3.28,1.44-4.85.39-1.31.92-2.49,1.31-3.67.13-.26.26-.66.39-.92.52-1.18.92-2.23,1.44-3.41v-.13c.52-1.18,1.18-2.36,1.7-3.41.13-.26.26-.52.39-.66.52-1.05,1.18-2.1,1.83-3.15h0c.66-1.05,1.31-2.1,2.1-3.15.13-.13.26-.26.39-.52,1.44-2.1,3.01-3.93,4.59-5.77.13-.13.13-.26.26-.26,12.45-13.89,29.09-19.92,44.03-14.28,22.15,8.39,31.71,39.71,21.62,69.98-2.1,5.37-4.32,10.22-7.08,14.68Z"/><path class="cls-1" d="m216.03,928.08v-185.35c0-8.81,0-23.55.42-33.59v-.18c0-5.36-1.06-8.92-6.39-11.21-5.65-2.57-18.81-3.36-25.87-2.91-2.23.2-5.42.77-7.39,3.36-1.97,2.59-1.72,5.8-1.24,8.43,1,7.02,3.33,26.06,3.33,51.31v59.33H40.81v-74.53c0-8.81,0-23.55.42-33.59v-.18c0-5.36-1.06-8.92-6.39-11.21-5.64-2.57-18.81-3.35-25.87-2.91-2.23.2-5.42.77-7.39,3.36-1.97,2.6-1.72,5.8-1.24,8.43,1,7.02,3.33,26.06,3.33,51.31v170.15c0,22.46-.43,33.04-1.26,51.31v.2c0,2.15,1.01,6.08,7.81,8.17,3.11.96,7.26,1.48,11.67,1.48,4.73,0,20.18-.7,20.18-9.65v-.2c-.82-17.93-1.27-27.8-1.27-51.31v-76.64h138.08v76.64c0,22.51-.43,33.07-1.26,51.31v.2c0,6.13,7.1,9.65,19.48,9.65,4.73,0,20.18-.7,20.18-9.65v-.2c-.82-17.9-1.27-27.76-1.27-51.31Z"/><path class="cls-1" d="m429.37,955c-5.06,1.08-9.73,1.59-14.69,1.59-2.02,0-2.64-.38-2.67-.35-.02-.04-.09-.24-.09-.71v-104.28c0-56.18-34.56-76.2-66.91-76.2-35.73,0-63.06,15.92-86.04,50.15-1.07,1.65-2.46,5.11.21,9.79,3.82,6.7,14.98,13.26,22.05,12.96,3.42-.13,6.12-1.78,7.37-4.43,8.49-16.98,26.22-35.13,50.51-35.13s37.37,14.97,37.37,43.28v5.72l-53.11,11.49c-45.53,10.06-70.6,33.64-70.6,66.39s26.47,58.04,64.38,58.04c23.84,0,45.58-11.85,61.04-23.32,4.61,12.09,17.25,19.09,28.89,19.09,7.94,0,19.53-1.31,28.27-4.97,6.66-2.64,7.99-11.54,5.87-18.99-2.03-7.12-6.64-11.11-11.84-10.13Zm-52.89-66.85v46.17c-19.06,14.39-35.82,25.22-59.33,25.22-19.98,0-28.93-12.2-28.93-24.28s4.72-26.22,39.71-34.97l48.54-12.14Z"/><path class="cls-1" d="m558.65,775.04c-18.25,0-35.97,7.36-51.78,21.39.03-1.03.06-2.03.06-3.03,0-5.36-1.06-8.92-6.39-11.21-5.9-2.68-17.62-3.32-24.19-2.91-2.23.2-5.42.77-7.39,3.36-1.97,2.59-1.72,5.8-1.24,8.43,1,7.02,3.33,26.06,3.33,51.31v170.15c0,22.5-.43,33.06-1.26,51.31v.2c0,2.12.94,5.99,7.23,8.13,2.89.98,6.73,1.52,10.8,1.52,9.03,0,18.67-2.54,18.67-9.65v-83.55c13.47,8.62,27.15,12.82,41.6,12.82,54.27,0,95.2-48.73,95.2-113.35,0-31.63-8.26-58.25-23.88-76.98-15.23-18.27-36.25-27.93-60.77-27.93Zm-10.55,185.35c-15.92,0-29.55-4.76-41.6-14.53v-104.82c12.17-20.46,36.36-33.08,52.15-33.08,23.69,0,49.19,22.53,49.19,71.99,0,45.1-26.24,80.44-59.75,80.44Z"/><path class="cls-1" d="m772.28,775.04c-18.25,0-35.98,7.36-51.78,21.39.03-1.02.06-2.03.06-3.03,0-5.36-1.06-8.92-6.39-11.21-5.91-2.68-17.62-3.32-24.19-2.91-2.23.2-5.42.77-7.38,3.36-1.97,2.59-1.72,5.8-1.24,8.43,1,7.02,3.33,26.06,3.33,51.31v170.15c0,22.51-.43,33.08-1.26,51.31v.2c0,2.12.94,5.99,7.23,8.13,2.89.98,6.73,1.52,10.8,1.52,9.03,0,18.67-2.54,18.67-9.65v-83.55c13.47,8.62,27.15,12.82,41.59,12.82,54.27,0,95.2-48.73,95.2-113.35,0-31.63-8.26-58.25-23.88-76.98-15.23-18.27-36.25-27.93-60.76-27.93Zm-10.56,185.35c-15.92,0-29.55-4.76-41.59-14.53v-104.82c12.17-20.46,36.36-33.08,52.15-33.08,23.69,0,49.19,22.53,49.19,71.99,0,45.1-26.24,80.44-59.75,80.44Z"/><path class="cls-1" d="m1045.8,779.14c-5.71.71-7.87,3.93-8.65,5.77-2.18,5.1-4.45,10.44-6.8,15.97-16.71,39.33-37.27,87.71-60.04,131.62l-61.38-145.88c-1.11-2.65-4.1-6.01-12.02-6.99-7.21-.89-19.38.52-23.84,6.46-1.83,2.43-2.19,5.42-.96,8.28,7.37,16.39,55.45,127.05,76.76,176.44-20.15,33.14-38.17,55.15-54.95,67.2-2.89,1.98-4.31,5.2-3.98,9.08.59,7.15,7.27,16.04,14.57,19.42,2.06.95,4.09,1.43,6.01,1.43,2.25,0,4.34-.65,6.14-1.93,59.07-40.4,120.27-188.67,153.15-268.35,1.36-3.21.84-6.66-1.46-9.73-4.24-5.64-14.76-9.74-22.53-8.78Z"/><path class="cls-1" d="m1287.36,694.83h-76.84l-.4.02c-2.23.2-5.42.77-7.39,3.36-1.97,2.59-1.72,5.8-1.24,8.43,1,7.02,3.33,26.06,3.33,51.31v170.15c0,22.51-.43,33.07-1.26,51.31v.2c0,2.16,1.01,6.08,7.81,8.17,3.12.96,7.26,1.48,11.68,1.48,4.73,0,20.19-.7,20.19-9.65v-.2c-.61-13.34-.56-21.83-.48-34.69.03-4.82.06-10.21.06-16.64l-.84-185.33v-14.57h45.39c65.67,0,73.26,29.28,73.26,51.31,0,45.89-53.61,55.53-98.59,55.53-3.54,0-6.56,2.23-8.28,6.11-1.45,3.29-1.76,7.03-1.76,9.6,0,8.49,3.41,17.63,10.88,17.63,40.58,0,74.41-8.06,97.83-23.3,23.96-15.6,36.63-38.27,36.63-65.56,0-38.61-19.08-84.64-109.98-84.64Z"/><path class="cls-1" d="m1588.31,955c-5.06,1.08-9.73,1.59-14.7,1.59-2.06,0-2.7-.36-2.67-.35-.02-.04-.09-.24-.09-.71v-104.28c0-56.18-34.56-76.2-66.91-76.2-35.73,0-63.06,15.92-86.04,50.15-1.07,1.65-2.46,5.11.21,9.79,3.81,6.7,14.93,13.25,22.05,12.96,3.42-.13,6.12-1.78,7.37-4.43,8.49-16.98,26.22-35.13,50.51-35.13s37.37,14.97,37.37,43.28v5.72l-53.1,11.49c-45.53,10.06-70.6,33.64-70.6,66.39s26.47,58.04,64.38,58.04c23.85,0,45.58-11.85,61.03-23.32,4.62,12.09,17.25,19.09,28.89,19.09,7.94,0,19.53-1.31,28.26-4.97,6.66-2.64,8-11.54,5.87-18.99-2.03-7.12-6.64-11.11-11.84-10.13Zm-52.9-66.85v46.17c-19.06,14.39-35.82,25.22-59.33,25.22-19.98,0-28.93-12.2-28.93-24.28s4.72-26.22,39.71-34.97l48.54-12.14Z"/><path class="cls-1" d="m1891.66,786.77c-4.79-5.35-15.76-8.79-23.02-7.23-5.19,1.12-6.94,4.36-7.51,6.19l-46.1,151.87-47.65-151.09c-2-6.01-10.52-7.97-17.91-7.82-4.02.09-13.58,1-15.42,7.47l-47.66,151.49-46.5-151.5c-.59-1.88-2.46-5.22-8.3-6.48-7.71-1.66-20.71.92-25.93,6.74-2.35,2.62-3.08,5.74-2.07,8.78,7.09,21.71,55.34,172.35,58.66,183.16,2.92,9.5,13.27,10.72,21.96,10.72s18.75-1.24,22.29-10.44l42.7-133.45,41.83,133.16c2.92,9.5,13.27,10.72,21.96,10.72s18.75-1.24,22.31-10.49c2.88-7.79,25.54-78.54,42.08-130.21,8.09-25.26,14.47-45.21,16.66-51.9,1.11-3.32.26-6.78-2.38-9.72Z"/></svg>