<svg width="303" height="242" viewBox="0 0 303 242" fill="none" xmlns="http://www.w3.org/2000/svg">
<g clip-path="url(#clip0_88762_2086)">
<path d="M191.79 153.4C191.79 153.4 185.782 154.661 181.586 152.768C177.389 150.875 175.004 150.73 168.52 147.573C162.035 144.419 156.504 146.523 150.207 143.035C143.911 139.548 140.542 131.017 136.408 127.168C132.274 123.319 129.034 123.983 122.421 117.672C115.808 111.36 119.051 97.4176 118.224 93.8705C117.397 90.3235 111.674 84.0156 111.611 77.824C111.548 71.6324 115.109 66.7647 118.096 60.9976C121.086 55.2274 117.459 41.5267 121.719 35.3948C125.978 29.2662 136.28 26.3795 139.84 21.452C143.4 16.5245 148.806 9.61283 155.545 7.38965C162.286 5.16646 169.153 8.05 176.91 4.08475C184.667 0.119492 191.79 0 191.79 0C191.79 0 198.911 0.119492 206.668 4.08789C214.425 8.05629 221.292 5.16961 228.033 7.39279C234.774 9.61598 240.178 16.5277 243.738 21.4551C247.298 26.3826 257.6 29.2693 261.859 35.398C266.118 41.5267 262.495 55.2305 265.482 61.0008C268.469 66.771 272.032 71.6387 271.967 77.8271C271.904 84.0187 266.181 90.3267 265.354 93.8737C264.526 97.4207 267.77 111.364 261.157 117.675C254.544 123.986 251.3 123.325 247.17 127.171C243.039 131.017 239.667 139.551 233.37 143.038C227.074 146.526 221.542 144.422 215.058 147.576C208.573 150.73 206.188 150.878 201.992 152.771C197.795 154.664 191.787 153.403 191.787 153.403L191.79 153.4Z" fill="#EFB899"/>
<path d="M232.229 20.6596C232.229 20.6596 244.057 5.11932 258.841 7.03748C273.624 8.95879 286.214 24.4079 291.363 35.1936C296.512 45.9825 303 52.7841 303 52.7841V61.2492C303 61.2492 290.028 73.5915 263.896 72.3117C237.764 71.0318 232.229 20.6596 232.229 20.6596Z" fill="#DF8A57"/>
<path d="M151.182 20.6596C151.182 20.6596 139.354 5.11932 124.57 7.03748C109.787 8.95879 97.1973 24.4079 92.048 35.1936C86.8987 45.9825 80.4111 52.7841 80.4111 52.7841V61.2492C80.4111 61.2492 93.3831 73.5915 119.515 72.3117C145.647 71.0318 151.182 20.6596 151.182 20.6596Z" fill="#DF8A57"/>
<path d="M157.773 57.4789H153.075C152.336 57.4789 151.737 58.08 151.737 58.8216V71.6167C151.737 72.3583 152.336 72.9594 153.075 72.9594H157.773C158.512 72.9594 159.111 72.3583 159.111 71.6167V58.8216C159.111 58.08 158.512 57.4789 157.773 57.4789Z" fill="#374259"/>
<path d="M225.071 72.9594H229.769C230.508 72.9594 231.107 72.3583 231.107 71.6167V58.8216C231.107 58.08 230.508 57.4789 229.769 57.4789H225.071C224.332 57.4789 223.733 58.08 223.733 58.8216V71.6167C223.733 72.3583 224.332 72.9594 225.071 72.9594Z" fill="#374259"/>
<path d="M191.42 81.283C193.762 81.283 198.977 79.8711 202.756 75.0191C206.536 70.167 205.778 62.1265 202.302 59.809C198.826 57.4914 191.42 58.07 191.42 58.07C191.42 58.07 184.015 57.4914 180.539 59.809C177.063 62.1265 176.308 70.167 180.084 75.0191C183.864 79.8711 189.076 81.283 191.42 81.283Z" fill="#374259"/>
<path d="M199.911 103.392C195.864 103.392 193.132 100.452 191.42 97.559C189.709 100.455 186.976 103.392 182.93 103.392C176.483 103.392 173.882 96.0277 173.362 91.6756C173.202 90.3392 174.152 89.1223 175.487 88.9619C176.825 88.8015 178.032 89.7575 178.191 91.0939C178.201 91.1631 179.276 98.5118 182.93 98.5118C186.274 98.5118 188.537 92.7731 189.067 90.7637C189.349 89.6914 190.314 88.9462 191.417 88.9462H191.424C192.53 88.9462 193.495 89.6946 193.774 90.77C194.301 92.7762 196.563 98.5118 199.911 98.5118C203.596 98.5118 204.64 91.1662 204.649 91.0939C204.809 89.7575 206.016 88.8015 207.354 88.9619C208.686 89.1223 209.639 90.3361 209.479 91.6756C208.959 96.0277 206.357 103.392 199.911 103.392Z" fill="#374259"/>
<path d="M141.557 86.7576C141.557 45.0203 168.811 10.3141 204.731 3.17598C197.767 0.110059 191.79 0 191.79 0C191.79 0 184.67 0.119492 176.913 4.08789C169.156 8.05314 162.289 5.16961 155.548 7.39279C148.806 9.61598 143.403 16.5277 139.843 21.4551C136.283 26.3826 125.981 29.2693 121.722 35.398C117.462 41.5267 121.085 55.2305 118.099 61.0008C115.109 66.771 111.548 71.6387 111.614 77.8303C111.677 84.0219 117.4 90.3298 118.227 93.8768C119.054 97.4239 115.811 111.367 122.424 117.678C129.037 123.989 132.28 123.329 136.411 127.174C140.545 131.02 143.914 139.554 150.21 143.042C154.758 145.56 158.911 145.167 163.308 145.941C149.85 130.646 141.56 109.772 141.56 86.7576H141.557Z" fill="#EAAA83"/>
<path d="M48.967 111.823C48.967 111.823 17.3002 94.3108 7.6692 101.87C3.91144 104.82 1.23807 109.927 0.335449 116.514C2.90226 116.546 22.7692 117.099 36.6281 126.435L48.9701 111.826L48.967 111.823Z" fill="#A8A8A8"/>
<path d="M11.8656 155.746L36.6248 126.432C22.7659 117.096 2.90208 116.543 0.332135 116.511C-1.08134 126.813 1.8553 140.743 11.8624 155.746H11.8656Z" fill="#E2AFAF"/>
<path d="M128.638 111.823C128.638 111.823 160.305 94.3108 169.936 101.87C173.694 104.82 176.367 109.927 177.27 116.514C174.703 116.546 154.836 117.099 140.977 126.435L128.635 111.826L128.638 111.823Z" fill="#A8A8A8"/>
<path d="M165.74 155.746L140.98 126.432C154.839 117.096 174.703 116.543 177.273 116.511C178.687 126.813 175.75 140.743 165.743 155.746H165.74Z" fill="#E2AFAF"/>
<path d="M89.5657 242C134.796 242 171.462 209.838 171.462 170.163C171.462 130.489 134.796 98.3264 89.5657 98.3264C44.3354 98.3264 7.66895 130.489 7.66895 170.163C7.66895 209.838 44.3354 242 89.5657 242Z" fill="#F0F0F0"/>
<path d="M31.4253 170.163C31.4253 134.029 61.8447 104.131 101.444 99.0811C97.5638 98.5874 93.5992 98.3264 89.5657 98.3264C44.3346 98.3264 7.66895 130.489 7.66895 170.163C7.66895 209.838 44.3346 242 89.5657 242C93.5992 242 97.567 241.739 101.444 241.245C61.8447 236.198 31.4253 206.3 31.4253 170.163Z" fill="#D9D9D9"/>
<path d="M57.3224 148.346H52.6244C51.8853 148.346 51.2861 148.948 51.2861 149.689V163.207C51.2861 163.949 51.8853 164.55 52.6244 164.55H57.3224C58.0615 164.55 58.6606 163.949 58.6606 163.207V149.689C58.6606 148.948 58.0615 148.346 57.3224 148.346Z" fill="#374259"/>
<path d="M23.5651 183.449C22.5998 183.449 21.6846 182.867 21.3054 181.914C20.8071 180.663 21.412 179.245 22.6593 178.745C23.0887 178.572 33.287 174.522 46.0584 173.097C47.3904 172.946 48.597 173.915 48.7443 175.254C48.8916 176.594 47.9294 177.798 46.5943 177.949C34.5062 179.295 24.5648 183.238 24.4646 183.276C24.17 183.395 23.8628 183.449 23.5651 183.449Z" fill="#374259"/>
<path d="M31.4284 202.681C30.7389 202.681 30.0525 202.388 29.5699 201.816C28.7017 200.788 28.8302 199.25 29.8551 198.379C30.2061 198.08 38.6023 190.999 50.2674 185.59C51.4865 185.024 52.9313 185.559 53.4955 186.782C54.0596 188.005 53.5268 189.455 52.3076 190.021C41.2694 195.14 33.08 202.036 32.9986 202.105C32.541 202.492 31.9831 202.681 31.4284 202.681Z" fill="#374259"/>
<path d="M88.8012 173.418C90.7726 173.418 95.1603 170.739 98.3382 166.465C101.516 162.192 100.883 155.11 97.9559 153.066C95.0318 151.026 88.7981 151.535 88.7981 151.535C88.7981 151.535 82.5675 151.026 79.6403 153.066C76.7162 155.107 76.08 162.189 79.2579 166.465C82.4359 170.739 86.8236 173.418 88.795 173.418H88.8012Z" fill="#E2AFAF"/>
<path d="M119.772 164.547H124.47C125.209 164.547 125.808 163.946 125.808 163.204V149.686C125.808 148.945 125.209 148.343 124.47 148.343H119.772C119.033 148.343 118.434 148.945 118.434 149.686V163.204C118.434 163.946 119.033 164.547 119.772 164.547Z" fill="#374259"/>
<path d="M153.529 183.449C153.228 183.449 152.924 183.392 152.627 183.276C152.526 183.235 142.585 179.295 130.497 177.949C129.162 177.801 128.2 176.594 128.35 175.254C128.497 173.915 129.694 172.949 131.036 173.1C143.807 174.525 154.006 178.575 154.435 178.748C155.682 179.248 156.287 180.666 155.789 181.918C155.41 182.87 154.494 183.452 153.529 183.452V183.449Z" fill="#374259"/>
<path d="M145.669 202.681C145.114 202.681 144.557 202.492 144.099 202.105C144.018 202.036 135.828 195.14 124.79 190.021C123.571 189.455 123.038 188.005 123.602 186.782C124.166 185.559 125.611 185.024 126.83 185.59C138.495 190.999 146.891 198.08 147.242 198.379C148.267 199.25 148.396 200.788 147.528 201.816C147.048 202.385 146.362 202.681 145.669 202.681Z" fill="#374259"/>
<path d="M97.0374 195.508C92.9662 195.508 90.249 192.521 88.5472 189.53C86.8454 192.521 84.1313 195.508 80.0601 195.508C73.6039 195.508 71.0089 187.854 70.4917 183.329C70.3382 181.99 71.2972 180.782 72.6292 180.628C73.9643 180.474 75.1678 181.436 75.3214 182.773C75.3308 182.848 76.412 190.628 80.0601 190.628C83.47 190.628 85.761 184.188 86.1872 182.465C86.4568 181.377 87.4315 180.613 88.5472 180.613C89.6629 180.613 90.6376 181.377 90.9072 182.465C91.4399 184.581 93.7059 190.628 97.0374 190.628C100.682 190.628 101.767 182.848 101.776 182.77C101.933 181.433 103.133 180.471 104.475 180.631C105.807 180.789 106.762 181.993 106.609 183.329C106.092 187.851 103.494 195.508 97.0406 195.508H97.0374Z" fill="#374259"/>
<path d="M260.959 184.238C254.751 177.55 244.308 177.408 237.921 183.817C231.671 177.547 221.539 177.547 215.29 183.817C209.04 190.087 209.04 200.253 215.29 206.523L232.847 224.139C235.649 226.95 240.193 226.95 242.998 224.139L260.282 206.797C266.419 200.64 266.873 190.609 260.959 184.238Z" fill="#FD7A6E"/>
<path d="M223.043 187.75C223.043 184.763 223.686 181.895 224.858 179.219C221.363 179.603 217.969 181.131 215.292 183.817C209.043 190.087 209.043 200.253 215.292 206.523L232.85 224.139C235.651 226.95 240.196 226.95 243.001 224.139L253.011 214.095C236.125 212.482 223.046 201.307 223.046 187.75H223.043Z" fill="#F85647"/>
</g>
<defs>
<clipPath id="clip0_88762_2086">
<rect width="303" height="242" fill="white"/>
</clipPath>
</defs>
</svg>
