<svg width="189" height="26" viewBox="0 0 189 26" fill="none" xmlns="http://www.w3.org/2000/svg">
<path d="M24.1517 8.30916C23.2061 8.41916 20.6439 8.47023 19.0037 8.47416C19.0037 5.99124 19.0037 3.47295 19.0312 2.70293V2.58507C19.0626 1.96434 19.0861 1.33968 19.1136 0.990027C19.1528 0.675733 19.0391 0.526443 18.7958 0.353581C18.4544 0.165005 17.5873 0 17.14 0C16.9791 0 16.7476 0.0196434 16.626 0.176791C16.575 0.243578 16.52 0.361438 16.5632 0.5343C16.673 1.10396 16.6966 2.29042 16.7241 3.43759C16.7515 4.62406 16.7515 14.2768 16.7241 14.9211C16.7241 15.2158 16.9359 15.3651 17.3597 15.3651C17.6344 15.3651 18.5564 15.3376 18.9017 14.9604C18.9959 14.8583 19.043 14.7325 19.0351 14.6029C19.0077 14.265 19.0077 12.5011 19.0077 10.4267C20.7341 10.4267 23.2335 10.4817 24.1791 10.5092C24.3596 10.5092 24.9011 10.5092 24.9482 10.0299C24.9796 9.72348 24.9207 9.06739 24.8344 8.75703C24.7559 8.44273 24.497 8.26594 24.1556 8.30916H24.1517Z" fill="#374259"/>
<path d="M13.0553 15.8758C9.48864 15.8758 6.99707 17.9541 6.99707 20.9241C6.99707 23.8942 9.48864 25.9725 13.0553 25.9725C16.622 25.9725 19.0861 23.9414 19.0861 20.9241C19.0861 17.9069 16.6612 15.8758 13.0553 15.8758ZM13.0553 23.9649C10.7638 23.9649 9.22575 22.7549 9.22575 20.9516C9.22575 19.1484 10.7638 17.8833 13.0553 17.8833C15.3468 17.8833 16.8574 19.117 16.8574 20.9516C16.8574 22.7863 15.3311 23.9649 13.0553 23.9649Z" fill="#374259"/>
<path d="M12.3884 5.91266C12.4983 5.61801 12.4276 5.28014 12.1922 4.96192C11.8352 4.47869 11.176 4.15654 10.6306 4.1919C9.50053 4.27047 3.14409 4.30583 1.76687 4.1919C1.41373 4.15261 1.20577 4.31762 1.16653 4.6712C1.13907 5.02085 1.194 5.57086 1.28817 5.85373C1.40196 6.15624 1.61776 6.30946 1.94343 6.30946C3.13232 6.25838 7.58575 6.20338 9.77519 6.22303C8.3705 9.40918 4.79991 12.6071 0.377865 14.6265C0.154213 14.7286 0.0639671 14.8818 0.0286536 14.9918C-0.0302023 15.1726 0.00118751 15.3886 0.126747 15.6204C0.358247 16.0015 0.817323 16.304 1.30779 16.304C1.44904 16.304 1.59422 16.2804 1.73548 16.2215C5.73768 14.7561 10.8189 10.4935 12.3923 5.90873L12.3884 5.91266Z" fill="#374259"/>
<path d="M51.2647 10.2303C50.4015 10.3285 48.1492 10.3913 46.3836 10.3953C46.3639 9.52702 46.3639 8.59986 46.3836 7.69233C48.0825 7.69233 50.4328 7.74733 51.2843 7.77483C51.4648 7.77483 52.0063 7.77483 52.0533 7.29553C52.0847 6.99303 52.0259 6.33694 51.9396 6.02264C51.8611 5.70835 51.6021 5.53549 51.2607 5.57477C50.3975 5.67299 48.1492 5.73192 46.3836 5.73585C46.3836 4.36474 46.3836 3.19792 46.411 2.70684V2.58898C46.4424 1.96825 46.466 1.34359 46.4934 0.993933C46.5327 0.679639 46.4189 0.530349 46.1756 0.357487C45.8342 0.168911 44.9671 0.00390625 44.5198 0.00390625C44.3589 0.00390625 44.1274 0.0235497 44.0058 0.180697C43.9548 0.247484 43.8998 0.365345 43.943 0.538207C44.0529 1.10787 44.0764 2.29433 44.1039 3.43364C44.1039 3.60258 44.1039 3.94437 44.1117 4.41188C44.1196 5.37048 44.1313 6.84374 44.1313 8.37985C40.5058 10.0338 34.5574 11.9589 31.132 12.23C30.9869 12.2457 30.9515 12.2182 30.9515 12.2182C30.9515 12.2182 30.9398 12.1985 30.9398 12.1317C30.8613 11.3578 30.775 5.5512 30.8299 4.72225C30.8299 4.42367 30.7514 4.27438 30.516 4.1133C30.2021 3.92473 29.3938 3.7833 28.8798 3.7833C28.7346 3.7833 28.5267 3.79901 28.3972 3.9483C28.3148 4.03866 28.2834 4.16045 28.303 4.30974C28.4874 5.73978 28.5934 10.0378 28.6522 12.3517V12.5443C28.6679 12.9921 28.8523 13.385 29.1859 13.6796C29.7195 14.1511 30.5906 14.3475 31.6382 14.2414C34.9577 13.8839 40.3724 12.0492 44.1274 10.4503C44.1274 12.0453 44.1117 13.4871 44.1039 14.2454C44.1039 14.5243 44.1 14.7129 44.1 14.7836C44.1 15.0782 44.3118 15.2275 44.7356 15.2275C45.0103 15.2275 45.9323 15.2 46.2776 14.8229C46.3718 14.7207 46.4189 14.595 46.4071 14.4575C46.3836 14.2611 46.3796 13.4282 46.3796 12.3478C48.0786 12.3478 50.425 12.4028 51.2764 12.4303C51.4569 12.4303 51.9984 12.4303 52.0455 11.951C52.0769 11.6485 52.018 10.9924 51.9317 10.6742C51.8532 10.3599 51.5943 10.187 51.2529 10.2263L51.2647 10.2303Z" fill="#374259"/>
<path d="M40.3605 15.7383C36.7624 15.7383 34.2473 17.848 34.2473 20.8691C34.2473 23.8903 36.7585 25.9725 40.3605 25.9725C43.9625 25.9725 46.4736 23.9217 46.4736 20.8691C46.4736 17.8166 44.0174 15.7383 40.3605 15.7383ZM40.3605 23.9649C38.0376 23.9649 36.476 22.7195 36.476 20.8691C36.476 19.0187 38.0376 17.7458 40.3605 17.7458C42.6833 17.7458 44.245 18.9991 44.245 20.8691C44.245 22.7392 42.6833 23.9649 40.3605 23.9649Z" fill="#374259"/>
<path d="M66.5161 16.0958C62.714 16.0958 60.1597 18.0798 60.1597 21.0341C60.1597 23.9885 62.714 26 66.5161 26C70.3182 26 72.8725 24.0042 72.8725 21.0341C72.8725 18.0641 70.3182 16.0958 66.5161 16.0958ZM66.5161 24.0474C64.0245 24.0474 62.4119 22.8649 62.4119 21.0341C62.4119 19.2034 64.0206 18.0483 66.5161 18.0483C69.0116 18.0483 70.6203 19.2191 70.6203 21.0341C70.6203 22.8492 69.0116 24.0474 66.5161 24.0474Z" fill="#374259"/>
<path d="M59.2103 3.8501C59.3162 4.17225 59.5516 4.34119 59.893 4.34119C60.8975 4.31761 69.1177 4.26261 71.0168 4.28226C70.8951 5.85373 70.5224 8.12843 70.0515 10.1478C69.9927 10.3521 69.9731 10.7174 70.5302 10.8824C70.6793 10.9374 70.8716 10.9689 71.0717 10.9689C71.2914 10.9689 71.5229 10.9296 71.723 10.8274C71.9506 10.7135 72.1076 10.5367 72.1782 10.3167C72.7471 8.4938 73.1788 5.75158 73.3357 3.97189C73.3632 3.66938 73.1984 3.30402 72.8766 2.96615C72.5627 2.63221 72.0448 2.28256 71.5465 2.30613C70.2948 2.33363 61.8078 2.36113 59.583 2.25113C59.2338 2.25113 59.0298 2.44363 59.0298 2.77757C59.0298 3.29223 59.1632 3.73224 59.2024 3.85403L59.2103 3.8501Z" fill="#374259"/>
<path d="M78.766 11.79C78.146 11.845 76.7845 11.9 75.3798 11.9275C74.7089 11.955 70.4359 11.955 66.2454 11.955C66.2454 10.4974 66.2454 8.44272 66.3003 7.59806C66.3003 7.36233 66.3003 7.15804 65.9668 6.95375C65.6411 6.80446 64.9035 6.63553 64.4326 6.63553C64.2247 6.63553 64.0756 6.69053 63.9814 6.7966C63.8951 6.89482 63.8637 7.02447 63.8833 7.18162C63.9578 7.8377 63.9892 10.3717 63.9932 11.955C61.7606 11.955 59.7516 11.9392 58.5706 11.9314C58.0723 11.9314 57.7073 11.9314 57.5661 11.9275C56.1457 11.9 54.7724 11.845 54.1603 11.79C53.6541 11.735 53.5521 12.0807 53.5325 12.2339C53.4736 12.6857 53.5639 13.3221 53.6502 13.55C53.7797 13.9822 54.1132 13.99 54.329 13.99H54.3408C55.0392 13.9625 56.2987 13.935 56.9344 13.935C57.6053 13.935 59.0414 13.935 60.8502 13.935C66.2532 13.9272 75.2974 13.9193 76.5138 13.935C76.863 13.935 77.2828 13.9429 77.6948 13.9507C78.0911 13.9586 78.4796 13.9625 78.7895 13.9625C79.0485 13.9625 79.484 13.9625 79.5311 13.4832C79.5625 13.1846 79.5037 12.5521 79.4173 12.2378C79.3349 11.9157 79.0995 11.7507 78.7699 11.79H78.766Z" fill="#374259"/>
<path d="M106.04 10.2303C105.177 10.3285 102.924 10.3913 101.159 10.3953C101.139 9.52702 101.139 8.59986 101.159 7.69233C102.858 7.69233 105.208 7.74733 106.059 7.77483C106.24 7.77483 106.781 7.77483 106.828 7.29553C106.86 6.99303 106.801 6.33694 106.715 6.02264C106.636 5.70835 106.381 5.53549 106.036 5.57477C105.173 5.67299 102.924 5.73192 101.163 5.73585C101.163 4.36474 101.163 3.19792 101.19 2.70684V2.58898C101.221 1.96825 101.245 1.34359 101.272 0.993933C101.312 0.679639 101.198 0.530349 100.951 0.357487C100.609 0.168911 99.7422 0.00390625 99.2949 0.00390625C99.1341 0.00390625 98.9026 0.0235497 98.7809 0.180697C98.7299 0.247484 98.675 0.365345 98.7181 0.538207C98.8241 1.10394 98.8515 2.2904 98.879 3.43364C98.879 3.60258 98.879 3.94437 98.8869 4.41188C98.8947 5.37048 98.9065 6.84374 98.9065 8.37985C95.281 10.0338 89.3326 11.9589 85.9072 12.23C85.762 12.2457 85.7267 12.2182 85.7267 12.2182C85.7267 12.2182 85.7149 12.1985 85.7149 12.1317C85.6364 11.3578 85.5501 5.5512 85.605 4.72225C85.605 4.42367 85.5266 4.27438 85.2912 4.1133C84.9773 3.92473 84.169 3.7833 83.655 3.7833C83.5098 3.7833 83.3018 3.79901 83.1723 3.9483C83.0899 4.03866 83.0586 4.16045 83.0782 4.30974C83.2626 5.73978 83.3724 10.0378 83.4274 12.3517V12.5443C83.4431 12.9921 83.6275 13.385 83.961 13.6796C84.4946 14.1511 85.3657 14.3475 86.4133 14.2414C89.7367 13.8839 95.1476 12.0492 98.9026 10.4503C98.9026 12.0453 98.8869 13.4871 98.879 14.2454C98.879 14.5243 98.8751 14.7129 98.8751 14.7836C98.8751 15.0782 99.087 15.2275 99.5107 15.2275C99.7854 15.2275 100.707 15.2 101.053 14.8229C101.151 14.7207 101.194 14.595 101.182 14.4575C101.159 14.2611 101.155 13.4282 101.155 12.3478C102.854 12.3478 105.2 12.4028 106.052 12.4303C106.232 12.4303 106.774 12.4303 106.821 11.951C106.852 11.6485 106.793 10.9924 106.707 10.6742C106.628 10.3599 106.369 10.187 106.028 10.2263L106.04 10.2303Z" fill="#374259"/>
<path d="M95.1356 15.7383C91.5376 15.7383 89.0225 17.848 89.0225 20.8691C89.0225 23.8903 91.5336 25.9725 95.1356 25.9725C98.7376 25.9725 101.249 23.9217 101.249 20.8691C101.249 17.8166 98.7925 15.7383 95.1356 15.7383ZM95.1356 23.9649C92.8128 23.9649 91.2511 22.7195 91.2511 20.8691C91.2511 19.0187 92.8128 17.7458 95.1356 17.7458C97.4585 17.7458 99.0201 18.9991 99.0201 20.8691C99.0201 22.7392 97.4585 23.9649 95.1356 23.9649Z" fill="#374259"/>
<path d="M114.668 4.34119C115.673 4.31761 123.889 4.26261 125.792 4.28226C125.67 5.85373 125.298 8.12843 124.827 10.1478C124.764 10.3521 124.748 10.7174 125.305 10.8824C125.454 10.9374 125.647 10.9689 125.847 10.9689C126.067 10.9689 126.298 10.9296 126.498 10.8274C126.726 10.7135 126.883 10.5367 126.953 10.3167C127.522 8.4938 127.954 5.75158 128.111 3.97189C128.138 3.66938 127.974 3.30402 127.652 2.96615C127.338 2.63221 126.824 2.29434 126.322 2.30613C125.07 2.33363 116.583 2.36113 114.358 2.25113C114.009 2.25113 113.805 2.44363 113.805 2.77757C113.805 3.29223 113.938 3.73224 113.978 3.85403C114.084 4.17618 114.319 4.34512 114.66 4.34512L114.668 4.34119Z" fill="#374259"/>
<path d="M133.541 11.79C132.921 11.845 131.56 11.9 130.155 11.9275C129.484 11.955 125.211 11.955 121.021 11.955C121.021 10.4974 121.021 8.44272 121.075 7.59806C121.075 7.36233 121.075 7.15804 120.742 6.95375C120.416 6.80446 119.679 6.63553 119.208 6.63553C119 6.63553 118.851 6.69053 118.757 6.7966C118.67 6.89482 118.639 7.02447 118.658 7.18162C118.733 7.8377 118.764 10.3717 118.768 11.955C116.536 11.955 114.527 11.9392 113.346 11.9314C112.847 11.9314 112.49 11.9392 112.341 11.9275C110.921 11.9 109.548 11.845 108.935 11.79C108.425 11.731 108.327 12.0807 108.308 12.2339C108.249 12.6857 108.339 13.3221 108.425 13.55C108.555 13.9822 108.888 13.99 109.1 13.99H109.112C109.81 13.9625 111.07 13.935 111.706 13.935C112.377 13.935 113.813 13.935 115.621 13.935C121.024 13.9272 130.069 13.9193 131.285 13.935C131.634 13.935 132.054 13.9429 132.466 13.9507C132.862 13.9586 133.251 13.9625 133.561 13.9625C133.82 13.9625 134.255 13.9625 134.302 13.4832C134.334 13.1846 134.275 12.5521 134.189 12.2378C134.106 11.9157 133.871 11.7507 133.541 11.79Z" fill="#374259"/>
<path d="M121.291 16.0958C117.489 16.0958 114.935 18.0798 114.935 21.0341C114.935 23.9885 117.489 26 121.291 26C125.093 26 127.648 24.0042 127.648 21.0341C127.648 18.0641 125.093 16.0958 121.291 16.0958ZM121.291 24.0474C118.8 24.0474 117.187 22.8649 117.187 21.0341C117.187 19.2034 118.796 18.0483 121.291 18.0483C123.787 18.0483 125.395 19.2191 125.395 21.0341C125.395 22.8492 123.783 24.0474 121.291 24.0474Z" fill="#374259"/>
<path d="M160.815 10.2303C159.952 10.3285 157.7 10.3913 155.934 10.3953C155.914 9.52702 155.914 8.59986 155.934 7.69233C157.633 7.69233 159.983 7.74733 160.835 7.77483C161.015 7.77483 161.557 7.77483 161.604 7.29553C161.635 6.99303 161.576 6.33694 161.49 6.02264C161.412 5.70835 161.157 5.53549 160.811 5.57477C159.948 5.67299 157.7 5.73192 155.938 5.73585C155.938 4.36474 155.938 3.19792 155.965 2.70684V2.58898C155.997 1.96825 156.02 1.34359 156.048 0.993933C156.087 0.679639 155.973 0.530349 155.726 0.357487C155.385 0.168911 154.518 0.00390625 154.07 0.00390625C153.909 0.00390625 153.678 0.0235497 153.556 0.180697C153.505 0.247484 153.45 0.365345 153.494 0.538207C153.599 1.10394 153.627 2.2904 153.654 3.43364C153.654 3.60258 153.654 3.94437 153.662 4.41188C153.67 5.37048 153.682 6.84374 153.682 8.37985C150.056 10.0338 144.108 11.9589 140.683 12.23C140.533 12.2457 140.502 12.2182 140.502 12.2182C140.502 12.2182 140.49 12.1985 140.49 12.1317C140.412 11.3578 140.326 5.5512 140.38 4.72225C140.38 4.42367 140.302 4.27438 140.067 4.1133C139.753 3.92473 138.944 3.7833 138.43 3.7833C138.285 3.7833 138.077 3.79901 137.948 3.9483C137.865 4.03866 137.834 4.16045 137.854 4.30974C138.038 5.73978 138.148 10.0378 138.203 12.3517V12.5443C138.218 12.9921 138.403 13.385 138.736 13.6796C139.27 14.1511 140.141 14.3475 141.189 14.2414C144.508 13.8839 149.923 12.0492 153.678 10.4503C153.678 12.0453 153.662 13.4871 153.654 14.2454C153.654 14.5243 153.65 14.7129 153.65 14.7836C153.65 15.0782 153.862 15.2275 154.286 15.2275C154.561 15.2275 155.483 15.2 155.828 14.8229C155.926 14.7207 155.969 14.595 155.958 14.4575C155.934 14.2611 155.93 13.4282 155.93 12.3478C157.629 12.3478 159.976 12.4028 160.827 12.4303C161.007 12.4303 161.549 12.4303 161.596 11.951C161.627 11.6485 161.569 10.9924 161.482 10.6742C161.404 10.3599 161.145 10.187 160.803 10.2263L160.815 10.2303Z" fill="#374259"/>
<path d="M149.911 15.7383C146.313 15.7383 143.798 17.848 143.798 20.8691C143.798 23.8903 146.309 25.9725 149.911 25.9725C153.513 25.9725 156.024 23.9217 156.024 20.8691C156.024 17.8166 153.568 15.7383 149.911 15.7383ZM149.911 23.9649C147.588 23.9649 146.027 22.7195 146.027 20.8691C146.027 19.0187 147.588 17.7458 149.911 17.7458C152.234 17.7458 153.796 18.9991 153.796 20.8691C153.796 22.7392 152.234 23.9649 149.911 23.9649Z" fill="#374259"/>
<path d="M188.881 10.6742C188.803 10.3599 188.544 10.1871 188.203 10.2264C187.339 10.3246 185.087 10.3874 183.322 10.3914C183.302 9.52312 183.302 8.59595 183.322 7.68843C185.021 7.68843 187.371 7.74343 188.222 7.77093C188.403 7.77093 188.944 7.77093 188.991 7.29163C189.023 6.98912 188.964 6.33303 188.878 6.01874C188.799 5.70444 188.544 5.53158 188.199 5.57087C187.336 5.66908 185.087 5.72801 183.325 5.73194C183.325 4.36083 183.325 3.19402 183.353 2.70293V2.58507C183.384 1.96434 183.408 1.33968 183.435 0.990027C183.475 0.675733 183.361 0.526443 183.114 0.353581C182.772 0.165005 181.905 0 181.458 0C181.297 0 181.065 0.0196434 180.944 0.176791C180.893 0.243578 180.838 0.361438 180.881 0.5343C180.987 1.10003 181.014 2.28649 181.042 3.42974C181.042 3.59867 181.042 3.94047 181.05 4.40798C181.058 5.36658 181.069 6.83983 181.069 8.37594C177.444 10.0299 171.495 11.955 168.07 12.2261C167.921 12.2418 167.89 12.2143 167.89 12.2143C167.89 12.2143 167.878 12.1946 167.878 12.1278C167.799 11.3539 167.713 5.5473 167.768 4.71834C167.768 4.41976 167.689 4.27047 167.454 4.1094C167.14 3.92082 166.332 3.77939 165.818 3.77939C165.673 3.77939 165.465 3.7951 165.335 3.94439C165.253 4.03475 165.221 4.15654 165.241 4.30583C165.425 5.73587 165.535 10.0338 165.59 12.3478V12.5403C165.606 12.9882 165.79 13.3811 166.124 13.6757C166.657 14.1472 167.529 14.3436 168.576 14.2375C171.896 13.88 177.31 12.0453 181.065 10.4464C181.065 12.0414 181.05 13.4832 181.042 14.2415C181.042 14.5204 181.038 14.709 181.038 14.7797C181.038 15.0743 181.25 15.2236 181.674 15.2236C181.948 15.2236 182.87 15.1961 183.216 14.819C183.314 14.7168 183.357 14.5911 183.345 14.4536C183.322 14.2572 183.318 13.4243 183.318 12.3439C185.017 12.3439 187.363 12.3989 188.214 12.4264C188.395 12.4264 188.936 12.4264 188.983 11.9471C189.015 11.6446 188.956 10.9885 188.87 10.6703L188.881 10.6742Z" fill="#374259"/>
<path d="M177.299 15.7383C173.701 15.7383 171.186 17.848 171.186 20.8691C171.186 23.8903 173.697 25.9725 177.299 25.9725C180.901 25.9725 183.412 23.9217 183.412 20.8691C183.412 17.8166 180.956 15.7383 177.299 15.7383ZM177.299 23.9649C174.976 23.9649 173.414 22.7195 173.414 20.8691C173.414 19.0187 174.976 17.7458 177.299 17.7458C179.622 17.7458 181.183 18.9991 181.183 20.8691C181.183 22.7392 179.622 23.9649 177.299 23.9649Z" fill="#374259"/>
</svg>
