<?xml version="1.0" encoding="utf-8"?>
<!-- Generator: Adobe Illustrator 27.8.1, SVG Export Plug-In . SVG Version: 6.00 Build 0)  -->
<svg version="1.1" id="Layer_1" xmlns="http://www.w3.org/2000/svg" xmlns:xlink="http://www.w3.org/1999/xlink" x="0px" y="0px"
	 viewBox="0 0 2622.1 426.7" style="enable-background:new 0 0 2622.1 426.7;" xml:space="preserve">
<style type="text/css">
	.st0{fill:#374259;}
</style>
<path class="st0" d="M261.7,15.4C151.1,15.4,61.5,105,61.5,215.6s89.6,200.3,200.2,200.3S462,326.3,462,215.6
	C462.1,105,372.3,15.4,261.7,15.4z M278,130.1c0.2-1,0.3-2,0.5-2.9c0.1-0.3,0.1-0.6,0.2-0.9c0.1-0.7,0.3-1.3,0.4-2
	c0.1-0.4,0.2-0.7,0.3-1c0.1-0.6,0.3-1.2,0.4-1.8c0.1-0.4,0.2-0.7,0.3-1c0.2-0.6,0.3-1.2,0.5-1.7c0.1-0.3,0.2-0.7,0.3-1
	c0.2-0.6,0.4-1.1,0.6-1.7c0.1-0.3,0.2-0.6,0.3-0.9c0.2-0.6,0.4-1.2,0.6-1.7c0.1-0.3,0.2-0.6,0.3-0.8c0.2-0.6,0.5-1.2,0.7-1.8
	c0.1-0.2,0.2-0.5,0.3-0.7c0.3-0.6,0.6-1.3,0.8-1.9c0.1-0.2,0.2-0.4,0.2-0.5c0.3-0.7,0.7-1.4,1-2.1c0-0.1,0.1-0.2,0.1-0.3
	c8.3-16,21.4-25.7,34.2-23.3c18.5,3.4,29.7,30.2,24.9,60c-1.8,11-5.3,20.8-10.2,28.7l0,0l0,0c-1,1.7-2.1,3.3-3.3,4.7
	c0,0,0,0.1-0.1,0.1c-0.5,0.7-1.1,1.4-1.6,2c-0.1,0.1-0.1,0.1-0.2,0.2c-1.7,2.1-3.6,3.9-5.4,5.4c-0.1,0.1-0.2,0.2-0.3,0.2
	c-0.5,0.4-1.1,0.9-1.6,1.3c-0.1,0.1-0.2,0.2-0.4,0.3c-0.6,0.4-1.2,0.8-1.8,1.2c0,0-0.1,0-0.1,0.1c-0.7,0.4-1.3,0.8-2,1.2
	c-0.1,0-0.2,0.1-0.2,0.1c-0.6,0.3-1.1,0.6-1.7,0.8c-0.2,0.1-0.4,0.1-0.5,0.2c-0.5,0.2-1,0.4-1.5,0.6c-0.2,0.1-0.4,0.1-0.5,0.2
	c-0.6,0.2-1.2,0.4-1.8,0.5c-0.1,0-0.1,0-0.2,0c-0.7,0.2-1.4,0.3-2,0.4c-0.2,0-0.4,0-0.5,0.1c-0.5,0.1-1,0.1-1.5,0.1
	c-0.2,0-0.4,0-0.7,0c-0.5,0-1,0-1.4,0c-0.2,0-0.4,0-0.6,0c-0.7-0.1-1.4-0.1-2-0.3c-2.3-0.4-4.6-1.2-6.6-2.3c-1-0.6-2.1-1.2-3-1.9
	c-2.4-1.8-4.6-4.1-6.5-6.7c-0.8-1.1-1.5-2.2-2.2-3.4c-4.8-8.3-7.7-19.6-7.7-32C276.9,139.3,277.2,134.8,278,130.1z M177.5,125.6
	c0-0.2,0-0.4,0-0.5c0-1.1,0.1-2.2,0.2-3.3c0-0.2,0-0.4,0-0.6c0.1-1.2,0.2-2.4,0.4-3.5c0-0.2,0.1-0.4,0.1-0.5
	c0.2-1.1,0.3-2.2,0.6-3.2c0-0.1,0-0.2,0.1-0.3c0.2-1.1,0.5-2.3,0.8-3.4c0-0.2,0.1-0.3,0.1-0.4c0.6-2.2,1.3-4.4,2.1-6.3
	c0-0.1,0.1-0.2,0.1-0.3c0.8-2.1,1.7-4,2.7-5.7c0-0.1,0.1-0.1,0.1-0.2c1-1.8,2.2-3.6,3.4-5c0,0,0-0.1,0.1-0.1c1.2-1.6,2.6-3,4-4.3
	l0,0l0,0c3.4-3,7.1-4.9,11.4-5.6c18.5-3.4,37.4,18.1,42.1,47.9c2.7,17.1,0.2,33.2-5.9,44.5l0,0l0,0l0,0l0,0
	c-1.2,2.1-2.4,4.1-3.8,5.7l0,0c-0.3,0.4-0.6,0.7-0.9,1.1c-0.1,0.1-0.2,0.2-0.2,0.3c-0.3,0.3-0.6,0.6-0.9,0.9
	c-0.1,0.1-0.2,0.2-0.3,0.3c-0.3,0.3-0.6,0.6-0.9,0.8c-0.1,0.1-0.3,0.2-0.4,0.3c-0.3,0.3-0.6,0.5-0.9,0.8c-0.1,0.1-0.3,0.2-0.4,0.3
	c-0.5,0.4-1,0.8-1.6,1.2c-0.2,0.1-0.4,0.3-0.6,0.4c-0.2,0.1-0.5,0.3-0.7,0.4c-0.3,0.2-0.5,0.3-0.8,0.4c-0.2,0.1-0.4,0.2-0.7,0.4
	c-0.3,0.1-0.6,0.3-0.8,0.4c-0.2,0.1-0.4,0.2-0.7,0.3c-0.3,0.1-0.6,0.2-0.9,0.4c-0.2,0.1-0.4,0.2-0.6,0.2c-0.3,0.1-0.7,0.2-1,0.3
	c-0.2,0.1-0.4,0.1-0.5,0.2c-0.5,0.1-1.1,0.3-1.6,0.4l0,0c-15,2.7-30.3-11-38.1-32.2c-0.3-0.8-0.6-1.7-0.9-2.5
	c-0.8-2.5-1.6-5.1-2.2-7.8c-0.4-1.8-0.8-3.7-1.1-5.4c-0.2-1.3-0.4-2.6-0.5-3.9c0-0.3-0.1-0.6-0.1-0.9c-0.1-1.3-0.2-2.5-0.3-3.8
	c0-0.1,0-0.3,0-0.4c-0.1-1.2-0.1-2.3-0.1-3.5c0-0.3,0-0.5,0-0.8C177.5,128,177.5,126.8,177.5,125.6z M168.2,244.6
	c-0.5,0.7-1.1,1.4-1.6,2l-0.1,0.1c-0.5,0.6-1.1,1.2-1.7,1.8l-0.1,0.1c-0.6,0.6-1.2,1.1-1.8,1.6c-0.1,0.1-0.2,0.2-0.3,0.2
	c-0.6,0.5-1.2,0.9-1.8,1.3l-0.1,0.1c-0.6,0.4-1.3,0.8-2,1.1c-0.2,0.1-0.3,0.2-0.5,0.2c-0.7,0.3-1.4,0.7-2.1,0.9
	c-1.6,0.6-3.2,1-4.7,1.3c-1.6,0.3-3.3,0.4-4.8,0.3c-0.5,0-1.1-0.1-1.6-0.1c-1.1-0.1-2.2-0.3-3.3-0.5c-2.2-0.5-4.3-1.3-6.3-2.3
	c-2.6-1.3-5.1-2.9-7.5-4.8c-0.5-0.4-1-0.8-1.4-1.2c-2.4-2.1-4.6-4.6-6.5-7.2c-3.2-4.4-5.8-9.5-7.8-15.1c-0.4-1.1-0.7-2.2-1-3.3
	c-0.1-0.2-0.1-0.4-0.2-0.6c-0.3-1.1-0.5-2.1-0.7-3.2c0-0.2-0.1-0.4-0.1-0.6c-0.2-1.1-0.4-2.2-0.5-3.2c0-0.1,0-0.1,0-0.2
	c-0.1-1-0.2-2.1-0.3-3.1c0-0.2,0-0.3,0-0.5c-0.1-1-0.1-2.1-0.1-3.1c0-0.2,0-0.4,0-0.6c0-1,0-2.1,0.1-3.1c0-0.1,0-0.2,0-0.3
	c0.1-1,0.1-1.9,0.3-2.9c0-0.1,0-0.3,0-0.4c0.1-1,0.3-1.9,0.5-2.9c0-0.2,0.1-0.4,0.1-0.6c0.2-0.9,0.4-1.9,0.6-2.8
	c0-0.1,0.1-0.2,0.1-0.4c0.2-0.9,0.5-1.8,0.8-2.6c0-0.1,0.1-0.2,0.1-0.3c0.3-0.9,0.7-1.7,1-2.6c0.1-0.2,0.1-0.3,0.2-0.5
	c0.4-0.8,0.8-1.6,1.2-2.4c0.1-0.1,0.1-0.2,0.2-0.3c0.4-0.8,0.9-1.5,1.3-2.2l0.1-0.1c0.5-0.7,1-1.4,1.5-2.1c0.1-0.1,0.2-0.2,0.3-0.4
	c0.5-0.7,1.1-1.3,1.7-1.9c0.1-0.1,0.2-0.2,0.3-0.3c0.6-0.6,1.2-1.2,1.9-1.8l0,0c2.2-1.8,4.6-3.2,7.1-4.2
	c16.7-6.3,36.4,6.9,44.1,29.8c4.7,13.9,3.8,28.3-1.5,38.8l0,0C170.1,241.6,169.2,243.1,168.2,244.6L168.2,244.6z M350.2,331.2
	c-15.2,29.3-51.5,16.7-73,8.4c0,0,0,0-0.1,0c-0.4-0.2-0.8-0.3-1.2-0.4c-0.1,0-0.1,0-0.2-0.1c-0.3-0.1-0.7-0.3-1-0.4
	c-0.9-0.3-1.7-0.7-2.5-1c0,0,0,0-0.1,0c-0.3-0.1-0.7-0.3-1-0.4H271c-0.3-0.1-0.6-0.2-1-0.4h-0.1c-0.3-0.1-0.6-0.2-0.9-0.3H269
	c-0.3-0.1-0.6-0.2-0.9-0.3c0,0,0,0-0.1,0c-2.2-0.8-4-1.4-5.2-1.6l0,0l0,0c-3.6,0.6-10.7,3.8-19.5,7c0,0,0,0-0.1,0
	c-0.5,0.2-0.9,0.3-1.4,0.5h-0.1c-0.5,0.2-0.9,0.3-1.4,0.5c-0.1,0-0.1,0-0.2,0.1c-0.4,0.2-0.9,0.3-1.3,0.5c-0.1,0-0.2,0.1-0.3,0.1
	c-0.4,0.1-0.9,0.3-1.3,0.4c-0.1,0-0.2,0.1-0.3,0.1c-0.4,0.1-0.9,0.3-1.3,0.4c-0.1,0-0.2,0.1-0.3,0.1c-0.4,0.1-0.9,0.3-1.3,0.4
	c-0.1,0-0.2,0.1-0.4,0.1c-0.4,0.1-0.9,0.3-1.3,0.4c-0.1,0-0.2,0.1-0.4,0.1c-0.4,0.1-0.9,0.3-1.3,0.4c-0.1,0-0.2,0.1-0.4,0.1
	c-0.4,0.1-0.9,0.2-1.3,0.4c-0.1,0-0.2,0.1-0.4,0.1c-0.4,0.1-0.9,0.2-1.3,0.4c-0.1,0-0.2,0.1-0.3,0.1c-0.5,0.1-0.9,0.2-1.4,0.3
	c-0.1,0-0.2,0-0.3,0.1c-0.5,0.1-1,0.2-1.5,0.3c-0.1,0-0.1,0-0.2,0c-0.6,0.1-1.1,0.2-1.7,0.4l0,0c-2.3,0.5-4.6,0.9-6.9,1.1h-0.1
	c-0.5,0.1-1.1,0.1-1.6,0.2c-0.1,0-0.2,0-0.4,0c-0.5,0-0.9,0.1-1.4,0.1c-0.2,0-0.3,0-0.5,0c-0.4,0-0.8,0.1-1.2,0.1
	c-0.2,0-0.4,0-0.5,0c-0.4,0-0.8,0-1.2,0c-0.2,0-0.4,0-0.6,0c-0.4,0-0.7,0-1.1,0c-0.2,0-0.4,0-0.6,0c-0.3,0-0.7,0-1,0
	c-0.2,0-0.4,0-0.7,0s-0.7,0-1-0.1c-0.2,0-0.5,0-0.7-0.1c-0.3,0-0.7-0.1-1-0.1c-0.2,0-0.5-0.1-0.7-0.1c-0.3,0-0.6-0.1-0.9-0.1
	c-0.2,0-0.5-0.1-0.7-0.1c-0.3-0.1-0.6-0.1-0.9-0.2c-0.2,0-0.5-0.1-0.7-0.1c-0.3-0.1-0.6-0.1-0.9-0.2c-0.2-0.1-0.5-0.1-0.7-0.2
	c-0.3-0.1-0.6-0.2-0.9-0.2c-0.2-0.1-0.5-0.1-0.7-0.2c-0.3-0.1-0.6-0.2-0.9-0.3c-0.2-0.1-0.5-0.2-0.7-0.2c-0.3-0.1-0.6-0.2-0.8-0.3
	c-0.2-0.1-0.5-0.2-0.7-0.3c-0.3-0.1-0.5-0.2-0.8-0.4c-0.2-0.1-0.4-0.2-0.7-0.3c-0.3-0.1-0.5-0.3-0.8-0.4c-0.2-0.1-0.4-0.2-0.7-0.3
	c-0.3-0.1-0.5-0.3-0.8-0.4c-0.2-0.1-0.4-0.3-0.6-0.4c-0.3-0.2-0.5-0.3-0.8-0.5c-0.2-0.1-0.4-0.3-0.6-0.4c-0.2-0.2-0.5-0.4-0.7-0.5
	c-0.2-0.2-0.4-0.3-0.6-0.5c-0.2-0.2-0.5-0.4-0.7-0.6c-0.2-0.2-0.4-0.3-0.6-0.5c-0.2-0.2-0.5-0.4-0.7-0.6c-0.2-0.2-0.4-0.4-0.6-0.5
	c-0.2-0.2-0.5-0.5-0.7-0.7c-0.2-0.2-0.4-0.4-0.5-0.6c-0.2-0.2-0.4-0.5-0.7-0.8c-0.2-0.2-0.3-0.4-0.5-0.6c-0.2-0.3-0.4-0.6-0.7-0.8
	c-0.2-0.2-0.3-0.4-0.5-0.6c-0.2-0.3-0.4-0.6-0.7-0.9c-0.1-0.2-0.3-0.4-0.4-0.6c-0.2-0.4-0.5-0.7-0.7-1.1c-0.1-0.2-0.2-0.4-0.3-0.6
	c-0.3-0.6-0.7-1.2-1-1.8l0,0c-0.4-0.7-0.7-1.5-1.1-2.2c-0.1-0.2-0.2-0.4-0.3-0.7c-0.2-0.5-0.5-1-0.7-1.6c-0.1-0.2-0.2-0.5-0.3-0.7
	c-0.2-0.6-0.5-1.2-0.7-1.8c0-0.1-0.1-0.2-0.1-0.3c-0.3-0.7-0.5-1.4-0.7-2.1c-0.1-0.2-0.1-0.4-0.2-0.6c-0.2-0.5-0.3-1-0.4-1.5
	c-0.1-0.2-0.1-0.4-0.2-0.7c-0.1-0.5-0.3-1.1-0.4-1.6c0-0.2-0.1-0.3-0.1-0.5c-0.1-0.7-0.3-1.3-0.4-2c0-0.2,0-0.3-0.1-0.4
	c-0.1-0.5-0.1-1-0.2-1.6c0-0.2,0-0.4-0.1-0.6c0-0.5-0.1-1-0.1-1.5c0-0.2,0-0.4,0-0.5c0-0.7,0-1.3,0-1.9c0-0.1,0-0.2,0-0.2
	c0-0.6,0-1.1,0-1.7c0-0.2,0-0.4,0-0.6c0-0.5,0.1-0.9,0.1-1.4c0-0.2,0-0.4,0.1-0.6c0.1-0.6,0.1-1.2,0.2-1.8c0,0,0,0,0-0.1
	c0.1-0.6,0.2-1.2,0.3-1.9c0-0.2,0.1-0.3,0.1-0.5c0.1-0.5,0.2-0.9,0.3-1.4c0-0.2,0.1-0.4,0.1-0.5c0.1-0.5,0.3-1,0.4-1.6
	c0-0.1,0-0.2,0.1-0.3c0.2-0.6,0.4-1.2,0.6-1.8c0-0.1,0.1-0.3,0.1-0.4c0.2-0.5,0.3-0.9,0.5-1.4c0.1-0.2,0.1-0.3,0.2-0.5
	c0.2-0.5,0.4-0.9,0.6-1.4c0-0.1,0.1-0.2,0.1-0.3c0.3-0.6,0.5-1.2,0.8-1.8c0-0.1,0.1-0.1,0.1-0.2c0.2-0.5,0.5-1,0.7-1.5
	c0.1-0.1,0.1-0.3,0.2-0.4c0.2-0.5,0.5-0.9,0.7-1.4c0.1-0.1,0.1-0.2,0.2-0.3c0.6-1.1,1.3-2.2,2-3.4c0.1-0.1,0.1-0.2,0.2-0.3
	c0.3-0.5,0.6-0.9,0.9-1.3c0.1-0.1,0.1-0.2,0.2-0.3c0.7-1.1,1.5-2.2,2.3-3.3c0.1-0.1,0.1-0.1,0.2-0.2c0.3-0.5,0.7-0.9,1.1-1.4
	c0.1-0.1,0.1-0.2,0.2-0.3c0.8-1.1,1.7-2.1,2.6-3.2l0,0c0.4-0.5,0.9-1,1.3-1.5c0.1-0.1,0.1-0.1,0.2-0.2c0.4-0.5,0.9-1,1.3-1.5l0,0
	l0,0c7.9-8.9,16.9-16.8,23.7-23.9c10.4-10.9,24-19.4,34.5-24.9c10.2-5.3,22-5.3,32.2,0c10.5,5.5,24.1,14,34.5,24.9
	C333.2,264.8,370.7,291.9,350.2,331.2z M406.3,235.3L406.3,235.3L406.3,235.3c-1.8,3-3.8,5.6-5.9,8l0,0c-2.2,2.4-4.5,4.5-6.8,6.1
	c-0.1,0-0.1,0.1-0.2,0.1c-1.6,1.1-3.2,2.1-4.8,2.9c0,0-0.1,0-0.1,0.1c-0.8,0.4-1.6,0.7-2.4,1.1c-0.1,0-0.2,0.1-0.3,0.1
	c-0.8,0.3-1.6,0.6-2.5,0.8h-0.1c-0.8,0.2-1.6,0.4-2.4,0.6c-0.1,0-0.2,0-0.3,0.1c-0.8,0.1-1.6,0.2-2.4,0.3c-0.1,0-0.3,0-0.4,0
	c-0.8,0.1-1.6,0.1-2.4,0.1h-0.1c-0.8,0-1.6-0.1-2.3-0.2c-0.1,0-0.3,0-0.4-0.1c-0.8-0.1-1.5-0.3-2.3-0.5c-0.2,0-0.3-0.1-0.5-0.1
	c-0.8-0.2-1.6-0.5-2.4-0.8l0,0c-3.2-1.2-5.9-3-8.3-5.2c-0.4-0.4-0.8-0.8-1.2-1.2c-3.1-3.3-5.4-7.3-7.1-12c-0.2-0.6-0.4-1.2-0.6-1.8
	c-0.4-1.2-0.7-2.4-1-3.7c-0.1-0.6-0.3-1.3-0.4-1.9c-0.2-1.3-0.4-2.6-0.5-4c-0.2-2-0.3-4.1-0.2-6.1c0-1.3,0.1-2.7,0.3-4.1
	c0.1-0.8,0.2-1.5,0.3-2.3c0.3-2,0.7-3.9,1.1-5.8c0.1-0.4,0.2-0.8,0.3-1.2c0.3-1.2,0.7-2.5,1.1-3.7c0.3-1,0.7-1.9,1-2.8
	c0.1-0.2,0.2-0.5,0.3-0.7c0.4-0.9,0.7-1.7,1.1-2.6v-0.1c0.4-0.9,0.9-1.8,1.3-2.6c0.1-0.2,0.2-0.4,0.3-0.5c0.4-0.8,0.9-1.6,1.4-2.4
	l0,0c0.5-0.8,1-1.6,1.6-2.4c0.1-0.1,0.2-0.2,0.3-0.4c1.1-1.6,2.3-3,3.5-4.4c0.1-0.1,0.1-0.2,0.2-0.2c9.4-10.5,22-15,33.2-10.8
	c16.7,6.3,23.9,30,16.3,52.8C410,228.3,408.3,231.9,406.3,235.3z"/>
<g>
	<path class="st0" d="M863.5,260.2V72c0-8.9,0-23.9,0.4-34.1l0-0.2c0-5.4-1.1-9.1-6.5-11.4c-5.7-2.6-19.1-3.4-26.3-3
		c-2.3,0.2-5.5,0.8-7.5,3.4c-2,2.6-1.7,5.9-1.3,8.6c1,7.1,3.4,26.5,3.4,52.1v60.2H685.6V72c0-8.9,0-23.9,0.4-34.1l0-0.2
		c0-5.4-1.1-9.1-6.5-11.4c-5.7-2.6-19.1-3.4-26.3-3c-2.3,0.2-5.5,0.8-7.5,3.4c-2,2.6-1.7,5.9-1.3,8.6c1,7.1,3.4,26.5,3.4,52.1v172.8
		c0,22.8-0.4,33.5-1.3,52.1l0,0.2c0,2.2,1,6.2,7.9,8.3c3.2,1,7.4,1.5,11.9,1.5c4.8,0,20.5-0.7,20.5-9.8l0-0.2
		c-0.8-18.2-1.3-28.2-1.3-52.1v-77.8h140.2v77.8c0,22.9-0.4,33.6-1.3,52.1l0,0.2c0,6.2,7.2,9.8,19.8,9.8c4.8,0,20.5-0.7,20.5-9.8
		l0-0.2C863.9,294.1,863.5,284.1,863.5,260.2z"/>
	<path class="st0" d="M1080.1,287.6c-5.1,1.1-9.9,1.6-14.9,1.6c-2.1,0-2.7-0.4-2.7-0.4c0,0-0.1-0.2-0.1-0.7V182.2
		c0-57-35.1-77.4-67.9-77.4c-36.3,0-64,16.2-87.4,50.9c-1.1,1.7-2.5,5.2,0.2,9.9c3.9,6.8,15.2,13.5,22.4,13.2
		c3.5-0.1,6.2-1.8,7.5-4.5c8.6-17.2,26.6-35.7,51.3-35.7c24.8,0,37.9,15.2,37.9,43.9v5.8l-53.9,11.7c-46.2,10.2-71.7,34.2-71.7,67.4
		c0,34.7,26.9,58.9,65.4,58.9c24.2,0,46.3-12,62-23.7c4.7,12.3,17.5,19.4,29.3,19.4c8.1,0,19.8-1.3,28.7-5c6.8-2.7,8.1-11.7,6-19.3
		C1090.1,290.6,1085.4,286.6,1080.1,287.6z M1026.4,219.7v46.9c-19.3,14.6-36.4,25.6-60.2,25.6c-20.3,0-29.4-12.4-29.4-24.7
		c0-12.6,4.8-26.6,40.3-35.5L1026.4,219.7z"/>
	<path class="st0" d="M1211.4,104.8c-18.5,0-36.5,7.5-52.6,21.7c0-1,0.1-2.1,0.1-3.1c0-5.4-1.1-9.1-6.5-11.4c-6-2.7-17.9-3.4-24.6-3
		c-2.3,0.2-5.5,0.8-7.5,3.4c-2,2.6-1.7,5.9-1.3,8.6c1,7.1,3.4,26.5,3.4,52.1V346c0,22.8-0.4,33.6-1.3,52.1l0,0.2
		c0,2.2,1,6.1,7.4,8.3c2.9,1,6.8,1.5,11,1.5c9.2,0,19-2.6,19-9.8v-84.8c13.7,8.7,27.6,13,42.2,13c55.1,0,96.7-49.5,96.7-115.1
		c0-32.1-8.4-59.1-24.2-78.2C1257.6,114.6,1236.3,104.8,1211.4,104.8z M1200.7,293c-16.2,0-30-4.8-42.2-14.8V171.8
		c12.4-20.8,36.9-33.6,53-33.6c24.1,0,50,22.9,50,73.1C1261.3,257.1,1234.7,293,1200.7,293z"/>
	<path class="st0" d="M1428.3,104.8c-18.5,0-36.5,7.5-52.6,21.7c0-1,0.1-2.1,0.1-3.1c0-5.4-1.1-9.1-6.5-11.4c-6-2.7-17.9-3.4-24.6-3
		c-2.3,0.2-5.5,0.8-7.5,3.4c-2,2.6-1.7,5.9-1.3,8.6c1,7.1,3.4,26.5,3.4,52.1V346c0,22.9-0.4,33.6-1.3,52.1l0,0.2
		c0,2.2,1,6.1,7.3,8.3c2.9,1,6.8,1.5,11,1.5c9.2,0,19-2.6,19-9.8v-84.8c13.7,8.7,27.6,13,42.2,13c55.1,0,96.7-49.5,96.7-115.1
		c0-32.1-8.4-59.1-24.2-78.2C1474.5,114.6,1453.2,104.8,1428.3,104.8z M1417.6,293c-16.2,0-30-4.8-42.2-14.8V171.8
		c12.4-20.8,36.9-33.6,53-33.6c24.1,0,50,22.9,50,73.1C1478.3,257.1,1451.6,293,1417.6,293z"/>
	<path class="st0" d="M1706,109c-5.8,0.7-8,4-8.8,5.9c-2.2,5.2-4.5,10.6-6.9,16.2c-17,39.9-37.8,89.1-61,133.6L1567,116.6
		c-1.1-2.7-4.2-6.1-12.2-7.1c-7.3-0.9-19.7,0.5-24.2,6.6c-1.9,2.5-2.2,5.5-1,8.4c7.5,16.6,56.3,129,77.9,179.1
		c-20.5,33.7-38.8,56-55.8,68.2c-2.9,2-4.4,5.3-4,9.2c0.6,7.3,7.4,16.3,14.8,19.7c2.1,1,4.2,1.4,6.1,1.4c2.3,0,4.4-0.7,6.2-2
		c60-41,122.1-191.6,155.5-272.5c1.4-3.3,0.9-6.8-1.5-9.9C1724.6,112.2,1713.9,108,1706,109z"/>
	<path class="st0" d="M1951.3,23.4h-78l-0.4,0c-2.3,0.2-5.5,0.8-7.5,3.4c-2,2.6-1.7,5.9-1.3,8.6c1,7.1,3.4,26.5,3.4,52.1v172.8
		c0,22.9-0.4,33.6-1.3,52.1l0,0.2c0,2.2,1,6.2,7.9,8.3c3.2,1,7.4,1.5,11.9,1.5c4.8,0,20.5-0.7,20.5-9.8l0-0.2
		c-0.6-13.5-0.6-22.2-0.5-35.2c0-4.9,0.1-10.4,0.1-16.9L1905.2,72V57.2h46.1c66.7,0,74.4,29.7,74.4,52.1
		c0,46.6-54.4,56.4-100.1,56.4c-3.6,0-6.7,2.3-8.4,6.2c-1.5,3.3-1.8,7.1-1.8,9.7c0,8.6,3.5,17.9,11,17.9c41.2,0,75.6-8.2,99.3-23.7
		c24.3-15.8,37.2-38.9,37.2-66.6C2063,70.1,2043.6,23.4,1951.3,23.4z"/>
	<path class="st0" d="M2256.9,287.6c-5.1,1.1-9.9,1.6-14.9,1.6c-2.1,0-2.7-0.4-2.7-0.4c0,0-0.1-0.2-0.1-0.7V182.2
		c0-57-35.1-77.4-67.9-77.4c-36.3,0-64,16.2-87.4,50.9c-1.1,1.7-2.5,5.2,0.2,9.9c3.9,6.8,15.2,13.5,22.4,13.2
		c3.5-0.1,6.2-1.8,7.5-4.5c8.6-17.2,26.6-35.7,51.3-35.7c24.8,0,37.9,15.2,37.9,43.9v5.8l-53.9,11.7c-46.2,10.2-71.7,34.2-71.7,67.4
		c0,34.7,26.9,58.9,65.4,58.9c24.2,0,46.3-12,62-23.7c4.7,12.3,17.5,19.4,29.3,19.4c8.1,0,19.8-1.3,28.7-5c6.8-2.7,8.1-11.7,6-19.3
		C2266.8,290.6,2262.1,286.6,2256.9,287.6z M2203.2,219.7v46.9c-19.3,14.6-36.4,25.6-60.2,25.6c-20.3,0-29.4-12.4-29.4-24.7
		c0-12.6,4.8-26.6,40.3-35.5L2203.2,219.7z"/>
	<path class="st0" d="M2564.9,116.7c-4.9-5.4-16-8.9-23.4-7.3c-5.3,1.1-7,4.4-7.6,6.3l-46.8,154.2l-48.4-153.4
		c-2-6.1-10.7-8.1-18.2-7.9c-4.1,0.1-13.8,1-15.7,7.6l-48.4,153.8l-47.2-153.8c-0.6-1.9-2.5-5.3-8.4-6.6c-7.8-1.7-21,0.9-26.3,6.8
		c-2.4,2.7-3.1,5.8-2.1,8.9c7.2,22,56.2,175,59.6,186c3,9.7,13.5,10.9,22.3,10.9c9.2,0,19-1.3,22.6-10.6l43.4-135.5l42.5,135.2
		c3,9.7,13.5,10.9,22.3,10.9c9.2,0,19-1.3,22.6-10.6c2.9-7.9,25.9-79.8,42.7-132.2c8.2-25.6,14.7-45.9,16.9-52.7
		C2568.4,123.2,2567.6,119.7,2564.9,116.7z"/>
</g>
</svg>
