<?xml version="1.0" encoding="utf-8"?>
<!-- Generator: Adobe Illustrator 27.7.0, SVG Export Plug-In . SVG Version: 6.00 Build 0)  -->
<svg version="1.1" id="Layer_1" xmlns="http://www.w3.org/2000/svg" xmlns:xlink="http://www.w3.org/1999/xlink" x="0px" y="0px"
	 viewBox="0 0 2955.4 426.7" style="enable-background:new 0 0 2955.4 426.7;" xml:space="preserve">
<style type="text/css">
	.st0{fill:#374259;}
</style>
<g>
	<path class="st0" d="M913.1,297.3V116.8c0-8.6,0-22.9,0.4-32.7l0-0.2c0-5.2-1-8.7-6.2-10.9c-5.5-2.5-18.3-3.3-25.2-2.8
		c-2.2,0.2-5.3,0.8-7.2,3.3c-1.9,2.5-1.7,5.6-1.2,8.2c1,6.8,3.2,25.4,3.2,50v57.8H742.4v-72.6c0-8.6,0-22.9,0.4-32.7l0-0.2
		c0-5.2-1-8.7-6.2-10.9c-5.5-2.5-18.3-3.3-25.2-2.8c-2.2,0.2-5.3,0.8-7.2,3.3c-1.9,2.5-1.7,5.7-1.2,8.2c1,6.8,3.2,25.4,3.2,50v165.7
		c0,21.9-0.4,32.2-1.2,50l0,0.2c0,2.1,1,5.9,7.6,8c3,0.9,7.1,1.4,11.4,1.4c4.6,0,19.7-0.7,19.7-9.4l0-0.2c-0.8-17.4-1.2-27.1-1.2-50
		v-74.6h134.5v74.6c0,21.9-0.4,32.2-1.2,50l0,0.2c0,6,6.9,9.4,19,9.4c4.6,0,19.7-0.7,19.7-9.4l0-0.2
		C913.5,329.9,913.1,320.3,913.1,297.3z"/>
	<path class="st0" d="M1100.7,109.8c-5.9-16.4-9.8-27.2-10.7-29.5c-3.4-9-12.9-10.2-21.7-10.2c-8.5,0-18.5,1.2-21.4,10.4
		c-3.3,10.8-85.9,240.8-95.2,261.5c-1.2,2.8-0.8,5.9,1.1,8.3c3.4,4.3,11.1,6.4,17.9,6.4c1.7,0,3.3-0.1,4.9-0.4
		c5.4-0.9,9.1-3.4,10.4-7.1l31.9-89.7h98.4l31.9,90.1c0.9,2.4,3.2,5.5,9.6,6.6c8.7,1.4,21.8-1.3,26.4-7.2c2-2.5,2.4-5.5,1.2-8.4
		C1178.2,324.8,1123.9,174.2,1100.7,109.8z M1030,226.4l37.1-104.5l37.1,104.5H1030z"/>
	<path class="st0" d="M1306.8,70.1H1232l-0.4,0c-2.2,0.2-5.3,0.7-7.2,3.3c-1.9,2.5-1.7,5.7-1.2,8.2c1,6.8,3.2,25.4,3.2,50v165.7
		c0,21.9-0.4,32.2-1.2,50l0,0.2c0,2.1,1,5.9,7.6,8c3,0.9,7.1,1.4,11.4,1.4c4.6,0,19.7-0.7,19.7-9.4l0-0.2c-0.6-13-0.5-21.3-0.5-33.8
		c0-4.7,0.1-9.9,0.1-16.2l-0.8-180.5v-14.2h44.2c64,0,71.4,28.5,71.4,50c0,44.7-52.2,54.1-96,54.1c-3.5,0-6.4,2.2-8.1,5.9
		c-1.4,3.2-1.7,6.9-1.7,9.4c0,8.3,3.3,17.2,10.6,17.2c39.5,0,72.5-7.8,95.3-22.7c23.3-15.2,35.7-37.3,35.7-63.9
		C1414,115,1395.4,70.1,1306.8,70.1z"/>
	<path class="st0" d="M1534.6,70.1h-74.8l-0.4,0c-2.2,0.2-5.3,0.7-7.2,3.3c-1.9,2.5-1.7,5.7-1.2,8.2c1,6.8,3.2,25.4,3.2,50v165.7
		c0,21.9-0.4,32.2-1.2,50l0,0.2c0,2.1,1,5.9,7.6,8c3,0.9,7.1,1.4,11.4,1.4c4.6,0,19.7-0.7,19.7-9.4l0-0.2c-0.6-13-0.5-21.3-0.5-33.8
		c0-4.7,0.1-9.9,0.1-16.2l-0.8-180.5v-14.2h44.2c64,0,71.4,28.5,71.4,50c0,44.7-52.2,54.1-96,54.1c-3.5,0-6.4,2.2-8.1,5.9
		c-1.4,3.2-1.7,6.9-1.7,9.3c0,8.3,3.3,17.2,10.6,17.2c39.5,0,72.5-7.8,95.3-22.7c23.3-15.2,35.7-37.3,35.7-63.9
		C1641.8,115,1623.2,70.1,1534.6,70.1z"/>
	<path class="st0" d="M1867.3,74.5c-6.8-4.3-23.1-7.5-28.3,0.5l-72.8,115.1l-73.2-115.5c-1.4-2.3-4.7-5.1-11.9-4.9
		c-8.2,0.2-19.1,4.3-22.4,10.3c-1.4,2.7-1.3,5.6,0.3,8.2c14.2,21.8,77.8,119.8,88.1,136.6v72.4c0,21.9-0.4,32.2-1.2,50l0,0.2
		c0,2.1,1,5.9,7.6,8c3,0.9,7.1,1.4,11.4,1.4c4.6,0,19.7-0.7,19.7-9.4l0-0.2c-0.8-17.5-1.2-27.1-1.2-50v-72.5
		c9.5-16.3,73.6-115.6,88.2-137.8C1873.4,83.8,1873.6,78.5,1867.3,74.5z"/>
	<path class="st0" d="M2116.9,70.1h-74.8l-0.4,0c-2.2,0.2-5.3,0.7-7.2,3.3c-1.9,2.5-1.7,5.6-1.2,8.2c1,6.8,3.2,25.4,3.2,50v165.7
		c0,21.9-0.4,32.2-1.2,50l0,0.2c0,2.1,1,5.9,7.6,8c3,0.9,7.1,1.4,11.4,1.4c4.6,0,19.7-0.7,19.7-9.4l0-0.2c-0.6-13-0.5-21.3-0.5-33.8
		c0-4.7,0.1-9.9,0.1-16.2l-0.8-180.5v-14.2h44.2c64,0,71.4,28.5,71.4,50c0,44.7-52.2,54.1-96,54.1c-3.5,0-6.4,2.2-8.1,5.9
		c-1.4,3.2-1.7,6.9-1.7,9.4c0,8.3,3.3,17.2,10.6,17.2c39.5,0,72.5-7.8,95.3-22.7c23.3-15.2,35.7-37.3,35.7-63.9
		C2224.1,115,2205.5,70.1,2116.9,70.1z"/>
	<path class="st0" d="M2389.9,110c-5.9-16.5-9.9-27.4-10.7-29.7c-3.4-9-12.9-10.2-21.7-10.2c-8.5,0-18.5,1.2-21.4,10.4
		c-3.3,10.8-85.9,240.8-95.2,261.5c-1.2,2.8-0.8,5.9,1.1,8.3c3.4,4.3,11.1,6.4,17.9,6.4c1.7,0,3.3-0.1,4.9-0.4
		c5.4-0.9,9.1-3.4,10.4-7.1l31.9-89.7h98.4l31.9,90.1c0.9,2.4,3.2,5.5,9.6,6.6c8.7,1.4,21.8-1.3,26.4-7.2c2-2.5,2.4-5.5,1.2-8.4
		C2467.4,324.8,2413.1,174.3,2389.9,110z M2319.2,226.4l37.1-104.5l37.1,104.5H2319.2z"/>
	<path class="st0" d="M2843.1,71.4c-8.3-2.4-21.2-2.1-23.8,6.4l-61.4,220.5l-65.2-217.1c-1.3-5-5.7-11-19-11
		c-10.2,0-16.6,3.8-18.9,11.3L2590,298.2l-61.4-220.9c-0.7-2.3-2.7-5.3-8.3-6.6c-7.8-1.8-21.5,0.8-26.7,6.5c-2.3,2.5-3,5.5-2,8.4
		c3,9.5,18.5,63.5,34.8,120.8c18.8,65.9,38.3,134,40.5,140.2c3.4,9,12.9,10.2,21.7,10.2c8.7,0,19-1.2,21.8-10.5l62.1-211.7
		l62.5,211.7c2.6,9.3,12.1,10.5,21.8,10.5c8.5,0,18.5-1.2,21.4-10.4c1.4-4.5,13.4-46.4,27.3-95c19.5-68.1,43.7-152.8,48-167
		C2854.7,79.9,2852.6,74.2,2843.1,71.4z"/>
</g>
<path class="st0" d="M249.3,10.9c-111.8,0-202.4,90.6-202.4,202.4c0,111.8,90.6,202.5,202.4,202.5c111.8,0,202.4-90.6,202.4-202.5
	C451.8,101.5,361.1,10.9,249.3,10.9z M265.7,126.9c0.2-1,0.3-2,0.5-2.9c0.1-0.3,0.1-0.6,0.2-0.9c0.1-0.7,0.3-1.3,0.4-2
	c0.1-0.4,0.2-0.7,0.3-1c0.1-0.6,0.3-1.2,0.4-1.8c0.1-0.4,0.2-0.7,0.3-1c0.2-0.6,0.3-1.2,0.5-1.7c0.1-0.3,0.2-0.7,0.3-1
	c0.2-0.6,0.4-1.1,0.6-1.7c0.1-0.3,0.2-0.6,0.3-0.9c0.2-0.6,0.4-1.2,0.6-1.7c0.1-0.3,0.2-0.6,0.3-0.8c0.2-0.6,0.5-1.2,0.7-1.8
	c0.1-0.2,0.2-0.5,0.3-0.7c0.3-0.6,0.6-1.3,0.8-1.9c0.1-0.2,0.2-0.4,0.2-0.5c0.3-0.7,0.7-1.4,1-2.1c0-0.1,0.1-0.2,0.1-0.3
	c8.4-16.2,21.6-26,34.6-23.6c18.7,3.4,30,30.5,25.2,60.7c-1.8,11.1-5.4,21-10.3,29l0,0c0,0,0,0,0,0c-1,1.7-2.1,3.3-3.3,4.8
	c0,0,0,0.1-0.1,0.1c-0.5,0.7-1.1,1.4-1.6,2c-0.1,0.1-0.1,0.1-0.2,0.2c-1.7,2.1-3.6,3.9-5.5,5.5c-0.1,0.1-0.2,0.2-0.3,0.2
	c-0.5,0.4-1.1,0.9-1.6,1.3c-0.1,0.1-0.2,0.2-0.4,0.3c-0.6,0.4-1.2,0.8-1.8,1.2c0,0-0.1,0-0.1,0.1c-0.7,0.4-1.3,0.8-2,1.2
	c-0.1,0-0.2,0.1-0.2,0.1c-0.6,0.3-1.1,0.6-1.7,0.8c-0.2,0.1-0.4,0.1-0.5,0.2c-0.5,0.2-1,0.4-1.5,0.6c-0.2,0.1-0.4,0.1-0.5,0.2
	c-0.6,0.2-1.2,0.4-1.8,0.5c-0.1,0-0.1,0-0.2,0c-0.7,0.2-1.4,0.3-2,0.4c-0.2,0-0.4,0-0.5,0.1c-0.5,0.1-1,0.1-1.5,0.1
	c-0.2,0-0.4,0-0.7,0c-0.5,0-1,0-1.4,0c-0.2,0-0.4,0-0.6,0c-0.7-0.1-1.4-0.1-2-0.3c-2.3-0.4-4.6-1.2-6.7-2.3c-1-0.6-2.1-1.2-3-1.9
	c-2.4-1.8-4.7-4.1-6.6-6.8c-0.8-1.1-1.5-2.2-2.2-3.4c-4.9-8.4-7.8-19.8-7.8-32.3C264.6,136.2,264.9,131.6,265.7,126.9z M164.1,122.3
	c0-0.2,0-0.4,0-0.5c0-1.1,0.1-2.2,0.2-3.3c0-0.2,0-0.4,0-0.6c0.1-1.2,0.2-2.4,0.4-3.5c0-0.2,0.1-0.4,0.1-0.5
	c0.2-1.1,0.3-2.2,0.6-3.2c0-0.1,0-0.2,0.1-0.3c0.2-1.1,0.5-2.3,0.8-3.4c0-0.2,0.1-0.3,0.1-0.4c0.6-2.2,1.3-4.4,2.1-6.4
	c0-0.1,0.1-0.2,0.1-0.3c0.8-2.1,1.7-4,2.7-5.8c0-0.1,0.1-0.1,0.1-0.2c1-1.8,2.2-3.6,3.4-5.1c0,0,0-0.1,0.1-0.1c1.2-1.6,2.6-3,4-4.3
	c0,0,0,0,0,0l0,0c3.4-3,7.2-5,11.5-5.7c18.7-3.4,37.8,18.3,42.6,48.4c2.7,17.3,0.2,33.6-6,45l0,0c0,0,0,0,0,0h0c0,0,0,0,0,0
	c-1.2,2.1-2.4,4.1-3.8,5.8c0,0,0,0,0,0c-0.3,0.4-0.6,0.7-0.9,1.1c-0.1,0.1-0.2,0.2-0.2,0.3c-0.3,0.3-0.6,0.6-0.9,0.9
	c-0.1,0.1-0.2,0.2-0.3,0.3c-0.3,0.3-0.6,0.6-0.9,0.8c-0.1,0.1-0.3,0.2-0.4,0.3c-0.3,0.3-0.6,0.5-0.9,0.8c-0.1,0.1-0.3,0.2-0.4,0.3
	c-0.5,0.4-1,0.8-1.6,1.2c-0.2,0.1-0.4,0.3-0.6,0.4c-0.2,0.1-0.5,0.3-0.7,0.4c-0.3,0.2-0.5,0.3-0.8,0.4c-0.2,0.1-0.4,0.2-0.7,0.4
	c-0.3,0.1-0.6,0.3-0.8,0.4c-0.2,0.1-0.4,0.2-0.7,0.3c-0.3,0.1-0.6,0.2-0.9,0.4c-0.2,0.1-0.4,0.2-0.6,0.2c-0.3,0.1-0.7,0.2-1,0.3
	c-0.2,0.1-0.4,0.1-0.5,0.2c-0.5,0.1-1.1,0.3-1.6,0.4c0,0,0,0,0,0c-15.2,2.7-30.6-11.1-38.5-32.5c-0.3-0.8-0.6-1.7-0.9-2.5
	c-0.8-2.5-1.6-5.2-2.2-7.9c-0.4-1.8-0.8-3.7-1.1-5.5c-0.2-1.3-0.4-2.6-0.5-3.9c0-0.3-0.1-0.6-0.1-0.9c-0.1-1.3-0.2-2.5-0.3-3.8
	c0-0.1,0-0.3,0-0.4c-0.1-1.2-0.1-2.3-0.1-3.5c0-0.3,0-0.5,0-0.8C164.1,124.7,164.1,123.5,164.1,122.3z M154.7,242.6
	c-0.5,0.7-1.1,1.4-1.6,2c0,0-0.1,0.1-0.1,0.1c-0.5,0.6-1.1,1.2-1.7,1.8c0,0-0.1,0.1-0.1,0.1c-0.6,0.6-1.2,1.1-1.8,1.6
	c-0.1,0.1-0.2,0.2-0.3,0.2c-0.6,0.5-1.2,0.9-1.8,1.3c0,0-0.1,0.1-0.1,0.1c-0.6,0.4-1.3,0.8-2,1.1c-0.2,0.1-0.3,0.2-0.5,0.2
	c-0.7,0.3-1.4,0.7-2.1,0.9c-1.6,0.6-3.2,1-4.8,1.3c-1.6,0.3-3.3,0.4-4.9,0.3c-0.5,0-1.1-0.1-1.6-0.1c-1.1-0.1-2.2-0.3-3.3-0.5
	c-2.2-0.5-4.3-1.3-6.4-2.3c-2.6-1.3-5.2-2.9-7.6-4.9c-0.5-0.4-1-0.8-1.4-1.2c-2.4-2.1-4.6-4.6-6.6-7.3c-3.2-4.4-5.9-9.6-7.9-15.3
	c-0.4-1.1-0.7-2.2-1-3.3c-0.1-0.2-0.1-0.4-0.2-0.6c-0.3-1.1-0.5-2.1-0.7-3.2c0-0.2-0.1-0.4-0.1-0.6c-0.2-1.1-0.4-2.2-0.5-3.2
	c0-0.1,0-0.1,0-0.2c-0.1-1-0.2-2.1-0.3-3.1c0-0.2,0-0.3,0-0.5c-0.1-1-0.1-2.1-0.1-3.1c0-0.2,0-0.4,0-0.6c0-1,0-2.1,0.1-3.1
	c0-0.1,0-0.2,0-0.3c0.1-1,0.1-1.9,0.3-2.9c0-0.1,0-0.3,0-0.4c0.1-1,0.3-1.9,0.5-2.9c0-0.2,0.1-0.4,0.1-0.6c0.2-0.9,0.4-1.9,0.6-2.8
	c0-0.1,0.1-0.2,0.1-0.4c0.2-0.9,0.5-1.8,0.8-2.6c0-0.1,0.1-0.2,0.1-0.3c0.3-0.9,0.7-1.7,1-2.6c0.1-0.2,0.1-0.3,0.2-0.5
	c0.4-0.8,0.8-1.6,1.2-2.4c0.1-0.1,0.1-0.2,0.2-0.3c0.4-0.8,0.9-1.5,1.3-2.2c0,0,0.1-0.1,0.1-0.1c0.5-0.7,1-1.4,1.5-2.1
	c0.1-0.1,0.2-0.2,0.3-0.4c0.5-0.7,1.1-1.3,1.7-1.9c0.1-0.1,0.2-0.2,0.3-0.3c0.6-0.6,1.2-1.2,1.9-1.8c0,0,0,0,0,0
	c2.2-1.8,4.6-3.2,7.2-4.2c16.9-6.4,36.8,7,44.6,30.1c4.8,14.1,3.8,28.6-1.5,39.2c0,0,0,0,0,0C156.7,239.6,155.8,241.1,154.7,242.6
	C154.7,242.6,154.7,242.6,154.7,242.6z M338.7,330.1c-15.4,29.6-52.1,16.9-73.8,8.5c0,0,0,0-0.1,0c-0.4-0.2-0.8-0.3-1.2-0.4
	c-0.1,0-0.1,0-0.2-0.1c-0.3-0.1-0.7-0.3-1-0.4c-0.9-0.3-1.7-0.7-2.5-1c0,0,0,0-0.1,0c-0.3-0.1-0.7-0.3-1-0.4c0,0-0.1,0-0.1,0
	c-0.3-0.1-0.6-0.2-1-0.4c0,0-0.1,0-0.1,0c-0.3-0.1-0.6-0.2-0.9-0.3c0,0-0.1,0-0.1,0c-0.3-0.1-0.6-0.2-0.9-0.3c0,0,0,0-0.1,0
	c-2.2-0.8-4-1.4-5.3-1.6c0,0,0,0,0,0c0,0,0,0,0,0c-3.6,0.6-10.8,3.8-19.7,7.1c0,0,0,0-0.1,0c-0.5,0.2-0.9,0.3-1.4,0.5
	c0,0-0.1,0-0.1,0c-0.5,0.2-0.9,0.3-1.4,0.5c-0.1,0-0.1,0-0.2,0.1c-0.4,0.2-0.9,0.3-1.3,0.5c-0.1,0-0.2,0.1-0.3,0.1
	c-0.4,0.1-0.9,0.3-1.3,0.4c-0.1,0-0.2,0.1-0.3,0.1c-0.4,0.1-0.9,0.3-1.3,0.4c-0.1,0-0.2,0.1-0.3,0.1c-0.4,0.1-0.9,0.3-1.3,0.4
	c-0.1,0-0.2,0.1-0.4,0.1c-0.4,0.1-0.9,0.3-1.3,0.4c-0.1,0-0.2,0.1-0.4,0.1c-0.4,0.1-0.9,0.3-1.3,0.4c-0.1,0-0.2,0.1-0.4,0.1
	c-0.4,0.1-0.9,0.2-1.3,0.4c-0.1,0-0.2,0.1-0.4,0.1c-0.4,0.1-0.9,0.2-1.3,0.4c-0.1,0-0.2,0.1-0.3,0.1c-0.5,0.1-0.9,0.2-1.4,0.3
	c-0.1,0-0.2,0-0.3,0.1c-0.5,0.1-1,0.2-1.5,0.3c-0.1,0-0.1,0-0.2,0c-0.6,0.1-1.1,0.2-1.7,0.4c0,0,0,0,0,0c-2.3,0.5-4.7,0.9-7,1.1
	c0,0-0.1,0-0.1,0c-0.5,0.1-1.1,0.1-1.6,0.2c-0.1,0-0.2,0-0.4,0c-0.5,0-0.9,0.1-1.4,0.1c-0.2,0-0.3,0-0.5,0c-0.4,0-0.8,0.1-1.2,0.1
	c-0.2,0-0.4,0-0.5,0c-0.4,0-0.8,0-1.2,0c-0.2,0-0.4,0-0.6,0c-0.4,0-0.7,0-1.1,0c-0.2,0-0.4,0-0.6,0c-0.3,0-0.7,0-1,0
	c-0.2,0-0.4,0-0.7,0c-0.3,0-0.7,0-1-0.1c-0.2,0-0.5,0-0.7-0.1c-0.3,0-0.7-0.1-1-0.1c-0.2,0-0.5-0.1-0.7-0.1c-0.3,0-0.6-0.1-0.9-0.1
	c-0.2,0-0.5-0.1-0.7-0.1c-0.3-0.1-0.6-0.1-0.9-0.2c-0.2,0-0.5-0.1-0.7-0.1c-0.3-0.1-0.6-0.1-0.9-0.2c-0.2-0.1-0.5-0.1-0.7-0.2
	c-0.3-0.1-0.6-0.2-0.9-0.2c-0.2-0.1-0.5-0.1-0.7-0.2c-0.3-0.1-0.6-0.2-0.9-0.3c-0.2-0.1-0.5-0.2-0.7-0.2c-0.3-0.1-0.6-0.2-0.8-0.3
	c-0.2-0.1-0.5-0.2-0.7-0.3c-0.3-0.1-0.5-0.2-0.8-0.4c-0.2-0.1-0.4-0.2-0.7-0.3c-0.3-0.1-0.5-0.3-0.8-0.4c-0.2-0.1-0.4-0.2-0.7-0.3
	c-0.3-0.1-0.5-0.3-0.8-0.4c-0.2-0.1-0.4-0.3-0.6-0.4c-0.3-0.2-0.5-0.3-0.8-0.5c-0.2-0.1-0.4-0.3-0.6-0.4c-0.2-0.2-0.5-0.4-0.7-0.5
	c-0.2-0.2-0.4-0.3-0.6-0.5c-0.2-0.2-0.5-0.4-0.7-0.6c-0.2-0.2-0.4-0.3-0.6-0.5c-0.2-0.2-0.5-0.4-0.7-0.6c-0.2-0.2-0.4-0.4-0.6-0.5
	c-0.2-0.2-0.5-0.5-0.7-0.7c-0.2-0.2-0.4-0.4-0.5-0.6c-0.2-0.2-0.4-0.5-0.7-0.8c-0.2-0.2-0.3-0.4-0.5-0.6c-0.2-0.3-0.4-0.6-0.7-0.8
	c-0.2-0.2-0.3-0.4-0.5-0.6c-0.2-0.3-0.4-0.6-0.7-0.9c-0.1-0.2-0.3-0.4-0.4-0.6c-0.2-0.4-0.5-0.7-0.7-1.1c-0.1-0.2-0.2-0.4-0.3-0.6
	c-0.3-0.6-0.7-1.2-1-1.8c0,0,0,0,0,0c-0.4-0.7-0.7-1.5-1.1-2.2c-0.1-0.2-0.2-0.4-0.3-0.7c-0.2-0.5-0.5-1-0.7-1.6
	c-0.1-0.2-0.2-0.5-0.3-0.7c-0.2-0.6-0.5-1.2-0.7-1.8c0-0.1-0.1-0.2-0.1-0.3c-0.3-0.7-0.5-1.4-0.7-2.1c-0.1-0.2-0.1-0.4-0.2-0.6
	c-0.2-0.5-0.3-1-0.4-1.5c-0.1-0.2-0.1-0.4-0.2-0.7c-0.1-0.5-0.3-1.1-0.4-1.6c0-0.2-0.1-0.3-0.1-0.5c-0.1-0.7-0.3-1.3-0.4-2
	c0-0.2,0-0.3-0.1-0.4c-0.1-0.5-0.1-1-0.2-1.6c0-0.2,0-0.4-0.1-0.6c0-0.5-0.1-1-0.1-1.5c0-0.2,0-0.4,0-0.5c0-0.7,0-1.3,0-1.9
	c0-0.1,0-0.2,0-0.2c0-0.6,0-1.1,0-1.7c0-0.2,0-0.4,0-0.6c0-0.5,0.1-0.9,0.1-1.4c0-0.2,0-0.4,0.1-0.6c0.1-0.6,0.1-1.2,0.2-1.8
	c0,0,0,0,0-0.1c0.1-0.6,0.2-1.2,0.3-1.9c0-0.2,0.1-0.3,0.1-0.5c0.1-0.5,0.2-0.9,0.3-1.4c0-0.2,0.1-0.4,0.1-0.5
	c0.1-0.5,0.3-1,0.4-1.6c0-0.1,0-0.2,0.1-0.3c0.2-0.6,0.4-1.2,0.6-1.8c0-0.1,0.1-0.3,0.1-0.4c0.2-0.5,0.3-0.9,0.5-1.4
	c0.1-0.2,0.1-0.3,0.2-0.5c0.2-0.5,0.4-0.9,0.6-1.4c0-0.1,0.1-0.2,0.1-0.3c0.3-0.6,0.5-1.2,0.8-1.8c0-0.1,0.1-0.1,0.1-0.2
	c0.2-0.5,0.5-1,0.7-1.5c0.1-0.1,0.1-0.3,0.2-0.4c0.2-0.5,0.5-0.9,0.7-1.4c0.1-0.1,0.1-0.2,0.2-0.3c0.6-1.1,1.3-2.2,2-3.4
	c0.1-0.1,0.1-0.2,0.2-0.3c0.3-0.5,0.6-0.9,0.9-1.3c0.1-0.1,0.1-0.2,0.2-0.3c0.7-1.1,1.5-2.2,2.3-3.3c0.1-0.1,0.1-0.1,0.2-0.2
	c0.3-0.5,0.7-0.9,1.1-1.4c0.1-0.1,0.1-0.2,0.2-0.3c0.8-1.1,1.7-2.1,2.6-3.2c0,0,0,0,0,0c0.4-0.5,0.9-1,1.3-1.5
	c0.1-0.1,0.1-0.1,0.2-0.2c0.4-0.5,0.9-1,1.3-1.5c0,0,0,0,0,0c0,0,0,0,0,0c8-9,17.1-17,24-24.2c10.5-11,24.3-19.6,34.9-25.2
	c10.3-5.4,22.2-5.4,32.5,0c10.6,5.6,24.4,14.2,34.9,25.2C321.5,263,359.4,290.4,338.7,330.1z M395.4,233.2
	C395.4,233.2,395.4,233.2,395.4,233.2C395.4,233.2,395.4,233.2,395.4,233.2c-1.8,3-3.8,5.7-6,8.1c0,0,0,0,0,0
	c-2.2,2.4-4.5,4.5-6.9,6.2c-0.1,0-0.1,0.1-0.2,0.1c-1.6,1.1-3.2,2.1-4.9,2.9c0,0-0.1,0-0.1,0.1c-0.8,0.4-1.6,0.7-2.4,1.1
	c-0.1,0-0.2,0.1-0.3,0.1c-0.8,0.3-1.6,0.6-2.5,0.8c0,0-0.1,0-0.1,0c-0.8,0.2-1.6,0.4-2.4,0.6c-0.1,0-0.2,0-0.3,0.1
	c-0.8,0.1-1.6,0.2-2.4,0.3c-0.1,0-0.3,0-0.4,0c-0.8,0.1-1.6,0.1-2.4,0.1c0,0-0.1,0-0.1,0c-0.8,0-1.6-0.1-2.3-0.2
	c-0.1,0-0.3,0-0.4-0.1c-0.8-0.1-1.5-0.3-2.3-0.5c-0.2,0-0.3-0.1-0.5-0.1c-0.8-0.2-1.6-0.5-2.4-0.8c0,0,0,0,0,0c-3.2-1.2-6-3-8.4-5.3
	c-0.4-0.4-0.8-0.8-1.2-1.2c-3.1-3.3-5.5-7.4-7.2-12.1c-0.2-0.6-0.4-1.2-0.6-1.8c-0.4-1.2-0.7-2.4-1-3.7c-0.1-0.6-0.3-1.3-0.4-1.9
	c-0.2-1.3-0.4-2.6-0.5-4c-0.2-2-0.3-4.1-0.2-6.2c0-1.3,0.1-2.7,0.3-4.1c0.1-0.8,0.2-1.5,0.3-2.3c0.3-2,0.7-3.9,1.1-5.9
	c0.1-0.4,0.2-0.8,0.3-1.2c0.3-1.2,0.7-2.5,1.1-3.7c0.3-1,0.7-1.9,1-2.8c0.1-0.2,0.2-0.5,0.3-0.7c0.4-0.9,0.7-1.7,1.1-2.6
	c0,0,0-0.1,0-0.1c0.4-0.9,0.9-1.8,1.3-2.6c0.1-0.2,0.2-0.4,0.3-0.5c0.4-0.8,0.9-1.6,1.4-2.4c0,0,0,0,0,0c0.5-0.8,1-1.6,1.6-2.4
	c0.1-0.1,0.2-0.2,0.3-0.4c1.1-1.6,2.3-3,3.5-4.4c0.1-0.1,0.1-0.2,0.2-0.2c9.5-10.6,22.2-15.2,33.6-10.9
	c16.9,6.4,24.2,30.3,16.5,53.4C399.2,226.1,397.5,229.8,395.4,233.2z"/>
</svg>
