<svg width="229" height="26" viewBox="0 0 229 26" fill="none" xmlns="http://www.w3.org/2000/svg">
<g clip-path="url(#clip0_88755_2061)">
<path d="M13.9787 24.2916C15.1111 24.2916 21.9386 28.3705 24.3365 23.9203C26.7345 19.4701 22.338 16.4021 20.0402 14.0765C18.8199 12.841 17.2232 11.8821 15.9955 11.2531C14.8008 10.6419 13.4241 10.6419 12.2294 11.2531C11.0005 11.8809 9.40508 12.841 8.18471 14.0765C5.88691 16.4033 1.49042 19.4701 3.88839 23.9203C6.28637 28.3705 13.1138 24.2916 14.2462 24.2916" fill="#D3D3D8"/>
<path d="M10.2293 9.02297C11.9269 8.74478 12.9508 6.50575 12.5163 4.02196C12.0818 1.53816 10.3534 -0.249842 8.65577 0.0283438C6.95819 0.306529 5.93428 2.54556 6.3688 5.02935C6.80333 7.51315 8.53174 9.30115 10.2293 9.02297Z" fill="#D3D3D8"/>
<path d="M4.32195 14.3424C5.85053 13.8118 6.51917 11.8421 5.8154 9.94287C5.11162 8.04365 3.30194 6.93415 1.77336 7.46474C0.244776 7.99532 -0.423863 9.96507 0.279911 11.8643C0.983685 13.7635 2.79337 14.873 4.32195 14.3424Z" fill="#D3D3D8"/>
<path d="M21.6327 5.02864C22.0673 2.54485 21.0434 0.305817 19.3458 0.0276317C17.6482 -0.250554 15.9198 1.53745 15.4853 4.02124C15.0507 6.50504 16.0746 8.74407 17.7722 9.02225C19.4698 9.30044 21.1982 7.51244 21.6327 5.02864Z" fill="#D3D3D8"/>
<path d="M27.7202 11.8644C28.424 9.96513 27.7553 7.99539 26.2267 7.4648C24.6982 6.93422 22.8885 8.04372 22.1847 9.94293C21.4809 11.8422 22.1496 13.8119 23.6781 14.3425C25.2067 14.8731 27.0164 13.7636 27.7202 11.8644Z" fill="#D3D3D8"/>
<path d="M14.8144 23.4829C13.3619 23.7335 6.90704 27.3998 4.58969 23.0986C3.24228 20.598 4.03998 18.5349 5.40449 16.7934C3.65273 18.6993 2.3212 21.0154 3.88728 23.9215C6.20463 28.2227 12.6595 24.5564 14.112 24.3057C14.0619 24.2975 14.0167 24.2916 13.9788 24.2916H14.2451C14.2072 24.2916 14.162 24.2963 14.112 24.3057C15.529 24.5505 21.7005 28.0406 24.1559 24.2253C21.3865 26.6467 16.1105 23.7063 14.8144 23.4829Z" fill="#A8A8A8"/>
<path d="M13.9788 24.2916C14.0166 24.2916 14.0618 24.2963 14.1119 24.3058C14.162 24.2975 14.2072 24.2916 14.2451 24.2916H13.9788Z" fill="#A8A8A8"/>
<path d="M10.2298 9.02214C10.9542 8.90391 11.5552 8.42626 11.9742 7.72752C11.6676 7.97225 11.3182 8.13659 10.9334 8.20044C9.23542 8.47828 7.50687 6.69064 7.07321 4.20781C6.82401 2.78431 7.05489 1.4424 7.61682 0.502472C6.57114 1.33718 6.03486 3.11063 6.3708 5.03069C6.80568 7.5147 8.53423 9.30234 10.231 9.02332L10.2298 9.02214Z" fill="#A8A8A8"/>
<path d="M4.32213 14.3425C4.91215 14.138 5.37391 13.7171 5.67809 13.1696C5.48263 13.3174 5.26397 13.4357 5.02454 13.5196C3.49633 14.0505 1.68594 12.9403 0.982307 11.0415C0.549865 9.87575 0.636598 8.68399 1.11912 7.815C0.06856 8.61187 -0.315018 10.2635 0.278673 11.8644C0.982307 13.7632 2.79148 14.8733 4.3209 14.3425H4.32213Z" fill="#A8A8A8"/>
<path d="M17.7718 9.02215C18.8455 9.19831 19.9315 8.54687 20.695 7.4154C20.0329 8.02074 19.2511 8.32578 18.4742 8.19927C16.7762 7.92143 15.7525 5.68215 16.1874 3.19813C16.3474 2.2854 16.6821 1.46843 17.1243 0.811066C16.3376 1.52991 15.7195 2.67201 15.4837 4.01983C15.0488 6.50385 16.0738 8.74195 17.7705 9.02097L17.7718 9.02215Z" fill="#A8A8A8"/>
<path d="M24.3819 13.5196C22.8537 12.9888 22.1843 11.0191 22.8891 9.12028C23.0125 8.78805 23.1701 8.48065 23.3534 8.20163C22.8598 8.64499 22.4469 9.23969 22.1867 9.94316C21.4831 11.8419 22.1513 13.8117 23.6795 14.3425C24.9402 14.78 26.3927 14.1013 27.2575 12.783C26.4183 13.5374 25.3445 13.8542 24.3819 13.5196Z" fill="#A8A8A8"/>
<path d="M14.6812 23.4687C14.719 23.4687 14.7642 23.4734 14.8143 23.4829C14.8644 23.4746 14.9096 23.4687 14.9475 23.4687H14.6812Z" fill="#A8A8A8"/>
</g>
<path d="M64.1517 8.30916C63.2061 8.41916 60.6439 8.47023 59.0037 8.47416C59.0037 5.99124 59.0037 3.47295 59.0312 2.70293V2.58507C59.0626 1.96434 59.0861 1.33968 59.1136 0.990027C59.1528 0.675733 59.0391 0.526443 58.7958 0.353581C58.4544 0.165005 57.5873 0 57.14 0C56.9791 0 56.7476 0.0196434 56.626 0.176791C56.575 0.243578 56.52 0.361438 56.5632 0.5343C56.673 1.10396 56.6966 2.29042 56.7241 3.43759C56.7515 4.62406 56.7515 14.2768 56.7241 14.9211C56.7241 15.2158 56.9359 15.3651 57.3597 15.3651C57.6344 15.3651 58.5564 15.3376 58.9017 14.9604C58.9959 14.8583 59.043 14.7325 59.0351 14.6029C59.0077 14.265 59.0077 12.5011 59.0077 10.4267C60.7341 10.4267 63.2335 10.4817 64.1791 10.5092C64.3596 10.5092 64.9011 10.5092 64.9482 10.0299C64.9796 9.72348 64.9207 9.06739 64.8344 8.75703C64.7559 8.44273 64.497 8.26594 64.1556 8.30916H64.1517Z" fill="#374259"/>
<path d="M53.0553 15.8758C49.4886 15.8758 46.9971 17.9541 46.9971 20.9241C46.9971 23.8942 49.4886 25.9725 53.0553 25.9725C56.622 25.9725 59.0861 23.9414 59.0861 20.9241C59.0861 17.9069 56.6612 15.8758 53.0553 15.8758ZM53.0553 23.9649C50.7638 23.9649 49.2257 22.7549 49.2257 20.9516C49.2257 19.1484 50.7638 17.8833 53.0553 17.8833C55.3468 17.8833 56.8574 19.117 56.8574 20.9516C56.8574 22.7863 55.3311 23.9649 53.0553 23.9649Z" fill="#374259"/>
<path d="M52.3884 5.91266C52.4983 5.61801 52.4276 5.28014 52.1922 4.96192C51.8352 4.47869 51.176 4.15654 50.6306 4.1919C49.5005 4.27047 43.1441 4.30583 41.7669 4.1919C41.4137 4.15261 41.2058 4.31762 41.1665 4.6712C41.1391 5.02085 41.194 5.57086 41.2882 5.85373C41.402 6.15624 41.6178 6.30946 41.9434 6.30946C43.1323 6.25838 47.5858 6.20338 49.7752 6.22303C48.3705 9.40918 44.7999 12.6071 40.3779 14.6265C40.1542 14.7286 40.064 14.8818 40.0287 14.9918C39.9698 15.1726 40.0012 15.3886 40.1267 15.6204C40.3582 16.0015 40.8173 16.304 41.3078 16.304C41.449 16.304 41.5942 16.2804 41.7355 16.2215C45.7377 14.7561 50.8189 10.4935 52.3923 5.90873L52.3884 5.91266Z" fill="#374259"/>
<path d="M91.2647 10.2303C90.4015 10.3285 88.1492 10.3913 86.3836 10.3953C86.3639 9.52702 86.3639 8.59986 86.3836 7.69233C88.0825 7.69233 90.4328 7.74733 91.2843 7.77483C91.4648 7.77483 92.0063 7.77483 92.0533 7.29553C92.0847 6.99303 92.0259 6.33694 91.9396 6.02264C91.8611 5.70835 91.6021 5.53549 91.2607 5.57477C90.3975 5.67299 88.1492 5.73192 86.3836 5.73585C86.3836 4.36474 86.3836 3.19792 86.411 2.70684V2.58898C86.4424 1.96825 86.466 1.34359 86.4934 0.993933C86.5327 0.679639 86.4189 0.530349 86.1756 0.357487C85.8342 0.168911 84.9671 0.00390625 84.5198 0.00390625C84.3589 0.00390625 84.1274 0.0235497 84.0058 0.180697C83.9548 0.247484 83.8998 0.365345 83.943 0.538207C84.0529 1.10787 84.0764 2.29433 84.1039 3.43364C84.1039 3.60258 84.1039 3.94437 84.1117 4.41188C84.1196 5.37048 84.1313 6.84374 84.1313 8.37985C80.5058 10.0338 74.5574 11.9589 71.132 12.23C70.9869 12.2457 70.9515 12.2182 70.9515 12.2182C70.9515 12.2182 70.9398 12.1985 70.9398 12.1317C70.8613 11.3578 70.775 5.5512 70.8299 4.72225C70.8299 4.42367 70.7514 4.27438 70.516 4.1133C70.2021 3.92473 69.3938 3.7833 68.8798 3.7833C68.7346 3.7833 68.5267 3.79901 68.3972 3.9483C68.3148 4.03866 68.2834 4.16045 68.303 4.30974C68.4874 5.73978 68.5934 10.0378 68.6522 12.3517V12.5443C68.6679 12.9921 68.8523 13.385 69.1859 13.6796C69.7195 14.1511 70.5906 14.3475 71.6382 14.2414C74.9577 13.8839 80.3724 12.0492 84.1274 10.4503C84.1274 12.0453 84.1117 13.4871 84.1039 14.2454C84.1039 14.5243 84.1 14.7129 84.1 14.7836C84.1 15.0782 84.3118 15.2275 84.7356 15.2275C85.0103 15.2275 85.9323 15.2 86.2776 14.8229C86.3718 14.7207 86.4189 14.595 86.4071 14.4575C86.3836 14.2611 86.3796 13.4282 86.3796 12.3478C88.0786 12.3478 90.425 12.4028 91.2764 12.4303C91.4569 12.4303 91.9984 12.4303 92.0455 11.951C92.0769 11.6485 92.018 10.9924 91.9317 10.6742C91.8532 10.3599 91.5943 10.187 91.2529 10.2263L91.2647 10.2303Z" fill="#374259"/>
<path d="M80.3605 15.7383C76.7624 15.7383 74.2473 17.848 74.2473 20.8691C74.2473 23.8903 76.7585 25.9725 80.3605 25.9725C83.9625 25.9725 86.4736 23.9217 86.4736 20.8691C86.4736 17.8166 84.0174 15.7383 80.3605 15.7383ZM80.3605 23.9649C78.0376 23.9649 76.476 22.7195 76.476 20.8691C76.476 19.0187 78.0376 17.7458 80.3605 17.7458C82.6833 17.7458 84.245 18.9991 84.245 20.8691C84.245 22.7392 82.6833 23.9649 80.3605 23.9649Z" fill="#374259"/>
<path d="M106.516 16.0958C102.714 16.0958 100.16 18.0798 100.16 21.0341C100.16 23.9885 102.714 26 106.516 26C110.318 26 112.873 24.0042 112.873 21.0341C112.873 18.0641 110.318 16.0958 106.516 16.0958ZM106.516 24.0474C104.025 24.0474 102.412 22.8649 102.412 21.0341C102.412 19.2034 104.021 18.0483 106.516 18.0483C109.012 18.0483 110.62 19.2191 110.62 21.0341C110.62 22.8492 109.012 24.0474 106.516 24.0474Z" fill="#374259"/>
<path d="M99.2103 3.8501C99.3162 4.17225 99.5516 4.34119 99.893 4.34119C100.897 4.31761 109.118 4.26261 111.017 4.28226C110.895 5.85373 110.522 8.12843 110.052 10.1478C109.993 10.3521 109.973 10.7174 110.53 10.8824C110.679 10.9374 110.872 10.9689 111.072 10.9689C111.291 10.9689 111.523 10.9296 111.723 10.8274C111.951 10.7135 112.108 10.5367 112.178 10.3167C112.747 8.4938 113.179 5.75158 113.336 3.97189C113.363 3.66938 113.198 3.30402 112.877 2.96615C112.563 2.63221 112.045 2.28256 111.546 2.30613C110.295 2.33363 101.808 2.36113 99.583 2.25113C99.2338 2.25113 99.0298 2.44363 99.0298 2.77757C99.0298 3.29223 99.1632 3.73224 99.2024 3.85403L99.2103 3.8501Z" fill="#374259"/>
<path d="M118.766 11.79C118.146 11.845 116.785 11.9 115.38 11.9275C114.709 11.955 110.436 11.955 106.245 11.955C106.245 10.4974 106.245 8.44272 106.3 7.59806C106.3 7.36233 106.3 7.15804 105.967 6.95375C105.641 6.80446 104.903 6.63553 104.433 6.63553C104.225 6.63553 104.076 6.69053 103.981 6.7966C103.895 6.89482 103.864 7.02447 103.883 7.18162C103.958 7.8377 103.989 10.3717 103.993 11.955C101.761 11.955 99.7516 11.9392 98.5706 11.9314C98.0723 11.9314 97.7073 11.9314 97.5661 11.9275C96.1457 11.9 94.7724 11.845 94.1603 11.79C93.6541 11.735 93.5521 12.0807 93.5325 12.2339C93.4736 12.6857 93.5639 13.3221 93.6502 13.55C93.7797 13.9822 94.1132 13.99 94.329 13.99H94.3408C95.0392 13.9625 96.2987 13.935 96.9344 13.935C97.6053 13.935 99.0414 13.935 100.85 13.935C106.253 13.9272 115.297 13.9193 116.514 13.935C116.863 13.935 117.283 13.9429 117.695 13.9507C118.091 13.9586 118.48 13.9625 118.79 13.9625C119.048 13.9625 119.484 13.9625 119.531 13.4832C119.563 13.1846 119.504 12.5521 119.417 12.2378C119.335 11.9157 119.1 11.7507 118.77 11.79H118.766Z" fill="#374259"/>
<path d="M146.04 10.2303C145.177 10.3285 142.924 10.3913 141.159 10.3953C141.139 9.52702 141.139 8.59986 141.159 7.69233C142.858 7.69233 145.208 7.74733 146.059 7.77483C146.24 7.77483 146.781 7.77483 146.828 7.29553C146.86 6.99303 146.801 6.33694 146.715 6.02264C146.636 5.70835 146.381 5.53549 146.036 5.57477C145.173 5.67299 142.924 5.73192 141.163 5.73585C141.163 4.36474 141.163 3.19792 141.19 2.70684V2.58898C141.221 1.96825 141.245 1.34359 141.272 0.993933C141.312 0.679639 141.198 0.530349 140.951 0.357487C140.609 0.168911 139.742 0.00390625 139.295 0.00390625C139.134 0.00390625 138.903 0.0235497 138.781 0.180697C138.73 0.247484 138.675 0.365345 138.718 0.538207C138.824 1.10394 138.852 2.2904 138.879 3.43364C138.879 3.60258 138.879 3.94437 138.887 4.41188C138.895 5.37048 138.906 6.84374 138.906 8.37985C135.281 10.0338 129.333 11.9589 125.907 12.23C125.762 12.2457 125.727 12.2182 125.727 12.2182C125.727 12.2182 125.715 12.1985 125.715 12.1317C125.636 11.3578 125.55 5.5512 125.605 4.72225C125.605 4.42367 125.527 4.27438 125.291 4.1133C124.977 3.92473 124.169 3.7833 123.655 3.7833C123.51 3.7833 123.302 3.79901 123.172 3.9483C123.09 4.03866 123.059 4.16045 123.078 4.30974C123.263 5.73978 123.372 10.0378 123.427 12.3517V12.5443C123.443 12.9921 123.627 13.385 123.961 13.6796C124.495 14.1511 125.366 14.3475 126.413 14.2414C129.737 13.8839 135.148 12.0492 138.903 10.4503C138.903 12.0453 138.887 13.4871 138.879 14.2454C138.879 14.5243 138.875 14.7129 138.875 14.7836C138.875 15.0782 139.087 15.2275 139.511 15.2275C139.785 15.2275 140.707 15.2 141.053 14.8229C141.151 14.7207 141.194 14.595 141.182 14.4575C141.159 14.2611 141.155 13.4282 141.155 12.3478C142.854 12.3478 145.2 12.4028 146.052 12.4303C146.232 12.4303 146.774 12.4303 146.821 11.951C146.852 11.6485 146.793 10.9924 146.707 10.6742C146.628 10.3599 146.369 10.187 146.028 10.2263L146.04 10.2303Z" fill="#374259"/>
<path d="M135.136 15.7383C131.538 15.7383 129.022 17.848 129.022 20.8691C129.022 23.8903 131.534 25.9725 135.136 25.9725C138.738 25.9725 141.249 23.9217 141.249 20.8691C141.249 17.8166 138.793 15.7383 135.136 15.7383ZM135.136 23.9649C132.813 23.9649 131.251 22.7195 131.251 20.8691C131.251 19.0187 132.813 17.7458 135.136 17.7458C137.458 17.7458 139.02 18.9991 139.02 20.8691C139.02 22.7392 137.458 23.9649 135.136 23.9649Z" fill="#374259"/>
<path d="M154.668 4.34119C155.673 4.31761 163.889 4.26261 165.792 4.28226C165.67 5.85373 165.298 8.12843 164.827 10.1478C164.764 10.3521 164.748 10.7174 165.305 10.8824C165.454 10.9374 165.647 10.9689 165.847 10.9689C166.067 10.9689 166.298 10.9296 166.498 10.8274C166.726 10.7135 166.883 10.5367 166.953 10.3167C167.522 8.4938 167.954 5.75158 168.111 3.97189C168.138 3.66938 167.974 3.30402 167.652 2.96615C167.338 2.63221 166.824 2.29434 166.322 2.30613C165.07 2.33363 156.583 2.36113 154.358 2.25113C154.009 2.25113 153.805 2.44363 153.805 2.77757C153.805 3.29223 153.938 3.73224 153.978 3.85403C154.084 4.17618 154.319 4.34512 154.66 4.34512L154.668 4.34119Z" fill="#374259"/>
<path d="M173.541 11.79C172.921 11.845 171.56 11.9 170.155 11.9275C169.484 11.955 165.211 11.955 161.021 11.955C161.021 10.4974 161.021 8.44272 161.075 7.59806C161.075 7.36233 161.075 7.15804 160.742 6.95375C160.416 6.80446 159.679 6.63553 159.208 6.63553C159 6.63553 158.851 6.69053 158.757 6.7966C158.67 6.89482 158.639 7.02447 158.658 7.18162C158.733 7.8377 158.764 10.3717 158.768 11.955C156.536 11.955 154.527 11.9392 153.346 11.9314C152.847 11.9314 152.49 11.9392 152.341 11.9275C150.921 11.9 149.548 11.845 148.935 11.79C148.425 11.731 148.327 12.0807 148.308 12.2339C148.249 12.6857 148.339 13.3221 148.425 13.55C148.555 13.9822 148.888 13.99 149.1 13.99H149.112C149.81 13.9625 151.07 13.935 151.706 13.935C152.377 13.935 153.813 13.935 155.621 13.935C161.024 13.9272 170.069 13.9193 171.285 13.935C171.634 13.935 172.054 13.9429 172.466 13.9507C172.862 13.9586 173.251 13.9625 173.561 13.9625C173.82 13.9625 174.255 13.9625 174.302 13.4832C174.334 13.1846 174.275 12.5521 174.189 12.2378C174.106 11.9157 173.871 11.7507 173.541 11.79Z" fill="#374259"/>
<path d="M161.291 16.0958C157.489 16.0958 154.935 18.0798 154.935 21.0341C154.935 23.9885 157.489 26 161.291 26C165.093 26 167.648 24.0042 167.648 21.0341C167.648 18.0641 165.093 16.0958 161.291 16.0958ZM161.291 24.0474C158.8 24.0474 157.187 22.8649 157.187 21.0341C157.187 19.2034 158.796 18.0483 161.291 18.0483C163.787 18.0483 165.395 19.2191 165.395 21.0341C165.395 22.8492 163.783 24.0474 161.291 24.0474Z" fill="#374259"/>
<path d="M200.815 10.2303C199.952 10.3285 197.7 10.3913 195.934 10.3953C195.914 9.52702 195.914 8.59986 195.934 7.69233C197.633 7.69233 199.983 7.74733 200.835 7.77483C201.015 7.77483 201.557 7.77483 201.604 7.29553C201.635 6.99303 201.576 6.33694 201.49 6.02264C201.412 5.70835 201.157 5.53549 200.811 5.57477C199.948 5.67299 197.7 5.73192 195.938 5.73585C195.938 4.36474 195.938 3.19792 195.965 2.70684V2.58898C195.997 1.96825 196.02 1.34359 196.048 0.993933C196.087 0.679639 195.973 0.530349 195.726 0.357487C195.385 0.168911 194.518 0.00390625 194.07 0.00390625C193.909 0.00390625 193.678 0.0235497 193.556 0.180697C193.505 0.247484 193.45 0.365345 193.494 0.538207C193.599 1.10394 193.627 2.2904 193.654 3.43364C193.654 3.60258 193.654 3.94437 193.662 4.41188C193.67 5.37048 193.682 6.84374 193.682 8.37985C190.056 10.0338 184.108 11.9589 180.683 12.23C180.533 12.2457 180.502 12.2182 180.502 12.2182C180.502 12.2182 180.49 12.1985 180.49 12.1317C180.412 11.3578 180.326 5.5512 180.38 4.72225C180.38 4.42367 180.302 4.27438 180.067 4.1133C179.753 3.92473 178.944 3.7833 178.43 3.7833C178.285 3.7833 178.077 3.79901 177.948 3.9483C177.865 4.03866 177.834 4.16045 177.854 4.30974C178.038 5.73978 178.148 10.0378 178.203 12.3517V12.5443C178.218 12.9921 178.403 13.385 178.736 13.6796C179.27 14.1511 180.141 14.3475 181.189 14.2414C184.508 13.8839 189.923 12.0492 193.678 10.4503C193.678 12.0453 193.662 13.4871 193.654 14.2454C193.654 14.5243 193.65 14.7129 193.65 14.7836C193.65 15.0782 193.862 15.2275 194.286 15.2275C194.561 15.2275 195.483 15.2 195.828 14.8229C195.926 14.7207 195.969 14.595 195.958 14.4575C195.934 14.2611 195.93 13.4282 195.93 12.3478C197.629 12.3478 199.976 12.4028 200.827 12.4303C201.007 12.4303 201.549 12.4303 201.596 11.951C201.627 11.6485 201.569 10.9924 201.482 10.6742C201.404 10.3599 201.145 10.187 200.803 10.2263L200.815 10.2303Z" fill="#374259"/>
<path d="M189.911 15.7383C186.313 15.7383 183.798 17.848 183.798 20.8691C183.798 23.8903 186.309 25.9725 189.911 25.9725C193.513 25.9725 196.024 23.9217 196.024 20.8691C196.024 17.8166 193.568 15.7383 189.911 15.7383ZM189.911 23.9649C187.588 23.9649 186.027 22.7195 186.027 20.8691C186.027 19.0187 187.588 17.7458 189.911 17.7458C192.234 17.7458 193.796 18.9991 193.796 20.8691C193.796 22.7392 192.234 23.9649 189.911 23.9649Z" fill="#374259"/>
<path d="M228.881 10.6742C228.803 10.3599 228.544 10.1871 228.203 10.2264C227.339 10.3246 225.087 10.3874 223.322 10.3914C223.302 9.52312 223.302 8.59595 223.322 7.68843C225.021 7.68843 227.371 7.74343 228.222 7.77093C228.403 7.77093 228.944 7.77093 228.991 7.29163C229.023 6.98912 228.964 6.33303 228.878 6.01874C228.799 5.70444 228.544 5.53158 228.199 5.57087C227.336 5.66908 225.087 5.72801 223.325 5.73194C223.325 4.36083 223.325 3.19402 223.353 2.70293V2.58507C223.384 1.96434 223.408 1.33968 223.435 0.990027C223.475 0.675733 223.361 0.526443 223.114 0.353581C222.772 0.165005 221.905 0 221.458 0C221.297 0 221.065 0.0196434 220.944 0.176791C220.893 0.243578 220.838 0.361438 220.881 0.5343C220.987 1.10003 221.014 2.28649 221.042 3.42974C221.042 3.59867 221.042 3.94047 221.05 4.40798C221.058 5.36658 221.069 6.83983 221.069 8.37594C217.444 10.0299 211.495 11.955 208.07 12.2261C207.921 12.2418 207.89 12.2143 207.89 12.2143C207.89 12.2143 207.878 12.1946 207.878 12.1278C207.799 11.3539 207.713 5.5473 207.768 4.71834C207.768 4.41976 207.689 4.27047 207.454 4.1094C207.14 3.92082 206.332 3.77939 205.818 3.77939C205.673 3.77939 205.465 3.7951 205.335 3.94439C205.253 4.03475 205.221 4.15654 205.241 4.30583C205.425 5.73587 205.535 10.0338 205.59 12.3478V12.5403C205.606 12.9882 205.79 13.3811 206.124 13.6757C206.657 14.1472 207.529 14.3436 208.576 14.2375C211.896 13.88 217.31 12.0453 221.065 10.4464C221.065 12.0414 221.05 13.4832 221.042 14.2415C221.042 14.5204 221.038 14.709 221.038 14.7797C221.038 15.0743 221.25 15.2236 221.674 15.2236C221.948 15.2236 222.87 15.1961 223.216 14.819C223.314 14.7168 223.357 14.5911 223.345 14.4536C223.322 14.2572 223.318 13.4243 223.318 12.3439C225.017 12.3439 227.363 12.3989 228.214 12.4264C228.395 12.4264 228.936 12.4264 228.983 11.9471C229.015 11.6446 228.956 10.9885 228.87 10.6703L228.881 10.6742Z" fill="#374259"/>
<path d="M217.299 15.7383C213.701 15.7383 211.186 17.848 211.186 20.8691C211.186 23.8903 213.697 25.9725 217.299 25.9725C220.901 25.9725 223.412 23.9217 223.412 20.8691C223.412 17.8166 220.956 15.7383 217.299 15.7383ZM217.299 23.9649C214.976 23.9649 213.414 22.7195 213.414 20.8691C213.414 19.0187 214.976 17.7458 217.299 17.7458C219.622 17.7458 221.183 18.9991 221.183 20.8691C221.183 22.7392 219.622 23.9649 217.299 23.9649Z" fill="#374259"/>
<defs>
<clipPath id="clip0_88755_2061">
<rect width="28" height="26" fill="white"/>
</clipPath>
</defs>
</svg>
