<svg width="229" height="27" viewBox="0 0 229 27" fill="none" xmlns="http://www.w3.org/2000/svg">
<path d="M64.1517 9.30916C63.2061 9.41916 60.6439 9.47023 59.0037 9.47416C59.0037 6.99124 59.0037 4.47295 59.0312 3.70293V3.58507C59.0626 2.96434 59.0861 2.33968 59.1136 1.99003C59.1528 1.67573 59.0391 1.52644 58.7958 1.35358C58.4544 1.165 57.5873 1 57.14 1C56.9791 1 56.7476 1.01964 56.626 1.17679C56.575 1.24358 56.52 1.36144 56.5632 1.5343C56.673 2.10396 56.6966 3.29042 56.7241 4.43759C56.7515 5.62406 56.7515 15.2768 56.7241 15.9211C56.7241 16.2158 56.9359 16.3651 57.3597 16.3651C57.6344 16.3651 58.5564 16.3376 58.9017 15.9604C58.9959 15.8583 59.043 15.7325 59.0351 15.6029C59.0077 15.265 59.0077 13.5011 59.0077 11.4267C60.7341 11.4267 63.2335 11.4817 64.1791 11.5092C64.3596 11.5092 64.9011 11.5092 64.9482 11.0299C64.9796 10.7235 64.9207 10.0674 64.8344 9.75703C64.7559 9.44273 64.497 9.26594 64.1556 9.30916H64.1517Z" fill="#374259"/>
<path d="M53.0553 16.8758C49.4886 16.8758 46.9971 18.9541 46.9971 21.9241C46.9971 24.8942 49.4886 26.9725 53.0553 26.9725C56.622 26.9725 59.0861 24.9414 59.0861 21.9241C59.0861 18.9069 56.6612 16.8758 53.0553 16.8758ZM53.0553 24.9649C50.7638 24.9649 49.2257 23.7549 49.2257 21.9516C49.2257 20.1484 50.7638 18.8833 53.0553 18.8833C55.3468 18.8833 56.8574 20.117 56.8574 21.9516C56.8574 23.7863 55.3311 24.9649 53.0553 24.9649Z" fill="#374259"/>
<path d="M52.3884 6.91266C52.4983 6.61801 52.4276 6.28014 52.1922 5.96192C51.8352 5.47869 51.176 5.15654 50.6306 5.1919C49.5005 5.27047 43.1441 5.30583 41.7669 5.1919C41.4137 5.15261 41.2058 5.31762 41.1665 5.6712C41.1391 6.02085 41.194 6.57086 41.2882 6.85373C41.402 7.15624 41.6178 7.30946 41.9434 7.30946C43.1323 7.25838 47.5858 7.20338 49.7752 7.22303C48.3705 10.4092 44.7999 13.6071 40.3779 15.6265C40.1542 15.7286 40.064 15.8818 40.0287 15.9918C39.9698 16.1726 40.0012 16.3886 40.1267 16.6204C40.3582 17.0015 40.8173 17.304 41.3078 17.304C41.449 17.304 41.5942 17.2804 41.7355 17.2215C45.7377 15.7561 50.8189 11.4935 52.3923 6.90873L52.3884 6.91266Z" fill="#374259"/>
<path d="M91.2647 11.2303C90.4015 11.3285 88.1492 11.3913 86.3836 11.3953C86.3639 10.527 86.3639 9.59986 86.3836 8.69233C88.0825 8.69233 90.4328 8.74733 91.2843 8.77483C91.4648 8.77483 92.0063 8.77483 92.0533 8.29553C92.0847 7.99303 92.0259 7.33694 91.9396 7.02264C91.8611 6.70835 91.6021 6.53549 91.2608 6.57477C90.3975 6.67299 88.1492 6.73192 86.3836 6.73585C86.3836 5.36474 86.3836 4.19792 86.411 3.70684V3.58898C86.4424 2.96825 86.466 2.34359 86.4934 1.99393C86.5327 1.67964 86.4189 1.53035 86.1756 1.35749C85.8342 1.16891 84.9671 1.00391 84.5198 1.00391C84.3589 1.00391 84.1274 1.02355 84.0058 1.1807C83.9548 1.24748 83.8998 1.36534 83.943 1.53821C84.0529 2.10787 84.0764 3.29433 84.1039 4.43364C84.1039 4.60258 84.1039 4.94437 84.1117 5.41188C84.1196 6.37048 84.1313 7.84374 84.1313 9.37985C80.5058 11.0338 74.5574 12.9589 71.132 13.23C70.9869 13.2457 70.9515 13.2182 70.9515 13.2182C70.9515 13.2182 70.9398 13.1985 70.9398 13.1317C70.8613 12.3578 70.775 6.5512 70.8299 5.72225C70.8299 5.42367 70.7514 5.27438 70.516 5.1133C70.2021 4.92473 69.3938 4.7833 68.8798 4.7833C68.7346 4.7833 68.5267 4.79901 68.3972 4.9483C68.3148 5.03866 68.2834 5.16045 68.303 5.30974C68.4874 6.73978 68.5934 11.0378 68.6522 13.3517V13.5443C68.6679 13.9921 68.8523 14.385 69.1859 14.6796C69.7195 15.1511 70.5906 15.3475 71.6382 15.2414C74.9577 14.8839 80.3724 13.0492 84.1274 11.4503C84.1274 13.0453 84.1117 14.4871 84.1039 15.2454C84.1039 15.5243 84.1 15.7129 84.1 15.7836C84.1 16.0782 84.3118 16.2275 84.7356 16.2275C85.0103 16.2275 85.9323 16.2 86.2776 15.8229C86.3718 15.7207 86.4189 15.595 86.4071 15.4575C86.3836 15.2611 86.3796 14.4282 86.3796 13.3478C88.0786 13.3478 90.425 13.4028 91.2764 13.4303C91.4569 13.4303 91.9984 13.4303 92.0455 12.951C92.0769 12.6485 92.018 11.9924 91.9317 11.6742C91.8532 11.3599 91.5943 11.187 91.2529 11.2263L91.2647 11.2303Z" fill="#374259"/>
<path d="M80.3605 16.7383C76.7624 16.7383 74.2473 18.848 74.2473 21.8691C74.2473 24.8903 76.7585 26.9725 80.3605 26.9725C83.9625 26.9725 86.4736 24.9217 86.4736 21.8691C86.4736 18.8166 84.0174 16.7383 80.3605 16.7383ZM80.3605 24.9649C78.0376 24.9649 76.476 23.7195 76.476 21.8691C76.476 20.0187 78.0376 18.7458 80.3605 18.7458C82.6833 18.7458 84.245 19.9991 84.245 21.8691C84.245 23.7392 82.6833 24.9649 80.3605 24.9649Z" fill="#374259"/>
<path d="M106.516 17.0958C102.714 17.0958 100.16 19.0798 100.16 22.0341C100.16 24.9885 102.714 27 106.516 27C110.318 27 112.873 25.0042 112.873 22.0341C112.873 19.0641 110.318 17.0958 106.516 17.0958ZM106.516 25.0474C104.025 25.0474 102.412 23.8649 102.412 22.0341C102.412 20.2034 104.021 19.0483 106.516 19.0483C109.012 19.0483 110.62 20.2191 110.62 22.0341C110.62 23.8492 109.012 25.0474 106.516 25.0474Z" fill="#374259"/>
<path d="M99.2103 4.8501C99.3162 5.17225 99.5516 5.34119 99.893 5.34119C100.897 5.31761 109.118 5.26261 111.017 5.28226C110.895 6.85373 110.522 9.12843 110.052 11.1478C109.993 11.3521 109.973 11.7174 110.53 11.8824C110.679 11.9374 110.872 11.9689 111.072 11.9689C111.291 11.9689 111.523 11.9296 111.723 11.8274C111.951 11.7135 112.108 11.5367 112.178 11.3167C112.747 9.4938 113.179 6.75158 113.336 4.97189C113.363 4.66938 113.198 4.30402 112.877 3.96615C112.563 3.63221 112.045 3.28256 111.546 3.30613C110.295 3.33363 101.808 3.36113 99.583 3.25113C99.2338 3.25113 99.0298 3.44363 99.0298 3.77757C99.0298 4.29223 99.1632 4.73224 99.2024 4.85403L99.2103 4.8501Z" fill="#374259"/>
<path d="M118.766 12.79C118.146 12.845 116.785 12.9 115.38 12.9275C114.709 12.955 110.436 12.955 106.245 12.955C106.245 11.4974 106.245 9.44272 106.3 8.59806C106.3 8.36233 106.3 8.15804 105.967 7.95375C105.641 7.80446 104.903 7.63553 104.433 7.63553C104.225 7.63553 104.076 7.69053 103.981 7.7966C103.895 7.89482 103.864 8.02447 103.883 8.18162C103.958 8.8377 103.989 11.3717 103.993 12.955C101.761 12.955 99.7516 12.9392 98.5706 12.9314C98.0723 12.9314 97.7073 12.9314 97.5661 12.9275C96.1457 12.9 94.7724 12.845 94.1603 12.79C93.6541 12.735 93.5521 13.0807 93.5325 13.2339C93.4736 13.6857 93.5639 14.3221 93.6502 14.55C93.7797 14.9822 94.1132 14.99 94.329 14.99H94.3408C95.0392 14.9625 96.2987 14.935 96.9344 14.935C97.6053 14.935 99.0414 14.935 100.85 14.935C106.253 14.9272 115.297 14.9193 116.514 14.935C116.863 14.935 117.283 14.9429 117.695 14.9507C118.091 14.9586 118.48 14.9625 118.79 14.9625C119.048 14.9625 119.484 14.9625 119.531 14.4832C119.563 14.1846 119.504 13.5521 119.417 13.2378C119.335 12.9157 119.1 12.7507 118.77 12.79H118.766Z" fill="#374259"/>
<path d="M146.04 11.2303C145.177 11.3285 142.924 11.3913 141.159 11.3953C141.139 10.527 141.139 9.59986 141.159 8.69233C142.858 8.69233 145.208 8.74733 146.059 8.77483C146.24 8.77483 146.781 8.77483 146.828 8.29553C146.86 7.99303 146.801 7.33694 146.715 7.02264C146.636 6.70835 146.381 6.53549 146.036 6.57477C145.173 6.67299 142.924 6.73192 141.163 6.73585C141.163 5.36474 141.163 4.19792 141.19 3.70684V3.58898C141.221 2.96825 141.245 2.34359 141.272 1.99393C141.312 1.67964 141.198 1.53035 140.951 1.35749C140.609 1.16891 139.742 1.00391 139.295 1.00391C139.134 1.00391 138.903 1.02355 138.781 1.1807C138.73 1.24748 138.675 1.36534 138.718 1.53821C138.824 2.10394 138.852 3.2904 138.879 4.43364C138.879 4.60258 138.879 4.94437 138.887 5.41188C138.895 6.37048 138.906 7.84374 138.906 9.37985C135.281 11.0338 129.333 12.9589 125.907 13.23C125.762 13.2457 125.727 13.2182 125.727 13.2182C125.727 13.2182 125.715 13.1985 125.715 13.1317C125.636 12.3578 125.55 6.5512 125.605 5.72225C125.605 5.42367 125.527 5.27438 125.291 5.1133C124.977 4.92473 124.169 4.7833 123.655 4.7833C123.51 4.7833 123.302 4.79901 123.172 4.9483C123.09 5.03866 123.059 5.16045 123.078 5.30974C123.263 6.73978 123.372 11.0378 123.427 13.3517V13.5443C123.443 13.9921 123.627 14.385 123.961 14.6796C124.495 15.1511 125.366 15.3475 126.413 15.2414C129.737 14.8839 135.148 13.0492 138.903 11.4503C138.903 13.0453 138.887 14.4871 138.879 15.2454C138.879 15.5243 138.875 15.7129 138.875 15.7836C138.875 16.0782 139.087 16.2275 139.511 16.2275C139.785 16.2275 140.707 16.2 141.053 15.8229C141.151 15.7207 141.194 15.595 141.182 15.4575C141.159 15.2611 141.155 14.4282 141.155 13.3478C142.854 13.3478 145.2 13.4028 146.052 13.4303C146.232 13.4303 146.774 13.4303 146.821 12.951C146.852 12.6485 146.793 11.9924 146.707 11.6742C146.628 11.3599 146.369 11.187 146.028 11.2263L146.04 11.2303Z" fill="#374259"/>
<path d="M135.136 16.7383C131.538 16.7383 129.022 18.848 129.022 21.8691C129.022 24.8903 131.534 26.9725 135.136 26.9725C138.738 26.9725 141.249 24.9217 141.249 21.8691C141.249 18.8166 138.793 16.7383 135.136 16.7383ZM135.136 24.9649C132.813 24.9649 131.251 23.7195 131.251 21.8691C131.251 20.0187 132.813 18.7458 135.136 18.7458C137.458 18.7458 139.02 19.9991 139.02 21.8691C139.02 23.7392 137.458 24.9649 135.136 24.9649Z" fill="#374259"/>
<path d="M154.668 5.34119C155.673 5.31761 163.889 5.26261 165.792 5.28226C165.67 6.85373 165.298 9.12843 164.827 11.1478C164.764 11.3521 164.748 11.7174 165.305 11.8824C165.454 11.9374 165.647 11.9689 165.847 11.9689C166.067 11.9689 166.298 11.9296 166.498 11.8274C166.726 11.7135 166.883 11.5367 166.953 11.3167C167.522 9.4938 167.954 6.75158 168.111 4.97189C168.138 4.66938 167.974 4.30402 167.652 3.96615C167.338 3.63221 166.824 3.29434 166.322 3.30613C165.07 3.33363 156.583 3.36113 154.358 3.25113C154.009 3.25113 153.805 3.44363 153.805 3.77757C153.805 4.29223 153.938 4.73224 153.978 4.85403C154.084 5.17618 154.319 5.34512 154.66 5.34512L154.668 5.34119Z" fill="#374259"/>
<path d="M173.541 12.79C172.921 12.845 171.56 12.9 170.155 12.9275C169.484 12.955 165.211 12.955 161.021 12.955C161.021 11.4974 161.021 9.44272 161.075 8.59806C161.075 8.36233 161.075 8.15804 160.742 7.95375C160.416 7.80446 159.679 7.63553 159.208 7.63553C159 7.63553 158.851 7.69053 158.757 7.7966C158.67 7.89482 158.639 8.02447 158.658 8.18162C158.733 8.8377 158.764 11.3717 158.768 12.955C156.536 12.955 154.527 12.9392 153.346 12.9314C152.847 12.9314 152.49 12.9392 152.341 12.9275C150.921 12.9 149.548 12.845 148.935 12.79C148.425 12.731 148.327 13.0807 148.308 13.2339C148.249 13.6857 148.339 14.3221 148.425 14.55C148.555 14.9822 148.888 14.99 149.1 14.99H149.112C149.81 14.9625 151.07 14.935 151.706 14.935C152.377 14.935 153.813 14.935 155.621 14.935C161.024 14.9272 170.069 14.9193 171.285 14.935C171.634 14.935 172.054 14.9429 172.466 14.9507C172.862 14.9586 173.251 14.9625 173.561 14.9625C173.82 14.9625 174.255 14.9625 174.302 14.4832C174.334 14.1846 174.275 13.5521 174.189 13.2378C174.106 12.9157 173.871 12.7507 173.541 12.79Z" fill="#374259"/>
<path d="M161.291 17.0958C157.489 17.0958 154.935 19.0798 154.935 22.0341C154.935 24.9885 157.489 27 161.291 27C165.093 27 167.648 25.0042 167.648 22.0341C167.648 19.0641 165.093 17.0958 161.291 17.0958ZM161.291 25.0474C158.8 25.0474 157.187 23.8649 157.187 22.0341C157.187 20.2034 158.796 19.0483 161.291 19.0483C163.787 19.0483 165.395 20.2191 165.395 22.0341C165.395 23.8492 163.783 25.0474 161.291 25.0474Z" fill="#374259"/>
<path d="M200.815 11.2303C199.952 11.3285 197.7 11.3913 195.934 11.3953C195.914 10.527 195.914 9.59986 195.934 8.69233C197.633 8.69233 199.983 8.74733 200.835 8.77483C201.015 8.77483 201.557 8.77483 201.604 8.29553C201.635 7.99303 201.576 7.33694 201.49 7.02264C201.412 6.70835 201.157 6.53549 200.811 6.57477C199.948 6.67299 197.7 6.73192 195.938 6.73585C195.938 5.36474 195.938 4.19792 195.965 3.70684V3.58898C195.997 2.96825 196.02 2.34359 196.048 1.99393C196.087 1.67964 195.973 1.53035 195.726 1.35749C195.385 1.16891 194.518 1.00391 194.07 1.00391C193.909 1.00391 193.678 1.02355 193.556 1.1807C193.505 1.24748 193.45 1.36534 193.494 1.53821C193.599 2.10394 193.627 3.2904 193.654 4.43364C193.654 4.60258 193.654 4.94437 193.662 5.41188C193.67 6.37048 193.682 7.84374 193.682 9.37985C190.056 11.0338 184.108 12.9589 180.683 13.23C180.533 13.2457 180.502 13.2182 180.502 13.2182C180.502 13.2182 180.49 13.1985 180.49 13.1317C180.412 12.3578 180.326 6.5512 180.38 5.72225C180.38 5.42367 180.302 5.27438 180.067 5.1133C179.753 4.92473 178.944 4.7833 178.43 4.7833C178.285 4.7833 178.077 4.79901 177.948 4.9483C177.865 5.03866 177.834 5.16045 177.854 5.30974C178.038 6.73978 178.148 11.0378 178.203 13.3517V13.5443C178.218 13.9921 178.403 14.385 178.736 14.6796C179.27 15.1511 180.141 15.3475 181.189 15.2414C184.508 14.8839 189.923 13.0492 193.678 11.4503C193.678 13.0453 193.662 14.4871 193.654 15.2454C193.654 15.5243 193.65 15.7129 193.65 15.7836C193.65 16.0782 193.862 16.2275 194.286 16.2275C194.561 16.2275 195.483 16.2 195.828 15.8229C195.926 15.7207 195.969 15.595 195.958 15.4575C195.934 15.2611 195.93 14.4282 195.93 13.3478C197.629 13.3478 199.976 13.4028 200.827 13.4303C201.007 13.4303 201.549 13.4303 201.596 12.951C201.627 12.6485 201.569 11.9924 201.482 11.6742C201.404 11.3599 201.145 11.187 200.803 11.2263L200.815 11.2303Z" fill="#374259"/>
<path d="M189.911 16.7383C186.313 16.7383 183.798 18.848 183.798 21.8691C183.798 24.8903 186.309 26.9725 189.911 26.9725C193.513 26.9725 196.024 24.9217 196.024 21.8691C196.024 18.8166 193.568 16.7383 189.911 16.7383ZM189.911 24.9649C187.588 24.9649 186.027 23.7195 186.027 21.8691C186.027 20.0187 187.588 18.7458 189.911 18.7458C192.234 18.7458 193.796 19.9991 193.796 21.8691C193.796 23.7392 192.234 24.9649 189.911 24.9649Z" fill="#374259"/>
<path d="M228.881 11.6742C228.803 11.3599 228.544 11.1871 228.203 11.2264C227.339 11.3246 225.087 11.3874 223.322 11.3914C223.302 10.5231 223.302 9.59595 223.322 8.68843C225.021 8.68843 227.371 8.74343 228.222 8.77093C228.403 8.77093 228.944 8.77093 228.991 8.29163C229.023 7.98912 228.964 7.33303 228.878 7.01874C228.799 6.70444 228.544 6.53158 228.199 6.57087C227.336 6.66908 225.087 6.72801 223.325 6.73194C223.325 5.36083 223.325 4.19402 223.353 3.70293V3.58507C223.384 2.96434 223.408 2.33968 223.435 1.99003C223.475 1.67573 223.361 1.52644 223.114 1.35358C222.772 1.165 221.905 1 221.458 1C221.297 1 221.065 1.01964 220.944 1.17679C220.893 1.24358 220.838 1.36144 220.881 1.5343C220.987 2.10003 221.014 3.28649 221.042 4.42974C221.042 4.59867 221.042 4.94047 221.05 5.40798C221.058 6.36658 221.069 7.83983 221.069 9.37594C217.444 11.0299 211.495 12.955 208.07 13.2261C207.921 13.2418 207.89 13.2143 207.89 13.2143C207.89 13.2143 207.878 13.1946 207.878 13.1278C207.799 12.3539 207.713 6.5473 207.768 5.71834C207.768 5.41976 207.689 5.27047 207.454 5.1094C207.14 4.92082 206.332 4.77939 205.818 4.77939C205.673 4.77939 205.465 4.7951 205.335 4.94439C205.253 5.03475 205.221 5.15654 205.241 5.30583C205.425 6.73587 205.535 11.0338 205.59 13.3478V13.5403C205.606 13.9882 205.79 14.3811 206.124 14.6757C206.657 15.1472 207.529 15.3436 208.576 15.2375C211.896 14.88 217.31 13.0453 221.065 11.4464C221.065 13.0414 221.05 14.4832 221.042 15.2415C221.042 15.5204 221.038 15.709 221.038 15.7797C221.038 16.0743 221.25 16.2236 221.674 16.2236C221.948 16.2236 222.87 16.1961 223.216 15.819C223.314 15.7168 223.357 15.5911 223.345 15.4536C223.322 15.2572 223.318 14.4243 223.318 13.3439C225.017 13.3439 227.363 13.3989 228.214 13.4264C228.395 13.4264 228.936 13.4264 228.983 12.9471C229.015 12.6446 228.956 11.9885 228.87 11.6703L228.881 11.6742Z" fill="#374259"/>
<path d="M217.299 16.7383C213.701 16.7383 211.186 18.848 211.186 21.8691C211.186 24.8903 213.697 26.9725 217.299 26.9725C220.901 26.9725 223.412 24.9217 223.412 21.8691C223.412 18.8166 220.956 16.7383 217.299 16.7383ZM217.299 24.9649C214.976 24.9649 213.414 23.7195 213.414 21.8691C213.414 20.0187 214.976 18.7458 217.299 18.7458C219.622 18.7458 221.183 19.9991 221.183 21.8691C221.183 23.7392 219.622 24.9649 217.299 24.9649Z" fill="#374259"/>
<path d="M14 27C20.5216 26.987 25.2195 21.0993 25.3133 16.7654C25.4109 12.3324 28 12.7786 28 8.6795C28 4.58045 20.0921 0 17.568 0C17.3532 0 17.1502 0.0052184 16.9562 0.0156552C16.3926 0.045661 15.838 0.150029 15.303 0.330064C14.9997 0.431823 14.5441 0.542714 14 0.542714C13.4962 0.542714 13.068 0.447478 12.7673 0.352242C12.1828 0.168293 11.5814 0.0404426 10.9696 0.0117414C10.7978 0.0039138 10.6194 0 10.432 0C7.90795 0 0 4.58045 0 8.6795C0 12.7786 2.58912 12.3311 2.68675 16.7654C2.78178 21.0993 7.47968 26.987 14 27Z" fill="#EFEDEE"/>
<path d="M14.1497 24.3986H15.8211C18.5716 24.3986 22.2321 22.2147 22.2321 19.4581C22.2321 16.7015 18.2124 14.6233 17.1124 13.6057C16.7245 13.2456 16.2402 12.9795 15.7768 12.7851C14.7394 12.348 13.5613 12.348 12.5238 12.7851C12.0604 12.9795 11.5775 13.2469 11.1883 13.6057C10.0883 14.6233 6.0686 16.7015 6.0686 19.4581C6.0686 22.2147 9.72904 24.3986 12.4796 24.3986H14.151H14.1497Z" fill="#F2D8D8"/>
<path d="M14.7628 26.5212C8.24119 26.5082 3.54328 20.6205 3.44956 16.2866C3.35193 11.8536 0.762808 12.2998 0.762808 8.20071C0.762808 5.92418 3.20353 3.49893 5.80437 1.79251C2.93798 3.50284 0 6.18118 0 8.67949C0 12.7785 2.58912 12.3311 2.68675 16.7654C2.78178 21.0993 7.47968 26.9869 14 27C16.3483 26.9948 18.4584 26.2264 20.204 25.0444C18.6185 25.9511 16.7779 26.5186 14.7615 26.5225L14.7628 26.5212Z" fill="#D3D3D8"/>
<path d="M8.51714 20.6388C8.51714 17.8822 12.5369 15.8039 13.6368 14.7863C14.0247 14.4263 14.509 14.1601 14.9724 13.9657C15.6792 13.6683 16.4498 13.5744 17.197 13.6813C17.1671 13.6553 17.1371 13.6305 17.1111 13.6057C16.7232 13.2456 16.2389 12.9795 15.7755 12.7851C14.7381 12.348 13.56 12.348 12.5225 12.7851C12.0591 12.9795 11.5762 13.2469 11.1883 13.6057C10.0883 14.6233 6.0686 16.7015 6.0686 19.4581C6.0686 21.6342 8.34922 23.4515 10.6624 24.1221C9.41923 23.2336 8.51844 22.0073 8.51844 20.6401L8.51714 20.6388Z" fill="#E2AFAF"/>
<path d="M10.7656 7.93922C12.0677 7.76116 12.9478 6.32798 12.7313 4.73814C12.5149 3.14829 11.2838 2.00382 9.98172 2.18188C8.6796 2.35995 7.79949 3.79313 8.01595 5.38297C8.2324 6.97282 9.46345 8.11729 10.7656 7.93922Z" fill="#F2D8D8"/>
<path d="M6.03145 12.3902C7.2557 11.9114 7.77627 10.3114 7.19417 8.81666C6.61207 7.3219 5.14774 6.49834 3.92349 6.97721C2.69924 7.45607 2.17867 9.05602 2.76077 10.5508C3.34287 12.0456 4.8072 12.8691 6.03145 12.3902Z" fill="#F2D8D8"/>
<path d="M20.2826 5.38277C20.4991 3.79293 19.619 2.35976 18.3168 2.18169C17.0147 2.00362 15.7837 3.14809 15.5672 4.73794C15.3508 6.32778 16.2309 7.76096 17.533 7.93903C18.8351 8.11709 20.0662 6.97262 20.2826 5.38277Z" fill="#F2D8D8"/>
<path d="M25.5365 10.5491C26.1186 9.05435 25.598 7.45441 24.3737 6.97555C23.1495 6.49668 21.6852 7.32023 21.1031 8.815C20.521 10.3098 21.0415 11.9097 22.2658 12.3886C23.49 12.8674 24.9544 12.0439 25.5365 10.5491Z" fill="#F2D8D8"/>
<path d="M10.7651 7.93847C11.4394 7.84585 11.9979 7.41663 12.3519 6.80478C12.0603 7.04352 11.7167 7.20529 11.3366 7.25747C10.0336 7.4362 8.80344 6.29077 8.58605 4.70176C8.48191 3.93466 8.63422 3.20539 8.96485 2.63397C8.25802 3.21321 7.86099 4.25689 8.0133 5.38146C8.22938 6.97046 9.46081 8.1159 10.7638 7.93717L10.7651 7.93847Z" fill="#E2AFAF"/>
<path d="M7.10338 11.4205C6.95238 11.5379 6.78837 11.637 6.60482 11.7088C5.3799 12.1876 3.91547 11.3644 3.3336 9.87061C2.97302 8.94565 3.03681 7.98155 3.42602 7.26663C2.57079 7.93589 2.26619 9.28093 2.76215 10.5516C3.34401 12.0467 4.80845 12.8699 6.03337 12.3898C6.50068 12.2072 6.86386 11.8614 7.10338 11.4205Z" fill="#E2AFAF"/>
<path d="M17.5342 7.9385C18.435 8.06113 19.3019 7.55103 19.8226 6.69913C19.3358 7.12313 18.7292 7.3436 18.1056 7.2588C16.8026 7.08007 15.9227 5.64762 16.1388 4.05862C16.2051 3.5694 16.3692 3.12192 16.6009 2.74228C16.0698 3.20411 15.6805 3.9099 15.5673 4.73832C15.3512 6.32732 16.2312 7.76107 17.5342 7.9385Z" fill="#E2AFAF"/>
<path d="M22.8386 11.7088C21.6137 11.23 21.093 9.62926 21.6749 8.13549C21.7595 7.91893 21.8636 7.71802 21.9821 7.53146C21.615 7.86153 21.3052 8.29726 21.1034 8.81519C20.5216 10.3103 21.0423 11.9097 22.2672 12.3885C23.3138 12.7981 24.5348 12.2541 25.2312 11.153C24.54 11.7753 23.6392 12.0206 22.8386 11.7075V11.7088Z" fill="#E2AFAF"/>
</svg>
