<svg width="24" height="24" viewBox="0 0 24 24" fill="none" xmlns="http://www.w3.org/2000/svg">
<g clip-path="url(#clip0_88902_1845)">
<path d="M21.9794 21.8137C21.6273 19.6757 21.2674 17.505 20.8791 15.1757C20.7725 14.5358 20.4494 14.2617 19.7983 14.2599C19.5236 14.2587 19.249 14.2593 18.9749 14.2587H18.8926C18.7559 14.2587 18.6198 14.2587 18.483 14.2587C18.6932 13.9125 18.8861 13.5591 19.0578 13.2046C19.9273 11.4087 20.2398 9.72473 20.0131 8.0569C19.7047 5.78784 18.5274 3.81612 16.6984 2.5064C14.8594 1.18894 12.6066 0.71344 10.3555 1.16809C8.21401 1.60069 6.38087 2.85737 5.1935 4.70754C4.00673 6.55711 3.62258 8.75407 4.1109 10.8944C4.37193 12.0373 4.8277 13.1414 5.50189 14.2599C5.26867 14.2599 5.03605 14.2599 4.80758 14.2599H4.33228C3.4817 14.2599 3.21002 14.4952 3.07033 15.3551C2.65777 17.8875 2.33932 19.8265 2.03922 21.6403C1.97885 22.005 1.95635 22.3821 2.19904 22.6705C2.44231 22.9601 2.81817 23.0001 3.18752 23.0001H18.3966C19.2359 23.0001 20.0759 23.0001 20.9158 22.9995C21.3064 22.9995 21.6012 22.8839 21.7918 22.6574C21.9729 22.4417 22.0363 22.1581 21.98 21.8143L21.9794 21.8137ZM17.3602 12.4222C16.5303 14.0978 15.2702 15.6447 13.395 17.2905C12.9866 17.6492 12.5267 18.0126 11.9928 18.4006C9.45406 16.5218 7.74759 14.6222 6.62711 12.4294C6.06006 11.3193 5.77061 10.1806 5.76706 9.04604C5.77357 5.92608 8.10273 3.29652 11.186 2.92947C11.4618 2.8967 11.7347 2.88061 12.0028 2.88061C15.0506 2.88061 17.5632 4.95125 18.1303 8.05214C18.3836 9.43634 18.1314 10.8658 17.3602 12.4228V12.4222ZM6.83309 16.1184C6.83842 16.1232 6.84848 16.1333 6.86505 16.1529C8.1347 17.6754 9.64584 19.0501 11.357 20.24C11.7779 20.5326 12.2041 20.5332 12.6231 20.2424C14.3326 19.056 15.8443 17.6813 17.1163 16.1571C17.1347 16.1351 17.1465 16.1232 17.1524 16.1172C17.156 16.1172 17.1601 16.1172 17.1649 16.1172C17.8148 16.1285 18.4854 16.1297 19.159 16.1196C19.4544 17.962 19.7249 19.6018 19.9835 21.1189C17.8521 21.1165 15.7212 21.1171 13.5897 21.1171H11.9791C11.3653 21.1171 10.7515 21.1171 10.1377 21.1171C8.23828 21.1159 6.09439 21.1153 3.99962 21.1237C4.2571 19.6131 4.52109 18.0138 4.82534 16.1184C5.49301 16.138 6.14707 16.1297 6.81237 16.1184C6.82243 16.1184 6.82895 16.1184 6.83309 16.1184Z" fill="#374259"/>
<path d="M11.9968 4.60321H11.9897C9.51255 4.60321 7.49355 6.63154 7.49 9.12524C7.48585 11.6249 9.49657 13.6628 11.9719 13.6681H11.982C14.4603 13.6681 16.4846 11.6487 16.4941 9.16636C16.4988 7.94543 16.033 6.79898 15.1818 5.93736C14.3336 5.07871 13.2025 4.605 11.9962 4.60321H11.9968ZM14.6391 9.1461C14.6367 9.86054 14.3597 10.5297 13.8583 11.0308C13.3605 11.5284 12.7006 11.8019 11.9997 11.8019C11.9944 11.8019 11.9891 11.8019 11.9838 11.8019C10.5241 11.7959 9.34089 10.5964 9.34563 9.12822C9.35037 7.66179 10.5383 6.46947 11.9944 6.46947H12.0015C12.7077 6.47125 13.3712 6.75071 13.8696 7.25661C14.3686 7.7625 14.642 8.43344 14.6397 9.14669L14.6391 9.1461Z" fill="#374259"/>
</g>
<defs>
<clipPath id="clip0_88902_1845">
<rect width="20" height="22" fill="white" transform="translate(2 1)"/>
</clipPath>
</defs>
</svg>
