<svg width="67" height="65" viewBox="0 0 67 65" fill="none" xmlns="http://www.w3.org/2000/svg">
<g clip-path="url(#clip0_88781_1604)">
<path d="M41.89 0C41.38 0 40.89 0.01 40.43 0.04C39.09 0.11 37.76 0.36 36.49 0.79C35.77 1.03 34.68 1.3 33.38 1.3C32.18 1.3 31.16 1.07 30.44 0.85C29.05 0.41 27.61 0.11 26.15 0.04C25.74 0.02 25.32 0.01 24.87 0.01C18.86 0 0 10.9 0 20.65C0 30.4 6.17 29.34 6.41 39.89C6.64 50.2 17.84 64.21 33.39 64.24C48.94 64.21 60.14 50.2 60.37 39.89C60.6 29.34 66.78 30.41 66.78 20.65C66.78 10.89 47.91 0 41.89 0ZM37.12 11.27C37.64 7.49 40.57 4.77 43.68 5.19C46.79 5.61 48.88 9.02 48.37 12.81C47.85 16.59 44.92 19.31 41.81 18.89C38.7 18.47 36.61 15.06 37.12 11.27ZM23.8 5.19C26.91 4.77 29.84 7.49 30.36 11.27C30.88 15.05 28.78 18.46 25.67 18.89C22.56 19.31 19.63 16.59 19.11 12.81C18.59 9.03 20.69 5.62 23.8 5.19ZM6.58 25.1C5.19 21.54 6.43 17.74 9.35 16.6C12.27 15.46 15.76 17.42 17.15 20.97C18.54 24.53 17.3 28.33 14.38 29.47C11.46 30.61 7.97 28.65 6.58 25.1ZM37.72 58.05H29.75C23.19 58.05 14.46 52.85 14.46 46.3C14.46 39.75 24.05 34.8 26.67 32.38C27.6 31.52 28.75 30.89 29.85 30.43C32.32 29.39 35.13 29.39 37.61 30.43C38.71 30.89 39.87 31.53 40.79 32.38C43.41 34.8 53 39.75 53 46.3C53 52.85 44.27 58.05 37.71 58.05H37.72ZM53.09 29.48C50.17 28.34 48.93 24.53 50.32 20.98C51.71 17.42 55.2 15.47 58.12 16.61C61.04 17.75 62.28 21.56 60.89 25.11C59.5 28.67 56.01 30.62 53.09 29.48Z" fill="#374259"/>
</g>
<defs>
<clipPath id="clip0_88781_1604">
<rect width="66.77" height="64.24" fill="white"/>
</clipPath>
</defs>
</svg>
