<svg width="24" height="24" viewBox="0 0 24 24" fill="none" xmlns="http://www.w3.org/2000/svg">
<g clip-path="url(#clip0_88902_1837)">
<path d="M11.5209 18.4106C11.6418 18.496 11.8025 18.5711 11.9919 18.5711C12.1383 18.5711 12.3021 18.526 12.4784 18.4046C13.1007 17.9753 13.6333 17.5724 14.1067 17.1738C16.1792 15.4302 17.5784 13.7779 18.5096 11.9747C19.4179 10.2161 19.7107 8.58245 19.4054 6.9801C19.0472 5.10298 18.0038 3.47117 16.467 2.3859C14.9334 1.30243 13.0035 0.829844 11.0338 1.05471C9.23599 1.26034 7.57836 2.09609 6.3655 3.40984C5.15264 4.72298 4.48236 6.4071 4.47925 8.15436C4.48361 9.44886 4.82435 10.7404 5.49152 11.9928C6.75546 14.3653 8.67161 16.4048 11.5215 18.4112L11.5209 18.4106ZM11.9931 4.60093H11.9987C13.0097 4.60213 13.9579 4.98273 14.668 5.67237C15.3813 6.36442 15.7718 7.28674 15.7681 8.2698C15.76 10.2648 14.0638 11.8846 11.9844 11.8846H11.9757C9.90253 11.8797 8.21936 10.2425 8.22247 8.23372C8.22559 6.22973 9.91686 4.60153 11.9925 4.60153L11.9931 4.60093Z" fill="#374259"/>
<path d="M21.9794 21.9568C21.6741 20.3112 21.3539 18.5206 21.0007 16.483C20.9092 15.9533 20.5211 15.6568 19.9355 15.6641C19.1712 15.6761 18.4074 15.6755 17.6655 15.6641C17.0712 15.6532 16.7616 15.996 16.6601 16.1084C15.3413 17.5682 13.7722 18.8868 11.9962 20.0262C11.9949 20.0256 11.9943 20.025 11.9931 20.0244C10.2146 18.882 8.64602 17.5628 7.33038 16.1048C7.23009 15.9935 6.92485 15.6568 6.32309 15.6647C5.5737 15.6761 4.83926 15.6851 4.09672 15.6617C3.47939 15.6436 3.0832 15.9575 2.98104 16.5473C2.62783 18.582 2.32571 20.2745 2.02919 21.8738C1.99991 22.0302 1.93264 22.3963 2.20922 22.7012C2.48207 23.0012 2.88199 23.0012 3.01405 23.0012H3.0371C5.35443 22.9922 7.70165 22.9934 9.97163 22.994C10.6419 22.994 11.3122 22.994 11.9825 22.994H13.741C16.1586 22.994 18.5769 22.994 20.9945 22.9958H21.0231C21.2044 22.9958 21.5427 22.9946 21.7968 22.7144C21.9744 22.519 22.0354 22.2641 21.9787 21.9574L21.9794 21.9568Z" fill="#374259"/>
</g>
<defs>
<clipPath id="clip0_88902_1837">
<rect width="20" height="22" fill="white" transform="translate(2 1)"/>
</clipPath>
</defs>
</svg>
