<svg width="56" height="53" viewBox="0 0 56 53" fill="none" xmlns="http://www.w3.org/2000/svg">
<g clip-path="url(#clip0_88781_1606)">
<path d="M35.7901 13.74C38.9001 14.16 41.83 11.44 42.35 7.66C42.87 3.88 40.7701 0.470001 37.6601 0.0400005C34.5501 -0.379999 31.6201 2.34 31.1001 6.12C30.5801 9.9 32.6801 13.31 35.7901 13.74Z" fill="#374259"/>
<path d="M11.1399 15.83C9.7499 12.27 6.2599 10.32 3.3399 11.46C0.4199 12.59 -0.8201 16.4 0.5699 19.95C1.9599 23.51 5.4499 25.46 8.3699 24.32C11.2899 23.18 12.5299 19.37 11.1399 15.82V15.83Z" fill="#374259"/>
<path d="M19.65 13.74C22.76 13.32 24.85 9.91 24.34 6.12C23.83 2.34 20.89 -0.379999 17.79 0.0400005C14.68 0.46 12.59 3.87 13.1 7.66C13.62 11.44 16.55 14.16 19.66 13.74H19.65Z" fill="#374259"/>
<path d="M52.1099 11.45C49.1899 10.31 45.6999 12.27 44.3099 15.82C42.9199 19.37 44.1599 23.18 47.0799 24.32C49.9999 25.46 53.4899 23.5 54.8799 19.95C56.2699 16.39 55.0299 12.59 52.1099 11.45Z" fill="#374259"/>
<path d="M34.79 27.22C33.86 26.36 32.71 25.73 31.61 25.27C29.14 24.23 26.33 24.23 23.85 25.27C22.75 25.73 21.59 26.37 20.67 27.22C18.05 29.64 8.45996 34.59 8.45996 41.14C8.45996 47.69 17.19 52.89 23.75 52.89H31.72C38.28 52.89 47.01 47.69 47.01 41.14C47.01 34.59 37.42 29.64 34.8 27.22H34.79Z" fill="#374259"/>
</g>
<defs>
<clipPath id="clip0_88781_1606">
<rect width="55.45" height="52.9" fill="white"/>
</clipPath>
</defs>
</svg>
