<svg width="24" height="24" viewBox="0 0 24 24" fill="none" xmlns="http://www.w3.org/2000/svg">
<path d="M3 9L12 2L21 9V20C21 20.5304 20.7893 21.0391 20.4142 21.4142C20.0391 21.7893 19.5304 22 19 22H5C4.46957 22 3.96086 21.7893 3.58579 21.4142C3.21071 21.0391 3 20.5304 3 20V9Z" fill="#374259" stroke="#374259" stroke-width="2" stroke-linecap="round" stroke-linejoin="round"/>
<path d="M12.0001 15.391H9.62444C9.57008 15.391 9.51777 15.3684 9.47931 15.3279L8.27569 14.0631C8.23723 14.0226 8.18517 14 8.13081 14H7.37157C7.31695 14 7.2649 14.0226 7.22644 14.0631L6.06 15.2889C6.02154 15.3293 6 15.384 6 15.4414V16.2487C6 16.3058 6.02154 16.3605 6.06 16.401L6.48488 16.8475C6.56488 16.9316 6.56488 17.0682 6.48488 17.1525L6.06 17.599C6.02154 17.6395 6 17.6944 6 17.7515V18.5589C6 18.616 6.02154 18.671 6.06 18.7114L7.22618 19.9369C7.26464 19.9774 7.31695 20 7.37131 20H8.13056C8.18492 20 8.23723 19.9774 8.27569 19.9369L9.47905 18.6723C9.51751 18.6319 9.56982 18.6093 9.62418 18.6093H14.3758C14.4302 18.6093 14.4825 18.6319 14.521 18.6723L15.7243 19.9369C15.7628 19.9774 15.8151 20 15.8694 20H16.6287C16.683 20 16.7354 19.9774 16.7738 19.9369L17.94 18.7114C17.9785 18.671 18 18.616 18 18.5589V17.7515C18 17.6944 17.9785 17.6395 17.94 17.599L17.5151 17.1525C17.4351 17.0684 17.4351 16.9318 17.5151 16.8475L17.94 16.401C17.9785 16.3605 18 16.3056 18 16.2485V15.4411C18 15.384 17.9785 15.329 17.94 15.2886L16.7736 14.0631C16.7351 14.0226 16.683 14 16.6287 14H15.8694C15.8151 14 15.7628 14.0226 15.7243 14.0631L14.521 15.3277C14.4825 15.3681 14.4302 15.3907 14.3758 15.3907H12.0001V15.391Z" fill="white"/>
</svg>
