<svg width="24" height="24" viewBox="0 0 24 24" fill="none" xmlns="http://www.w3.org/2000/svg">
<path d="M3 9L12 2L21 9V20C21 20.5304 20.7893 21.0391 20.4142 21.4142C20.0391 21.7893 19.5304 22 19 22H5C4.46957 22 3.96086 21.7893 3.58579 21.4142C3.21071 21.0391 3 20.5304 3 20V9Z" stroke="#374259" stroke-width="2" stroke-linecap="round" stroke-linejoin="round"/>
<path d="M12.0001 14.391H9.62444C9.57008 14.391 9.51777 14.3684 9.47931 14.3279L8.27569 13.0631C8.23723 13.0226 8.18517 13 8.13081 13H7.37157C7.31695 13 7.2649 13.0226 7.22644 13.0631L6.06 14.2889C6.02154 14.3293 6 14.384 6 14.4414V15.2487C6 15.3058 6.02154 15.3605 6.06 15.401L6.48488 15.8475C6.56488 15.9316 6.56488 16.0682 6.48488 16.1525L6.06 16.599C6.02154 16.6395 6 16.6944 6 16.7515V17.5589C6 17.616 6.02154 17.671 6.06 17.7114L7.22618 18.9369C7.26464 18.9774 7.31695 19 7.37131 19H8.13056C8.18492 19 8.23723 18.9774 8.27569 18.9369L9.47905 17.6723C9.51751 17.6319 9.56982 17.6093 9.62418 17.6093H14.3758C14.4302 17.6093 14.4825 17.6319 14.521 17.6723L15.7243 18.9369C15.7628 18.9774 15.8151 19 15.8694 19H16.6287C16.683 19 16.7354 18.9774 16.7738 18.9369L17.94 17.7114C17.9785 17.671 18 17.616 18 17.5589V16.7515C18 16.6944 17.9785 16.6395 17.94 16.599L17.5151 16.1525C17.4351 16.0684 17.4351 15.9318 17.5151 15.8475L17.94 15.401C17.9785 15.3605 18 15.3056 18 15.2485V14.4411C18 14.384 17.9785 14.329 17.94 14.2886L16.7736 13.0631C16.7351 13.0226 16.683 13 16.6287 13H15.8694C15.8151 13 15.7628 13.0226 15.7243 13.0631L14.521 14.3277C14.4825 14.3681 14.4302 14.3907 14.3758 14.3907H12.0001V14.391Z" fill="#374259" stroke="#374259" stroke-width="0.5"/>
</svg>
