<svg width="20" height="20" viewBox="0 0 20 20" fill="none" xmlns="http://www.w3.org/2000/svg">
<path d="M10.0001 10.8333C10.4603 10.8333 10.8334 10.4602 10.8334 10C10.8334 9.53978 10.4603 9.16668 10.0001 9.16668C9.53984 9.16668 9.16675 9.53978 9.16675 10C9.16675 10.4602 9.53984 10.8333 10.0001 10.8333Z" fill="#374259" stroke="#374259" stroke-width="1.5" stroke-linecap="round" stroke-linejoin="round"/>
<path d="M10.0001 4.99999C10.4603 4.99999 10.8334 4.62689 10.8334 4.16665C10.8334 3.70642 10.4603 3.33332 10.0001 3.33332C9.53984 3.33332 9.16675 3.70642 9.16675 4.16665C9.16675 4.62689 9.53984 4.99999 10.0001 4.99999Z" fill="#374259" stroke="#374259" stroke-width="1.5" stroke-linecap="round" stroke-linejoin="round"/>
<path d="M10.0001 16.6667C10.4603 16.6667 10.8334 16.2936 10.8334 15.8333C10.8334 15.3731 10.4603 15 10.0001 15C9.53984 15 9.16675 15.3731 9.16675 15.8333C9.16675 16.2936 9.53984 16.6667 10.0001 16.6667Z" fill="#374259" stroke="#374259" stroke-width="1.5" stroke-linecap="round" stroke-linejoin="round"/>
</svg>
