<svg width="144" height="112" viewBox="0 0 144 112" fill="none" xmlns="http://www.w3.org/2000/svg">
<g clip-path="url(#clip0_88776_2241)">
<path d="M106.994 48.6607C106.994 48.6607 105.029 48.8078 103.771 48.0355C102.513 47.2631 101.761 47.1185 99.8234 45.8483C97.8893 44.5823 96.0405 45.0159 94.181 43.6489C92.321 42.2857 91.6013 39.4487 90.4427 38.0629C89.2842 36.6771 88.2272 36.7485 86.3819 34.4781C84.5367 32.2077 86.1448 27.942 86.0268 26.7882C85.9087 25.6344 84.3464 23.4011 84.5824 21.4458C84.8183 19.4905 86.1512 18.0993 87.3397 16.4026C88.5282 14.706 87.9386 10.2244 89.5493 8.46859C91.1567 6.70849 94.5579 6.23034 95.8932 4.82034C97.2285 3.41033 99.2338 1.45414 101.472 1.03354C103.711 0.612938 105.777 1.81214 108.412 0.882061C111.047 -0.0480177 113.316 0.211447 113.316 0.211447C113.316 0.211447 115.578 0.546517 117.882 2.12459C120.19 3.70317 122.494 3.07721 124.549 4.06116C126.604 5.0451 128.04 7.45277 128.969 9.15979C129.898 10.8631 133.062 12.2063 134.163 14.3219C135.265 16.4374 133.55 20.6127 134.263 22.5589C134.976 24.505 135.911 26.1938 135.633 28.1436C135.356 30.0935 133.277 31.849 132.867 32.9335C132.457 34.018 132.916 38.5588 130.551 40.273C128.185 41.9909 127.179 41.645 125.707 42.6895C124.235 43.734 122.808 46.2855 120.661 47.123C118.514 47.9605 116.839 47.0646 114.644 47.7928C112.45 48.521 111.686 48.4665 110.268 48.8879C108.851 49.3093 106.994 48.6607 106.994 48.6607Z" fill="#F0F0F0"/>
<path d="M125.336 8.42114C125.336 8.42114 129.742 4.00682 134.368 5.2325C138.994 6.45819 142.368 11.8627 143.561 15.4838C144.758 19.1053 146.542 21.5242 146.542 21.5242L146.193 24.1981C146.193 24.1981 141.556 27.5546 133.289 26.0575C125.023 24.5604 125.336 8.42114 125.336 8.42114Z" fill="#C6C6C6"/>
<path d="M99.5392 5.04405C99.5392 5.04405 96.4141 -0.358355 91.6296 -0.367276C86.8451 -0.376196 82.1977 3.97591 80.1157 7.16726C78.0337 10.3586 75.6857 12.2354 75.6857 12.2354L75.3368 14.9093C75.3368 14.9093 78.956 19.349 87.3287 20.035C95.7015 20.7209 99.5392 5.04405 99.5392 5.04405Z" fill="#C6C6C6"/>
<path d="M109.849 25.868C110.596 25.966 112.315 25.7369 113.715 24.3621C115.118 22.9878 115.208 20.4175 114.198 19.5402C113.188 18.6628 110.806 18.5375 110.806 18.5375C110.806 18.5375 108.472 18.0441 107.27 18.6313C106.069 19.2186 105.497 21.7255 106.5 23.4157C107.504 25.1058 109.106 25.7705 109.849 25.868Z" fill="#C6C6C6"/>
<path d="M111.638 33.2087C110.351 33.0399 109.601 31.9982 109.177 31.0108C108.515 31.8519 107.522 32.6687 106.235 32.5C104.183 32.2307 103.66 29.7981 103.673 28.4021C103.675 27.9747 104.031 27.628 104.46 27.6347C104.893 27.638 105.238 27.9926 105.233 28.4196C105.23 28.4421 105.27 30.8076 106.436 30.9605C107.5 31.1001 108.457 29.3848 108.709 28.7726C108.844 28.4465 109.18 28.2501 109.531 28.2961C109.882 28.3421 110.161 28.6193 110.203 28.9686C110.29 29.6254 110.771 31.5292 111.839 31.6693C113.012 31.8232 113.647 29.5463 113.653 29.5243C113.761 29.1107 114.182 28.8565 114.601 28.965C115.017 29.073 115.273 29.4961 115.165 29.9097C114.82 31.2622 113.69 33.478 111.638 33.2087Z" fill="#C6C6C6"/>
<path d="M93.747 25.5185C95.4671 12.336 105.576 2.51546 117.304 1.75833C115.216 0.498748 113.318 0.215434 113.318 0.215434C113.318 0.215434 111.046 -0.0445431 108.414 0.886092C105.779 1.81623 103.713 0.616951 101.474 1.03758C99.2354 1.4582 97.23 3.41452 95.8945 4.82462C94.5596 6.23097 91.1576 6.7129 89.55 8.47312C87.9424 10.2333 88.5288 14.7109 87.3402 16.4077C86.1516 18.1044 84.8149 19.4953 84.5827 21.4512C84.3505 23.4072 85.9091 25.6401 86.0272 26.7939C86.1453 27.9478 84.5365 32.2176 86.3824 34.4844C88.2278 36.7549 89.2892 36.6802 90.4436 38.0693C91.6022 39.4552 92.322 42.2924 94.1822 43.6557C95.5273 44.642 96.8642 44.6914 98.2323 45.1192C94.5796 39.7274 92.7987 32.7858 93.747 25.5185Z" fill="#DBDBDB"/>
<path d="M108.512 36.1C107.011 35.903 105.969 34.3569 106.191 32.6519C106.262 32.1149 106.456 31.5979 106.75 31.1667C106.983 30.8192 107.456 30.7283 107.805 30.9651C108.154 31.2019 108.246 31.6724 108.009 32.0156C107.847 32.2579 107.74 32.5457 107.7 32.8537C107.588 33.7137 108.051 34.5155 108.708 34.6016C109.364 34.6877 110.018 34.0325 110.13 33.1725C110.17 32.8645 110.141 32.5589 110.047 32.283C109.91 31.8869 110.12 31.4561 110.514 31.3206C110.908 31.1851 111.345 31.3952 111.481 31.7875C111.655 32.2838 111.71 32.8297 111.64 33.3667C111.417 35.0717 110.014 36.2971 108.512 36.1Z" fill="#C6C6C6"/>
<path d="M101.572 22.7591C101.38 22.7338 101.197 22.6335 101.069 22.4677L97.2902 17.5753C97.0341 17.2438 97.0964 16.7669 97.4289 16.5125C97.7614 16.2582 98.2406 16.3211 98.4967 16.6526L102.276 21.545C102.532 21.8765 102.469 22.3535 102.137 22.6078C101.971 22.735 101.768 22.7848 101.576 22.7596L101.572 22.7591Z" fill="#C6C6C6"/>
<path d="M97.2293 22.1893C97.0369 22.164 96.8542 22.0637 96.7262 21.8979C96.4701 21.5664 96.5323 21.0894 96.8649 20.8351L101.772 17.0823C102.104 16.828 102.584 16.8909 102.84 17.2224C103.096 17.554 103.034 18.0309 102.701 18.2852L97.794 22.038C97.6277 22.1652 97.4255 22.215 97.2331 22.1898L97.2293 22.1893Z" fill="#C6C6C6"/>
<path d="M118.642 24.9954C118.45 24.9701 118.267 24.8698 118.139 24.704C117.883 24.3724 117.945 23.8955 118.278 23.6412L123.185 19.8884C123.517 19.6341 123.997 19.6969 124.253 20.0285C124.509 20.36 124.447 20.837 124.114 21.0913L119.207 24.8441C119.041 24.9712 118.839 25.0211 118.646 24.9959L118.642 24.9954Z" fill="#C6C6C6"/>
<path d="M122.985 25.5651C122.793 25.5399 122.61 25.4395 122.482 25.2738L118.703 20.3814C118.447 20.0499 118.509 19.5729 118.842 19.3186C119.174 19.0643 119.654 19.1272 119.91 19.4587L123.689 24.3511C123.945 24.6826 123.883 25.1595 123.55 25.4139C123.384 25.541 123.182 25.5909 122.989 25.5656L122.985 25.5651Z" fill="#C6C6C6"/>
<path d="M20.6885 6.69378C20.6885 6.69378 9.14373 2.26294 6.21963 5.25262C5.08002 6.42071 4.40431 8.26319 4.39951 10.5225C5.27201 10.4151 12.0384 9.68029 17.1664 12.1842L20.6885 6.69378Z" fill="#F0F0F0"/>
<path d="M10.1047 23.1972L17.1718 12.1814C12.0402 9.68142 5.27262 10.4126 4.40056 10.5238C4.3917 14.0568 6.02304 18.6124 10.1047 23.1972Z" fill="#C6C6C6"/>
<path d="M47.7215 3.01641C47.7215 3.01641 57.6681 -4.34317 61.2819 -2.24444C62.6906 -1.42744 63.8328 0.171137 64.4388 2.34726C63.5693 2.4772 56.8527 3.57978 52.5773 7.36511L47.7215 3.01641Z" fill="#F0F0F0"/>
<path d="M62.3167 16.0893L52.5738 7.36426C56.8502 3.58218 63.5669 2.47571 64.4364 2.34574C65.3853 5.74826 65.0257 10.5752 62.3124 16.086L62.3167 16.0893Z" fill="#C6C6C6"/>
<path d="M40.4065 48.6464C55.7563 46.5545 66.7323 34.0313 64.922 20.675C63.1116 7.31876 49.2006 -1.81281 33.8507 0.279074C18.5009 2.37096 7.52493 14.8942 9.33525 28.2504C11.1456 41.6067 25.0566 50.7382 40.4065 48.6464Z" fill="#F0F0F0"/>
<path d="M20.9094 36.3383C19.9598 37.2093 19.4013 37.8206 19.3877 37.8339C19.2509 37.9863 19.071 38.0758 18.8824 38.1015C18.6486 38.1334 18.4016 38.0677 18.2135 37.8984C17.8726 37.5932 17.8439 37.0696 18.1549 36.729C18.2081 36.6683 18.8871 35.9259 20.0231 34.8995C19.2662 33.5654 18.6487 32.155 18.1867 30.6736C16.636 31.3322 15.6539 31.8789 15.6361 31.8889C15.5399 31.9441 15.4406 31.9767 15.3388 31.9906C15.0107 32.0353 14.675 31.8823 14.5031 31.577C14.2764 31.1798 14.4187 30.6711 14.8187 30.4484C14.897 30.4033 16.0148 29.7808 17.7522 29.0548C17.6102 28.4319 17.4898 27.7985 17.4023 27.153C15.7492 14.9856 24.7099 3.51247 37.9193 -0.0192849C36.5808 -0.00507224 35.2224 0.0883157 33.8535 0.274864C18.5017 2.36698 7.52554 14.8946 9.33558 28.2485C11.1456 41.6023 25.0581 50.7382 40.4099 48.646C41.7788 48.4595 43.1133 48.1897 44.4065 47.8415C34.5223 47.9385 25.6772 43.433 20.9089 36.3346L20.9094 36.3383Z" fill="#DBDBDB"/>
<path d="M22.9061 29.0706C23.3519 28.9601 23.6245 28.5064 23.5107 28.0633C23.4006 27.6197 22.9454 27.3493 22.5001 27.4635C20.6801 27.9179 19.0446 28.5152 17.7507 29.0546C17.8749 29.6033 18.0208 30.1414 18.1851 30.6731C19.4488 30.1379 21.0866 29.5287 22.9023 29.0711L22.9061 29.0706Z" fill="#DBDBDB"/>
<path d="M14.5059 31.5717C14.6778 31.877 15.0135 32.03 15.3415 31.9853C15.4433 31.9714 15.5426 31.9388 15.6388 31.8836C15.6566 31.8736 16.6386 31.327 18.1891 30.6685C18.0248 30.1367 17.8789 29.5985 17.7546 29.0498C16.0136 29.7763 14.8998 30.3982 14.8214 30.4433C14.422 30.6697 14.2792 31.1745 14.5059 31.5717Z" fill="#C6C6C6"/>
<path d="M25.396 32.8722C25.7848 32.6243 25.8997 32.1117 25.652 31.7289C25.4037 31.3423 24.8891 31.229 24.5041 31.4764C22.6763 32.6389 21.1345 33.9001 20.0295 34.8992C20.3071 35.3888 20.603 35.8721 20.9163 36.3416C21.9818 35.3632 23.5406 34.0576 25.3965 32.8759L25.396 32.8722Z" fill="#DBDBDB"/>
<path d="M18.2166 37.8944C18.4047 38.0637 18.6517 38.1294 18.8855 38.0975C19.074 38.0718 19.2539 37.9823 19.3907 37.8299C19.4005 37.8171 19.9628 37.2054 20.9124 36.3344C20.5991 35.8649 20.3037 35.3854 20.0256 34.892C18.8897 35.9183 18.2107 36.6606 18.1575 36.7213C17.8503 37.0614 17.8752 37.5854 18.2161 37.8906L18.2166 37.8944Z" fill="#C6C6C6"/>
<path d="M37.0166 25.5935C37.684 25.5025 39.0514 24.3988 39.9344 22.8107C40.818 21.2264 40.2796 18.8688 39.1948 18.3172C38.11 17.7655 36.0181 18.2265 36.0181 18.2265C36.0181 18.2265 33.8793 18.3421 32.9807 19.164C32.0821 19.986 32.1902 22.3984 33.464 23.6925C34.7372 24.983 36.3492 25.6844 37.0166 25.5935Z" fill="#C6C6C6"/>
<path d="M59.4398 25.9813C59.338 25.9952 59.2337 25.9903 59.1263 25.9629C59.0903 25.9525 55.5364 25.0878 51.3727 25.1928C50.9137 25.2057 50.5302 24.8414 50.522 24.384C50.51 23.927 50.8729 23.5451 51.3362 23.5355C55.7334 23.4254 59.3792 24.3158 59.5339 24.3521C59.979 24.4634 60.251 24.9116 60.1383 25.355C60.0538 25.6951 59.7711 25.9324 59.4431 25.9771L59.4398 25.9813Z" fill="#C6C6C6"/>
<path d="M57.6531 32.8192C57.4646 32.8449 57.2674 32.8068 57.095 32.6965C57.0656 32.6776 53.9718 30.7334 49.9905 29.5216C49.5498 29.3868 49.3027 28.9236 49.4395 28.4883C49.5759 28.0493 50.0416 27.8024 50.4823 27.9373C54.6881 29.2178 57.8616 31.2123 57.9922 31.2977C58.3788 31.5431 58.4942 32.0549 58.2469 32.4402C58.1107 32.6537 57.8902 32.7831 57.6564 32.815L57.6531 32.8192Z" fill="#C6C6C6"/>
<path d="M40.6131 31.0977C39.2332 31.2858 38.1731 30.4061 37.46 29.4791C37.0194 30.5633 36.232 31.6947 34.8521 31.8828C32.6615 32.1813 31.4298 29.7237 31.0504 28.2277C30.9366 27.7846 31.2054 27.3314 31.6512 27.221C32.0965 27.1068 32.5512 27.3735 32.6613 27.8171C32.6648 27.8434 33.3893 30.4121 34.626 30.2436C35.7835 30.0858 36.2662 27.8112 36.3349 27.2133C36.3756 26.8333 36.6728 26.5329 37.0498 26.4815C37.4268 26.4302 37.7937 26.6438 37.9335 26.9955C38.2112 27.6837 39.256 29.6127 40.3871 29.4585C41.6238 29.29 41.6382 26.6206 41.6347 26.5943C41.6264 26.1369 41.9899 25.7587 42.4532 25.749C42.9128 25.7399 43.2919 26.101 43.3002 26.5584C43.3295 28.106 42.7999 30.7997 40.6094 31.0982L40.6131 31.0977Z" fill="#C6C6C6"/>
<path d="M38.3646 36.0648C36.6791 36.2946 35.1279 34.7668 34.8329 32.5901C34.7423 31.922 34.7853 31.2473 34.9525 30.6396C35.0628 30.2347 35.4838 29.9977 35.8865 30.1072C36.293 30.2162 36.5303 30.6349 36.4195 31.036C36.3065 31.4489 36.2776 31.9154 36.3406 32.3807C36.5156 33.6718 37.3499 34.6704 38.1606 34.5599C38.9713 34.4494 39.5096 33.2638 39.3346 31.9727C39.2715 31.5074 39.1195 31.0656 38.9007 30.6979C38.6866 30.3372 38.8043 29.8739 39.1633 29.6606C39.5261 29.4468 39.9911 29.5631 40.2047 29.9201C40.5314 30.4604 40.7491 31.1034 40.8391 31.7677C41.1347 33.9482 40.0459 35.8319 38.3603 36.0616L38.3646 36.0648Z" fill="#C6C6C6"/>
<path d="M50.4753 21.2649C50.283 21.2911 50.0805 21.2422 49.9136 21.1159L44.9881 17.3877C44.6543 17.135 44.5897 16.6584 44.8441 16.3256C45.0985 15.9928 45.5774 15.9275 45.9112 16.1802L50.8368 19.9084C51.1706 20.161 51.2352 20.6377 50.9807 20.9705C50.8535 21.1369 50.6714 21.2381 50.4791 21.2644L50.4753 21.2649Z" fill="#C6C6C6"/>
<path d="M46.1352 21.8563C45.9429 21.8825 45.7404 21.8337 45.5735 21.7074C45.2398 21.4547 45.1751 20.9781 45.4296 20.6453L49.1842 15.7341C49.4386 15.4013 49.9175 15.336 50.2513 15.5887C50.5851 15.8413 50.6497 16.318 50.3953 16.6508L46.6407 21.5619C46.5134 21.7283 46.3313 21.8296 46.139 21.8558L46.1352 21.8563Z" fill="#C6C6C6"/>
<path d="M22.8967 25.0197C22.7044 25.0459 22.5019 24.997 22.335 24.8707C22.0012 24.618 21.9366 24.1414 22.1911 23.8086L25.9457 18.8975C26.2001 18.5646 26.679 18.4994 27.0128 18.752C27.3466 19.0047 27.4112 19.4813 27.1567 19.8141L23.4021 24.7253C23.2749 24.8917 23.0928 24.9929 22.9005 25.0192L22.8967 25.0197Z" fill="#C6C6C6"/>
<path d="M27.2368 24.4282C27.0445 24.4544 26.842 24.4056 26.6751 24.2792L21.7495 20.551C21.4157 20.2984 21.3511 19.8217 21.6056 19.4889C21.86 19.1561 22.3389 19.0908 22.6727 19.3435L27.5983 23.0717C27.9321 23.3244 27.9967 23.801 27.7422 24.1338C27.615 24.3002 27.4329 24.4015 27.2406 24.4277L27.2368 24.4282Z" fill="#C6C6C6"/>
</g>
<g clip-path="url(#clip1_88776_2241)">
<path d="M11 96.2683L31.0931 65.6295H41.4906V96.0789H47.5864V102.836H41.4906V111.365H33.5326V102.836H11V96.2683ZM33.6571 96.0789V74.9827H33.142L19.5353 95.767V96.0845H33.6571V96.0789Z" fill="#C6C6C6"/>
<path d="M53.5577 88.5028C53.5238 73.5956 60.2649 65 71.4038 65C82.5427 65 89.2499 73.59 89.2499 88.5028C89.2499 103.416 82.5767 112.006 71.4038 112.006C60.2309 112.006 53.5294 103.477 53.5577 88.5028ZM71.4038 105.12C77.211 105.087 80.8391 99.4993 80.8391 88.5028C80.8051 77.6065 77.211 71.8575 71.4038 71.8241C65.5966 71.8575 62.0025 77.6065 61.9685 88.5028C61.9685 99.4938 65.5627 105.087 71.4038 105.12Z" fill="#C6C6C6"/>
<path d="M95.4136 96.2683L115.501 65.6295H125.898V96.0789H131.994V102.836H125.898V111.365H117.94V102.836H95.4136V96.2683ZM118.071 96.0789V74.9827H117.556L103.949 95.767V96.0845H118.071V96.0789Z" fill="#C6C6C6"/>
</g>
<defs>
<clipPath id="clip0_88776_2241">
<rect width="144" height="49" fill="white"/>
</clipPath>
<clipPath id="clip1_88776_2241">
<rect width="121" height="47" fill="white" transform="translate(11 65)"/>
</clipPath>
</defs>
</svg>
