<svg width="18" height="19" viewBox="0 0 18 19" fill="none" xmlns="http://www.w3.org/2000/svg">
<path d="M17.9999 9.4023C17.9999 8.79693 17.9463 8.22222 17.8543 7.66283H9.19531V11.1188H14.1532C13.9309 12.2529 13.2796 13.2107 12.3141 13.8621V16.1609H15.2719C17.0037 14.5594 17.9999 12.1992 17.9999 9.4023Z" fill="white"/>
<path d="M9.19542 18.3908C11.6782 18.3908 13.7548 17.5632 15.272 16.1609L12.3142 13.8621C11.4866 14.4138 10.4368 14.751 9.19542 14.751C6.79695 14.751 4.7663 13.1341 4.03833 10.9502H0.988525V13.318C2.4981 16.3219 5.60155 18.3908 9.19542 18.3908Z" fill="white"/>
<path d="M4.03831 10.9502C3.84674 10.3985 3.74712 9.80842 3.74712 9.19539C3.74712 8.58237 3.8544 7.99233 4.03831 7.44061V5.07279H0.988505C0.360152 6.31417 0 7.7088 0 9.19539C0 10.682 0.360152 12.0766 0.988505 13.318L4.03831 10.9502Z" fill="white"/>
<path d="M9.19542 3.63984C10.5517 3.63984 11.7625 4.10728 12.7203 5.01916L15.341 2.39847C13.7548 0.911878 11.6782 0 9.19542 0C5.60155 0 2.4981 2.06897 0.988525 5.0728L4.03833 7.44061C4.7663 5.2567 6.79695 3.63984 9.19542 3.63984Z" fill="white"/>
</svg>
