<svg width="20" height="20" viewBox="0 0 20 20" fill="none" xmlns="http://www.w3.org/2000/svg">
<path d="M14.1339 5.45839C13.0696 4.46671 11.7243 3.95837 10.2173 3.95837C7.55227 3.95837 5.29597 5.71672 4.4871 8.09174C4.28276 8.69175 4.16352 9.33342 4.16352 10.0001C4.16352 10.6668 4.2742 11.3084 4.48706 11.9084C5.29593 14.2835 7.55227 16.0418 10.2173 16.0418C11.5965 16.0418 12.7629 15.6752 13.6824 15.0753C14.7552 14.367 15.4789 13.3251 15.7258 12.0918H10.217V8.33341H19.8383C19.9404 8.94175 20 9.56676 20 10.2251C20 13.2667 18.8932 15.8334 16.969 17.5751C15.2832 19.1001 12.9759 20.0002 10.2173 20.0002C6.22403 20.0002 2.77572 17.7502 1.09839 14.4835C0.400212 13.1335 0 11.6168 0 10.0001C0 8.38341 0.400174 6.86673 1.09835 5.51672C2.77568 2.25002 6.22403 1.43051e-06 10.2173 1.43051e-06C12.9759 1.43051e-06 15.2833 0.991678 17.0458 2.60836L14.1339 5.45839Z" fill="white"/>
</svg>
