<svg width="273" height="218" viewBox="0 0 273 218" fill="none" xmlns="http://www.w3.org/2000/svg">
<g clip-path="url(#clip0_88775_2208)">
<path d="M172.721 138.186C172.721 138.186 167.304 139.322 163.52 137.617C159.736 135.912 157.585 135.782 151.738 132.938C145.891 130.096 140.903 131.991 135.226 128.85C129.548 125.709 126.51 118.023 122.783 114.556C119.055 111.092 116.133 111.687 110.17 106.002C104.207 100.316 107.132 87.7563 106.386 84.5611C105.64 81.3658 100.48 75.6835 100.423 70.1059C100.367 64.5284 103.577 60.1434 106.27 54.9483C108.966 49.7503 105.696 37.4083 109.537 31.8846C113.378 26.3637 122.667 23.7633 125.877 19.3245C129.088 14.8857 133.962 8.65949 140.038 6.65679C146.117 4.65409 152.309 7.25165 159.303 3.67965C166.298 0.107642 172.721 0 172.721 0C172.721 0 179.142 0.107642 186.137 3.68248C193.131 7.25449 199.323 4.65692 205.402 6.65962C211.48 8.66233 216.352 14.8886 219.563 19.3274C222.773 23.7662 232.062 26.3666 235.903 31.8874C239.743 37.4083 236.477 49.7531 239.17 54.9511C241.866 60.1491 245.076 64.534 245.017 70.1088C244.96 75.6863 239.8 81.3686 239.054 84.5639C238.308 87.7592 241.233 100.319 235.27 106.004C229.307 111.69 226.382 111.095 222.657 114.559C218.93 118.023 215.892 125.711 210.214 128.853C204.537 131.994 199.549 130.099 193.702 132.94C187.855 135.782 185.704 135.915 181.92 137.62C178.136 139.325 172.719 138.189 172.719 138.189L172.721 138.186Z" fill="#F0F0F0"/>
<path d="M209.186 18.6107C209.186 18.6107 219.851 4.61158 233.181 6.33952C246.512 8.07028 257.864 21.9872 262.507 31.7033C267.15 41.4222 273 47.5493 273 47.5493V55.1749C273 55.1749 261.303 66.2931 237.74 65.1402C214.176 63.9873 209.186 18.6107 209.186 18.6107Z" fill="#C6C6C6"/>
<path d="M136.105 18.6107C136.105 18.6107 125.439 4.61158 112.109 6.33952C98.7784 8.07028 87.4262 21.9872 82.7831 31.7033C78.1399 41.4222 72.29 47.5493 72.29 47.5493V55.1749C72.29 55.1749 83.987 66.2931 107.55 65.1402C131.114 63.9873 136.105 18.6107 136.105 18.6107Z" fill="#C6C6C6"/>
<path d="M142.393 51.7785H137.467C136.991 51.7785 136.605 52.1653 136.605 52.6425V64.8598C136.605 65.337 136.991 65.7238 137.467 65.7238H142.393C142.869 65.7238 143.255 65.337 143.255 64.8598V52.6425C143.255 52.1653 142.869 51.7785 142.393 51.7785Z" fill="#C6C6C6"/>
<path d="M202.386 65.7238H207.312C207.788 65.7238 208.174 65.3369 208.174 64.8598V52.6425C208.174 52.1653 207.788 51.7785 207.312 51.7785H202.386C201.91 51.7785 201.524 52.1653 201.524 52.6425V64.8598C201.524 65.3369 201.91 65.7238 202.386 65.7238Z" fill="#C6C6C6"/>
<path d="M172.388 73.2219C174.499 73.2219 179.201 71.95 182.61 67.5792C186.018 63.2084 185.334 55.9652 182.2 53.8775C179.066 51.7898 172.388 52.311 172.388 52.311C172.388 52.311 165.71 51.7898 162.576 53.8775C159.442 55.9652 158.761 63.2084 162.166 67.5792C165.574 71.95 170.274 73.2219 172.388 73.2219Z" fill="#C6C6C6"/>
<path d="M180.043 93.1384C176.395 93.1384 173.931 90.4898 172.388 87.8838C170.845 90.4927 168.38 93.1384 164.732 93.1384C158.919 93.1384 156.573 86.5043 156.104 82.5838C155.96 81.3799 156.816 80.2837 158.02 80.1392C159.227 79.9948 160.315 80.8559 160.459 82.0598C160.468 82.1221 161.437 88.7421 164.732 88.7421C167.747 88.7421 169.788 83.5724 170.265 81.7624C170.52 80.7964 171.39 80.1251 172.385 80.1251H172.391C173.388 80.1251 174.259 80.7992 174.51 81.768C174.985 83.5753 177.025 88.7421 180.043 88.7421C183.367 88.7421 184.308 82.1249 184.316 82.0598C184.461 80.8559 185.549 79.9948 186.755 80.1392C187.956 80.2837 188.815 81.3771 188.671 82.5838C188.202 86.5043 185.857 93.1384 180.043 93.1384Z" fill="#C6C6C6"/>
<path d="M127.426 78.1536C127.426 40.5554 152.001 9.29118 184.39 2.861C178.111 0.0991438 172.722 0 172.722 0C172.722 0 166.301 0.107642 159.306 3.68248C152.312 7.25449 146.12 4.65692 140.041 6.65962C133.963 8.66233 129.091 14.8886 125.88 19.3274C122.67 23.7662 113.381 26.3666 109.54 31.8874C105.699 37.4083 108.966 49.7531 106.273 54.9511C103.577 60.1491 100.367 64.534 100.426 70.1116C100.483 75.6891 105.643 81.3715 106.389 84.5667C107.135 87.762 104.21 100.322 110.173 106.007C116.136 111.692 119.061 111.098 122.786 114.562C126.513 118.026 129.551 125.714 135.229 128.856C139.329 131.125 143.074 130.771 147.039 131.467C134.904 117.689 127.429 98.8859 127.429 78.1536H127.426Z" fill="#DBDBDB"/>
<path d="M235.092 165.967C229.493 159.941 220.077 159.814 214.318 165.587C208.683 159.939 199.546 159.939 193.911 165.587C188.276 171.235 188.276 180.393 193.911 186.042L209.742 201.91C212.269 204.443 216.367 204.443 218.896 201.91L234.481 186.288C240.015 180.742 240.425 171.706 235.092 165.967Z" fill="#F0F0F0"/>
<path d="M200.903 169.131C200.903 166.44 201.482 163.856 202.539 161.446C199.388 161.791 196.327 163.168 193.914 165.587C188.279 171.235 188.279 180.393 193.914 186.042L209.745 201.91C212.272 204.443 216.369 204.443 218.899 201.91L227.925 192.863C212.698 191.41 200.905 181.342 200.905 169.131H200.903Z" fill="#DBDBDB"/>
<path d="M44.1198 100.824C44.1198 100.824 15.5882 85.0597 6.9095 91.8638C3.52392 94.518 1.11614 99.1154 0.302246 105.044C2.61676 105.073 20.514 105.571 33.0022 113.973L44.1226 100.821L44.1198 100.824Z" fill="#F0F0F0"/>
<path d="M10.6907 140.359L32.9994 113.973C20.514 105.571 2.61393 105.073 0.299415 105.044C-0.972298 114.318 1.67286 126.856 10.6879 140.359H10.6907Z" fill="#C6C6C6"/>
<path d="M115.904 100.824C115.904 100.824 144.435 85.0597 153.114 91.8638C154.807 93.1894 156.254 95.0024 157.381 97.226C158.509 99.4497 159.314 102.081 159.721 105.044C157.407 105.073 139.51 105.571 127.021 113.973L115.901 100.821L115.904 100.824Z" fill="#DBDBDB"/>
<path d="M149.333 140.359L127.024 113.973C139.51 105.571 157.41 105.073 159.724 105.044C160.996 114.318 158.351 126.856 149.336 140.359H149.333Z" fill="#DBDBDB"/>
<path d="M80.7001 218C121.453 218 154.491 189.05 154.491 153.339C154.491 117.627 121.453 88.677 80.7001 88.677C39.9468 88.677 6.90967 117.627 6.90967 153.339C6.90967 189.05 39.9468 218 80.7001 218Z" fill="#F0F0F0"/>
<path d="M51.92 133.699H47.1497C46.6315 133.699 46.2114 134.121 46.2114 134.64V147.344C46.2114 147.864 46.6315 148.285 47.1497 148.285H51.92C52.4382 148.285 52.8582 147.864 52.8582 147.344V134.64C52.8582 134.121 52.4382 133.699 51.92 133.699Z" fill="#C6C6C6"/>
<path d="M34.2202 178.708C31.4366 180.657 29.7636 182.059 29.7297 182.087C29.3171 182.436 28.8169 182.606 28.3167 182.606C27.6949 182.606 27.076 182.342 26.6436 181.827C25.8637 180.9 25.9767 179.515 26.9008 178.733C27.0619 178.597 29.091 176.886 32.4201 174.603C30.9223 170.833 29.806 166.907 29.1249 162.856C24.8491 164.029 22.0966 165.117 22.0485 165.137C21.7829 165.244 21.5088 165.292 21.2375 165.292C20.367 165.292 19.5447 164.768 19.2027 163.91C18.7534 162.783 19.2988 161.505 20.4236 161.057C20.644 160.97 23.7724 159.732 28.5653 158.449C28.4156 156.76 28.3223 155.058 28.3223 153.333C28.3223 120.808 55.7291 93.8947 91.4106 89.3511C87.9148 88.9064 84.3427 88.6713 80.7084 88.6713C39.9542 88.6713 6.91797 117.621 6.91797 153.333C6.91797 189.044 39.9542 217.994 80.7084 217.994C84.3455 217.994 87.9176 217.759 91.4106 217.314C65.6117 214.029 44.1452 199.044 34.2287 178.702L34.2202 178.708Z" fill="#DBDBDB"/>
<path d="M41.9837 160.344C43.1876 160.21 44.0523 159.123 43.9195 157.919C43.7867 156.712 42.6987 155.843 41.5004 155.978C36.5945 156.525 32.1209 157.5 28.5601 158.451C28.6929 159.936 28.8766 161.406 29.1224 162.859C32.6041 161.902 37.0947 160.888 41.9837 160.344Z" fill="#DBDBDB"/>
<path d="M19.1974 163.916C19.5394 164.774 20.3618 165.298 21.2322 165.298C21.5035 165.298 21.7776 165.247 22.0433 165.142C22.0913 165.122 24.8439 164.035 29.1196 162.862C28.8738 161.409 28.6901 159.939 28.5573 158.454C23.7643 159.735 20.6359 160.973 20.4155 161.063C19.2935 161.514 18.7453 162.791 19.1946 163.916H19.1974Z" fill="#C6C6C6"/>
<path d="M47.1299 171.213C48.2292 170.703 48.7068 169.4 48.201 168.298C47.6923 167.196 46.3923 166.714 45.293 167.224C40.1129 169.624 35.6534 172.385 32.4204 174.606C32.9715 175.994 33.5706 177.365 34.2234 178.708C37.3462 176.521 41.8735 173.646 47.1299 171.213Z" fill="#DBDBDB"/>
<path d="M26.6439 181.83C27.0762 182.342 27.6951 182.609 28.3169 182.609C28.8171 182.609 29.3201 182.439 29.7299 182.09C29.7638 182.062 31.4368 180.66 34.2204 178.711C33.5648 177.368 32.9685 175.997 32.4174 174.609C29.0912 176.892 27.0593 178.603 26.8982 178.739C25.9741 179.524 25.861 180.909 26.641 181.832L26.6439 181.83Z" fill="#C6C6C6"/>
<path d="M80.0107 156.268C81.7855 156.268 85.7391 153.857 88.6047 150.007C91.4703 146.161 90.8966 139.784 88.2599 137.949C85.6232 136.113 80.0107 136.569 80.0107 136.569C80.0107 136.569 74.3954 136.11 71.7616 137.949C69.1249 139.787 68.554 146.161 71.4168 150.007C74.2824 153.854 78.2332 156.268 80.0107 156.268Z" fill="#C6C6C6"/>
<path d="M107.646 148.285H112.417C112.935 148.285 113.355 147.864 113.355 147.344V134.64C113.355 134.121 112.935 133.699 112.417 133.699H107.646C107.128 133.699 106.708 134.121 106.708 134.64V147.344C106.708 147.864 107.128 148.285 107.646 148.285Z" fill="#C6C6C6"/>
<path d="M138.331 165.298C138.06 165.298 137.786 165.247 137.52 165.142C137.43 165.105 128.471 161.559 117.58 160.347C116.376 160.213 115.511 159.126 115.644 157.922C115.777 156.718 116.853 155.848 118.063 155.981C129.571 157.262 138.758 160.907 139.145 161.063C140.267 161.514 140.815 162.791 140.366 163.916C140.024 164.774 139.199 165.298 138.331 165.298Z" fill="#C6C6C6"/>
<path d="M131.249 182.609C130.749 182.609 130.246 182.439 129.836 182.09C129.763 182.028 122.384 175.821 112.436 171.213C111.337 170.703 110.86 169.4 111.365 168.298C111.874 167.196 113.177 166.717 114.273 167.224C124.783 172.091 132.349 178.467 132.665 178.736C133.589 179.521 133.702 180.906 132.922 181.83C132.49 182.342 131.871 182.609 131.249 182.609Z" fill="#C6C6C6"/>
<path d="M87.4318 176.15C83.7636 176.15 81.3162 173.462 79.7845 170.768C78.2528 173.462 75.8055 176.15 72.1373 176.15C66.3213 176.15 63.9814 169.261 63.5151 165.188C63.3766 163.984 64.2386 162.893 65.4424 162.754C66.6463 162.616 67.7315 163.482 67.87 164.686C67.8785 164.754 68.8535 171.757 72.1401 171.757C75.212 171.757 77.2778 165.961 77.6622 164.409C77.9052 163.429 78.7813 162.743 79.7874 162.743C80.7934 162.743 81.6723 163.431 81.9125 164.409C82.3901 166.312 84.4362 171.757 87.4346 171.757C90.7184 171.757 91.6934 164.754 91.7019 164.683C91.8432 163.48 92.9227 162.616 94.1323 162.757C95.3333 162.899 96.1925 163.984 96.0568 165.188C95.5905 169.258 93.2506 176.15 87.4346 176.15H87.4318Z" fill="#C6C6C6"/>
</g>
<defs>
<clipPath id="clip0_88775_2208">
<rect width="273" height="218" fill="white"/>
</clipPath>
</defs>
</svg>
